<?xml version="1.0" encoding="UTF-8"?>
<svg xmlns="http://www.w3.org/2000/svg" xmlns:xlink="http://www.w3.org/1999/xlink" viewBox="0 0 1024 1024">
  <defs>
    <linearGradient id="linear-gradient" x1="210.71" y1="1033.85" x2="813.29" y2="-9.85" gradientUnits="userSpaceOnUse">
      <stop offset="0" stop-color="#1b9e77"/>
      <stop offset=".31" stop-color="#18a17b"/>
      <stop offset=".62" stop-color="#10ad87"/>
      <stop offset=".93" stop-color="#03c09b"/>
      <stop offset="1" stop-color="#00c5a1"/>
    </linearGradient>
  </defs>
  <g id="bg">
    <rect width="1024" height="1024" rx="264.65" ry="264.65" style="fill: url(#linear-gradient); stroke-width: 0px;"/>
  </g>
  <g id="skull_tag" data-name="skull tag">
    <circle cx="603.07" cy="410.48" r="325.49" style="stroke-width: 0px;"/>
  </g>
  <g id="skin_tag" data-name="skin tag">
    <g>
      <rect x="59.2" y="547.29" width="604.36" height="223.32" transform="translate(-338.85 386.02) rotate(-39.96)" style="fill: #e6ab02; stroke-width: 0px;"/>
      <circle cx="748.36" cy="203.19" r="31.44" style="fill: #fff; stroke-width: 0px;"/>
      <path d="M555.63,505.55c-.94,0-1.88-.33-2.65-.97-1.29-1.07-1.86-2.83-1.46-4.5.17-.71,17.25-71.86,41.88-150.9,33.19-106.51,63.59-175.91,90.36-206.26,33.34-37.8,67.8-58.61,90.84-69.41,25.1-11.77,42.17-14.52,42.88-14.63,2.32-.36,4.47,1.3,4.82,3.7.35,2.4-1.24,4.64-3.56,5.01h0c-.17.03-16.87,2.75-40.99,14.1-22.23,10.46-55.5,30.61-87.75,67.18-55.64,63.08-115.62,294.58-127.96,344.02l306.02-159.04c.27-.14.55-.25.84-.33l75.77-20.21c2.26-.61,4.57.81,5.16,3.17.58,2.35-.78,4.75-3.05,5.36l-75.33,20.09-313.91,163.14c-.6.31-1.25.47-1.89.47Z" style="fill: #fff; stroke-width: 0px;"/>
    </g>
    <circle cx="554.25" cy="498.42" r="18.41" style="fill: #fff; stroke-width: 0px;"/>
  </g>
</svg>