<svg height="512pt" viewBox="-15 0 512 512.00001" width="512pt" xmlns="http://www.w3.org/2000/svg"><path d="m458.417969 21.851562h-21.269531c-13.105469 0-23.769532 10.664063-23.769532 23.769532v74.496094 29.296874 70.027344 84.09375 71.503906 22.191407c0 6.429687-.179687 11.480469 2.566406 17.265625 2.546876 5.375 5.089844 10.746094 7.640626 16.121094 4.292968 9.0625 8.589843 18.128906 12.886718 27.195312 2.09375 4.414062 6.429688 7.160156 11.3125 7.15625 4.886719 0 9.21875-2.742188 11.3125-7.15625 4.558594-9.625 9.121094-19.25 13.683594-28.875 2.527344-5.332031 5.398438-10.621094 7.625-16.089844 3.488281-8.574218 1.78125-17.382812 1.78125-26.363281 0-22.691406 0-45.378906 0-68.070313 0-4.144531-3.359375-7.507812-7.507812-7.507812-4.152344 0-7.511719 3.359375-7.511719 7.507812v81.472657h-38.765625v-272.257813h38.765625v155.40625c0 4.148438 3.359375 7.511719 7.511719 7.511719 4.148437 0 7.507812-3.363281 7.507812-7.511719v-237.414062c0-13.105469-10.660156-23.769532-23.769531-23.769532zm-30.015625 90.261719v-11.109375h38.765625v11.109375zm0-66.492187c0-4.824219 3.925781-8.75 8.746094-8.75h21.273437c4.820313 0 8.746094 3.925781 8.746094 8.75v40.363281h-38.765625zm34.40625 369.285156-15.023438 31.699219-15.023437-31.699219zm0 0"/><path d="m298.894531 124.3125v-45.265625c0-6.902344-5.613281-12.515625-12.515625-12.515625h-221.28125c-6.902344 0-12.519531 5.613281-12.519531 12.515625v45.269531c0 6.902344 5.613281 12.515625 12.519531 12.515625h31.457032c4.148437 0 7.511718-3.359375 7.511718-7.511719 0-4.148437-3.363281-7.507812-7.511718-7.507812h-28.953126v-40.261719h216.273438v40.261719h-152.605469c-4.148437 0-7.507812 3.359375-7.507812 7.507812 0 4.152344 3.359375 7.511719 7.507812 7.511719h155.109375c6.902344 0 12.515625-5.613281 12.515625-12.519531zm0 0"/><path d="m358.386719 36.851562h-6.914063v-12.191406c0-13.597656-11.0625-24.660156-24.660156-24.660156h-319.300781c-4.148438 0-7.511719 3.363281-7.511719 7.511719v438.148437c0 14.304688 11.636719 25.9375 25.9375 25.9375h7.335938v27.675782c0 4.589843 2.371093 8.699218 6.34375 11 1.992187 1.148437 4.179687 1.726562 6.363281 1.726562 2.175781 0 4.355469-.570312 6.335937-1.714844l20.34375-11.699218 20.34375 11.699218c3.976563 2.292969 8.726563 2.285156 12.695313-.011718 3.976562-2.300782 6.347656-6.410157 6.347656-11v-27.675782h246.34375c13.597656 0 24.660156-11.0625 24.660156-24.660156v-385.425781c-.003906-13.597657-11.066406-24.660157-24.664062-24.660157zm-325.113281 419.726563h-7.335938c-6.019531 0-10.917969-4.898437-10.917969-10.917969v-10.914062h18.253907zm63.75 38.691406-18.027344-10.367187c-3.90625-2.25-8.761719-2.25-12.671875 0l-18.027344 10.367187v-60.523437h48.726563zm7.511718-75.546875h-89.515625v-404.703125h311.792969c5.316406 0 9.640625 4.324219 9.640625 9.640625v385.425782c0 5.3125-4.324219 9.636718-9.640625 9.636718zm263.492188 27.214844c0 5.316406-4.324219 9.640625-9.640625 9.640625h-246.339844v-21.832031h214.765625c13.597656 0 24.660156-11.0625 24.660156-24.660156v-358.210938h6.914063c5.316406 0 9.640625 4.324219 9.640625 9.640625zm0 0"/><path d="m264.128906 297.601562c0-4.148437-3.363281-7.507812-7.511718-7.507812h-114.296876c-4.148437 0-7.511718 3.359375-7.511718 7.507812 0 4.152344 3.363281 7.511719 7.511718 7.511719h114.296876c4.148437 0 7.511718-3.363281 7.511718-7.511719zm0 0"/><path d="m307.8125 290.09375h-15.898438c-4.144531 0-7.507812 3.359375-7.507812 7.507812 0 4.152344 3.359375 7.511719 7.507812 7.511719h15.898438c4.148438 0 7.511719-3.359375 7.511719-7.511719 0-4.148437-3.359375-7.507812-7.511719-7.507812zm0 0"/><path d="m142.320312 337.78125c-4.148437 0-7.511718 3.363281-7.511718 7.511719 0 4.148437 3.363281 7.511719 7.511718 7.511719h42.695313c4.144531 0 7.507813-3.363282 7.507813-7.511719 0-4.148438-3.359376-7.511719-7.507813-7.511719zm0 0"/><path d="m307.8125 337.78125h-88.382812c-4.148438 0-7.511719 3.363281-7.511719 7.511719 0 4.148437 3.363281 7.511719 7.511719 7.511719h88.382812c4.148438 0 7.511719-3.363282 7.511719-7.511719 0-4.148438-3.359375-7.511719-7.511719-7.511719zm0 0"/><path d="m211.050781 367.480469h-68.730469c-4.148437 0-7.511718 3.359375-7.511718 7.507812 0 4.152344 3.363281 7.511719 7.511718 7.511719h68.730469c4.148438 0 7.511719-3.359375 7.511719-7.511719 0-4.144531-3.363281-7.507812-7.511719-7.507812zm0 0"/><path d="m307.8125 367.480469h-62.710938c-4.148437 0-7.511718 3.359375-7.511718 7.507812 0 4.152344 3.359375 7.511719 7.511718 7.511719h62.710938c4.148438 0 7.511719-3.359375 7.511719-7.511719 0-4.144531-3.359375-7.507812-7.511719-7.507812zm0 0"/></svg>