<?xml version="1.0" encoding="iso-8859-1"?>
<!-- Generator: Adobe Illustrator 19.0.0, SVG Export Plug-In . SVG Version: 6.00 Build 0)  -->
<svg version="1.1" id="Capa_1" xmlns="http://www.w3.org/2000/svg" xmlns:xlink="http://www.w3.org/1999/xlink" x="0px" y="0px"
	 viewBox="0 0 512.001 512.001" style="enable-background:new 0 0 512.001 512.001;" xml:space="preserve">
<g>
	<g>
		<path d="M511.685,161.662c-22.977-76.588-0.389-138.89-0.161-139.501c0.988-2.636,0.417-5.604-1.479-7.686
			c-1.897-2.081-4.798-2.924-7.517-2.184c-88.731,24.2-137.087,63.924-139.103,65.603c-1.598,1.332-2.571,3.268-2.687,5.346
			l-7.778,140.008l-27.056,13.965c6.322-10.921,9.743-22.381,9.743-33.315c0-4.133-0.411-8.137-1.183-12.011
			c0.158-0.249,0.313-0.501,0.443-0.774c13.021-27.103,13.923-56.261,12.388-75.949c-0.591-7.558-5.409-13.807-12.575-16.309
			c-7.213-2.517-14.927-0.611-20.132,4.978l-36.021,38.676c-7.164-1.466-14.737-2.225-22.566-2.225
			c-7.969,0-15.518,0.773-22.579,2.211l-36.008-38.662c-5.205-5.59-12.921-7.496-20.132-4.978
			c-7.166,2.502-11.984,8.751-12.575,16.31c-1.535,19.688-0.633,48.845,12.388,75.948c0.136,0.282,0.295,0.545,0.459,0.802
			c-0.776,3.846-1.199,7.84-1.199,11.982c0,10.935,3.422,22.394,9.743,33.315l-27.056-13.965l-7.778-140.008
			c-0.115-2.078-1.089-4.014-2.687-5.346C146.561,76.214,98.206,36.49,9.474,12.29c-2.714-0.74-5.619,0.101-7.517,2.184
			c-1.896,2.081-2.468,5.049-1.479,7.686c0.231,0.618,22.895,62.651-0.161,139.501c-0.793,2.643-0.07,5.507,1.88,7.458
			c0.54,0.539,53.917,54.797,53.917,130.971c0,3.435,2.367,6.439,5.697,7.28c0.156,0.039,15.872,4.143,40.882,21.923
			c41.974,29.841,77.286,74.497,99.52,106.704c0.199,0.288,0.417,0.554,0.647,0.805c11.005,19.687,26.436,40.4,47.943,61.08
			c1.451,1.396,3.325,2.094,5.198,2.094c1.873,0,3.747-0.698,5.198-2.094c21.639-20.807,37.129-41.647,48.147-61.442
			c0.22-0.243,0.428-0.5,0.62-0.777c22.212-32.11,57.488-76.637,99.404-106.411c24.977-17.741,40.668-21.845,40.79-21.876
			c3.361-0.817,5.728-3.828,5.728-7.288c0-75.956,53.383-130.435,53.917-130.971C511.755,167.17,512.478,164.305,511.685,161.662z
			 M256.002,155.285c14.834,0,28.454,3.054,39.385,8.832c3.666,1.938,8.2,0.535,10.136-3.126c1.936-3.662,0.536-8.2-3.126-10.135
			c-2.485-1.314-5.079-2.508-7.766-3.584l30.934-33.215c1.594-1.71,3.477-1.295,4.21-1.039c0.713,0.249,2.391,1.07,2.565,3.314
			c1.177,15.093,0.808,36.25-6.329,56.99c-2.174-1.245-4.919-1.381-7.287-0.105c-3.646,1.964-5.011,6.513-3.047,10.16
			c3.298,6.122,4.97,13.026,4.97,20.521c0,14.191-8.279,30.62-22.148,43.946c-4.135,3.974-8.561,7.478-13.085,10.421
			c1.375-4.435,2.137-9.25,2.137-14.286c0-21.816-14.152-39.565-31.549-39.565c-17.397,0-31.549,17.749-31.549,39.565
			c0,5.011,0.754,9.802,2.115,14.218c-18.819-12.31-35.212-33.783-35.212-54.299C191.356,179.701,211.345,155.285,256.002,155.285z
			 M272.55,243.979c0,13.315-7.578,24.564-16.549,24.564c-8.971,0.001-16.549-11.248-16.549-24.564
			c0-13.315,7.578-24.565,16.549-24.565C264.972,219.414,272.55,230.664,272.55,243.979z M185.618,172.204
			c-6.771-20.38-7.112-41.05-5.956-55.871c0.175-2.245,1.853-3.066,2.565-3.315c0.734-0.256,2.617-0.669,4.21,1.039l30.923,33.203
			C203.633,152.779,192.722,161.356,185.618,172.204z M104.601,66.906c8.523,4.803,15.517,9.198,20.931,12.812
			c-42.257,10.105-72.283,29.146-90.715,44.227c-4.872,3.986-9.167,7.873-12.936,11.537c8.177-47.041,1.615-85.511-3.284-104.949
			C56.77,42.156,86.073,56.466,104.601,66.906z M17.151,163.2c10.214-13.365,44.718-52.311,110.03-68.46
			c-7.099,11.099-16.986,27.748-27.222,48.759c-12.644,25.953-27.468,62.292-36.424,104.073
			C51.176,204.841,27.068,174.422,17.151,163.2z M329.894,384.506c2.589-10.642,4.027-20.469,4.726-29.206
			c3.11-38.88-7.091-64.92-7.526-66.01c-1.54-3.846-5.907-5.718-9.749-4.178c-3.846,1.538-5.717,5.903-4.179,9.749
			c0.094,0.234,9.335,23.828,6.502,59.242c-2.549,31.866-15.782,79.461-63.669,127.848c-38.343-38.674-59.732-81.389-63.6-127.057
			c-3.015-35.591,6.348-59.809,6.437-60.033c1.538-3.846-0.333-8.211-4.179-9.749c-3.843-1.539-8.211,0.331-9.749,4.178
			c-0.436,1.09-10.637,27.129-7.526,66.01c0.7,8.751,2.141,18.596,4.739,29.258c-52.884-63.578-95.189-83.999-110.57-89.754
			c4.954-58.423,25.265-110.542,41.732-144.406c8.869-18.239,17.569-33.223,24.25-43.918l6.771,121.882
			c0.147,2.653,1.688,5.03,4.049,6.249l69.617,35.932c12.012,7.912,24.789,12.535,36.359,12.945
			c0.554,0.036,1.112,0.057,1.674,0.057c0.562,0,1.119-0.02,1.674-0.057c11.569-0.409,24.346-5.032,36.359-12.945l69.617-35.932
			c2.361-1.219,3.901-3.596,4.049-6.249l6.771-121.88c6.682,10.695,15.38,25.675,24.25,43.916
			c16.467,33.864,36.791,85.979,41.745,144.403C425.101,300.552,382.796,320.966,329.894,384.506z M448.469,247.57
			c-8.956-41.78-23.781-78.119-36.425-104.072c-10.237-21.012-20.125-37.663-27.226-48.765c4.058,0.999,8.063,2.098,11.993,3.299
			c0.73,0.223,1.469,0.33,2.195,0.33c3.211,0,6.182-2.079,7.17-5.31c1.21-3.961-1.02-8.154-4.98-9.365
			c-4.81-1.47-9.73-2.782-14.712-3.967c18.237-12.144,54.636-33.284,106.924-49.191c-4.897,19.429-11.457,57.875-3.297,104.888
			c-12.847-12.49-31.974-27.61-58.271-39.949c-3.745-1.758-8.215-0.146-9.976,3.604c-1.759,3.75-0.146,8.216,3.604,9.976
			c39.237,18.412,61.492,43.862,69.376,54.157C484.924,174.435,460.825,204.85,448.469,247.57z"/>
	</g>
</g>
<g>
	<g>
		<path d="M215.92,196.398c-4.143,0-7.5,3.358-7.5,7.5v8.016c0,4.142,3.357,7.5,7.5,7.5s7.5-3.358,7.5-7.5v-8.016
			C223.42,199.756,220.063,196.398,215.92,196.398z"/>
	</g>
</g>
<g>
	<g>
		<path d="M296.082,196.398c-4.143,0-7.5,3.358-7.5,7.5v8.016c0,4.142,3.358,7.5,7.5,7.5c4.143,0,7.5-3.358,7.5-7.5v-8.016
			C303.582,199.756,300.225,196.398,296.082,196.398z"/>
	</g>
</g>
<g>
</g>
<g>
</g>
<g>
</g>
<g>
</g>
<g>
</g>
<g>
</g>
<g>
</g>
<g>
</g>
<g>
</g>
<g>
</g>
<g>
</g>
<g>
</g>
<g>
</g>
<g>
</g>
<g>
</g>
</svg>
