<?xml version="1.0" encoding="UTF-8" standalone="no"?>
<!-- Created with Inkscape (http://www.inkscape.org/) -->

<svg
   version="1.1"
   id="svg4779"
   xml:space="preserve"
   width="682.66669"
   height="682.66669"
   viewBox="0 0 682.66669 682.66669"
   xmlns="http://www.w3.org/2000/svg"
   xmlns:svg="http://www.w3.org/2000/svg"><defs
     id="defs4783"><clipPath
       clipPathUnits="userSpaceOnUse"
       id="clipPath4793"><path
         d="M 0,512 H 512 V 0 H 0 Z"
         id="path4791" /></clipPath></defs><g
     id="g4785"
     transform="matrix(1.3333333,0,0,-1.3333333,0,682.66667)"><g
       id="g4787"><g
         id="g4789"
         clip-path="url(#clipPath4793)"><g
           id="g4795"
           transform="translate(70.8066,114.8037)"><path
             d="m 0,0 -60.761,-60.761 v 0 c 24.742,-24.44 64.574,-24.318 89.166,0.274 l 56.343,56.343"
             style="fill:none;stroke:#000000;stroke-width:20;stroke-linecap:round;stroke-linejoin:round;stroke-miterlimit:10;stroke-dasharray:none;stroke-opacity:1"
             id="path4797" /></g><g
           id="g4799"
           transform="translate(457.3723,260.0163)"><path
             d="m 0,0 c 7.345,20.19 11.352,41.984 11.352,64.714 v 77.467 c 0,40.875 -33.135,74.01 -74.01,74.01 v 0 c -19.63,0 -38.455,-7.798 -52.335,-21.678 l -73.515,-73.527"
             style="fill:none;stroke:#000000;stroke-width:20;stroke-linecap:round;stroke-linejoin:round;stroke-miterlimit:10;stroke-dasharray:none;stroke-opacity:1"
             id="path4801" /></g><g
           id="g4803"
           transform="translate(279.4517,135.4599)"><path
             d="M 0,0 C 49.54,-0.001 94.635,19.032 128.371,50.184"
             style="fill:none;stroke:#000000;stroke-width:20;stroke-linecap:round;stroke-linejoin:round;stroke-miterlimit:10;stroke-dasharray:none;stroke-opacity:1"
             id="path4805" /></g><g
           id="g4807"
           transform="translate(468.2247,410.7934)"><path
             d="M 0,0 33.73,-33.73 H 4.302"
             style="fill:none;stroke:#000000;stroke-width:20;stroke-linecap:round;stroke-linejoin:round;stroke-miterlimit:10;stroke-dasharray:none;stroke-opacity:1"
             id="path4809" /></g><g
           id="g4811"
           transform="translate(408.0272,393.9286)"><path
             d="M 0,0 V 0"
             style="fill:none;stroke:#000000;stroke-width:20;stroke-linecap:round;stroke-linejoin:round;stroke-miterlimit:10;stroke-dasharray:none;stroke-opacity:1"
             id="path4813" /></g><g
           id="g4815"
           transform="translate(268.8606,381.0068)"><path
             d="m 0,0 v 0 l -245.476,-245.476 c 79.764,-45.495 180.324,-31.797 245.255,33.134 C 58.355,-153.767 58.576,-58.576 0,0 Z"
             style="fill:none;stroke:#000000;stroke-width:20;stroke-linecap:round;stroke-linejoin:round;stroke-miterlimit:10;stroke-dasharray:none;stroke-opacity:1"
             id="path4817" /></g><g
           id="g4819"
           transform="translate(51.6021,164.0752)"><path
             d="m 0,0 c 56.728,-3.317 114.084,17.37 156.272,59.558 37.225,37.225 51.014,89.368 40.926,137.308"
             style="fill:none;stroke:#000000;stroke-width:20;stroke-linecap:round;stroke-linejoin:round;stroke-miterlimit:10;stroke-dasharray:none;stroke-opacity:1"
             id="path4821" /></g><g
           id="g4823"
           transform="translate(225.204,135.4599)"><path
             d="M 0,0 H 276.75"
             style="fill:none;stroke:#000000;stroke-width:20;stroke-linecap:round;stroke-linejoin:round;stroke-miterlimit:10;stroke-dasharray:none;stroke-opacity:1"
             id="path4825" /></g><g
           id="g4827"
           transform="translate(340.043,135.4599)"><path
             d="M 0,0 42.318,-42.318"
             style="fill:none;stroke:#000000;stroke-width:20;stroke-linecap:round;stroke-linejoin:round;stroke-miterlimit:10;stroke-dasharray:none;stroke-opacity:1"
             id="path4829" /></g><g
           id="g4831"
           transform="translate(382.3607,77.1422)"><path
             d="M 0,0 V 16 H 16 C 38.644,16 57,-2.356 57,-25 V -41 H 41 C 18.356,-41 0,-22.644 0,0 Z"
             style="fill:none;stroke:#000000;stroke-width:20;stroke-linecap:round;stroke-linejoin:round;stroke-miterlimit:10;stroke-dasharray:none;stroke-opacity:1"
             id="path4833" /></g><g
           id="g4835"
           transform="translate(437.0403,219.8672)"><path
             d="M 0,0 V 0"
             style="fill:none;stroke:#000000;stroke-width:20;stroke-linecap:round;stroke-linejoin:round;stroke-miterlimit:10;stroke-dasharray:none;stroke-opacity:1"
             id="path4837" /></g></g></g></g></svg>
