<?xml version="1.0" encoding="UTF-8" standalone="no"?>
<!-- Created with Inkscape (http://www.inkscape.org/) -->

<svg
   version="1.1"
   id="svg2673"
   xml:space="preserve"
   width="682.66669"
   height="682.66669"
   viewBox="0 0 682.66669 682.66669"
   xmlns="http://www.w3.org/2000/svg"
   xmlns:svg="http://www.w3.org/2000/svg"><defs
     id="defs2677"><clipPath
       clipPathUnits="userSpaceOnUse"
       id="clipPath2691"><path
         d="M 0,512 H 512 V 0 H 0 Z"
         id="path2689" /></clipPath></defs><g
     id="g2679"
     transform="matrix(1.3333333,0,0,-1.3333333,0,682.66667)"><g
       id="g2681"
       transform="translate(97.0234,202.6396)"><path
         d="M 0,0 V -32.776"
         style="fill:none;stroke:#000000;stroke-width:15;stroke-linecap:round;stroke-linejoin:round;stroke-miterlimit:10;stroke-dasharray:none;stroke-opacity:1"
         id="path2683" /></g><g
       id="g2685"><g
         id="g2687"
         clip-path="url(#clipPath2691)"><g
           id="g2693"
           transform="translate(97.0234,132.8374)"><path
             d="m 0,0 v -32.956 c 0,-4.991 2.733,-9.582 7.122,-11.96 l 145.374,-78.766 c 4.043,-2.191 8.918,-2.191 12.961,0 l 145.374,78.766 c 4.389,2.378 7.122,6.969 7.122,11.96 V 67.318"
             style="fill:none;stroke:#000000;stroke-width:15;stroke-linecap:round;stroke-linejoin:round;stroke-miterlimit:10;stroke-dasharray:none;stroke-opacity:1"
             id="path2695" /></g><g
           id="g2697"
           transform="translate(256,177.9175)"><path
             d="M 0,0 V -165.472"
             style="fill:none;stroke:#000000;stroke-width:15;stroke-linecap:round;stroke-linejoin:round;stroke-miterlimit:10;stroke-dasharray:none;stroke-opacity:1"
             id="path2699" /></g><g
           id="g2701"
           transform="translate(256,350.1909)"><path
             d="M 0,0 -158.978,-86.137 0,-172.273 158.978,-86.137 Z"
             style="fill:none;stroke:#000000;stroke-width:15;stroke-linecap:round;stroke-linejoin:round;stroke-miterlimit:10;stroke-dasharray:none;stroke-opacity:1"
             id="path2703" /></g><g
           id="g2705"
           transform="translate(292.3799,391.9272)"><path
             d="m 0,0 -36.38,-41.736 158.977,-86.137 50.572,58.02 c 2.862,3.284 1.943,8.374 -1.887,10.45 l -55.754,30.207"
             style="fill:none;stroke:#000000;stroke-width:15;stroke-linecap:round;stroke-linejoin:round;stroke-miterlimit:10;stroke-dasharray:none;stroke-opacity:1"
             id="path2707" /></g><g
           id="g2709"
           transform="translate(375.2998,380.3984)"><path
             d="M 0,0 -48.405,26.226"
             style="fill:none;stroke:#000000;stroke-width:15;stroke-linecap:round;stroke-linejoin:round;stroke-miterlimit:10;stroke-dasharray:none;stroke-opacity:1"
             id="path2711" /></g><g
           id="g2713"
           transform="translate(131.4102,377.5322)"><path
             d="m 0,0 -83.072,-45.008 c -3.83,-2.075 -4.749,-7.166 -1.887,-10.45 l 50.571,-58.02 158.978,86.137 -52.574,60.315 c -2.092,2.4 -5.569,3.027 -8.368,1.511 L 33.593,18.201"
             style="fill:none;stroke:#000000;stroke-width:15;stroke-linecap:round;stroke-linejoin:round;stroke-miterlimit:10;stroke-dasharray:none;stroke-opacity:1"
             id="path2715" /></g><g
           id="g2717"
           transform="translate(256,177.9175)"><path
             d="m 0,0 -64.133,-21.714 c -3.585,-1.214 -7.514,-0.879 -10.843,0.924 L -215.03,55.092 c -5.221,2.828 -4.566,10.518 1.058,12.422 l 54.994,18.623 z"
             style="fill:none;stroke:#000000;stroke-width:15;stroke-linecap:round;stroke-linejoin:round;stroke-miterlimit:10;stroke-dasharray:none;stroke-opacity:1"
             id="path2719" /></g><g
           id="g2721"
           transform="translate(469.9717,245.4316)"><path
             d="m 0,0 -54.994,18.623 -158.978,-86.137 64.133,-21.715 c 3.585,-1.213 7.515,-0.878 10.843,0.925 L 1.059,-12.422 C 6.279,-9.594 5.624,-1.904 0,0 Z"
             style="fill:none;stroke:#000000;stroke-width:15;stroke-linecap:round;stroke-linejoin:round;stroke-miterlimit:10;stroke-dasharray:none;stroke-opacity:1"
             id="path2723" /></g><g
           id="g2725"
           transform="translate(298.458,71.3999)"><path
             d="M 0,0 17.205,9.322"
             style="fill:none;stroke:#000000;stroke-width:15;stroke-linecap:round;stroke-linejoin:round;stroke-miterlimit:10;stroke-dasharray:none;stroke-opacity:1"
             id="path2727" /></g><g
           id="g2729"
           transform="translate(195.9805,477.125)"><path
             d="M 0,0 -22.981,-22.981"
             style="fill:none;stroke:#000000;stroke-width:15;stroke-linecap:round;stroke-linejoin:round;stroke-miterlimit:10;stroke-dasharray:none;stroke-opacity:1"
             id="path2731" /></g><g
           id="g2733"
           transform="translate(195.9805,454.1436)"><path
             d="M 0,0 -22.981,22.981"
             style="fill:none;stroke:#000000;stroke-width:15;stroke-linecap:round;stroke-linejoin:round;stroke-miterlimit:10;stroke-dasharray:none;stroke-opacity:1"
             id="path2735" /></g><g
           id="g2737"
           transform="translate(111.8516,404.3198)"><path
             d="M 0,0 C 0,14.933 12.105,27.039 27.038,27.039 41.972,27.039 54.077,14.933 54.077,0 54.077,-14.933 41.972,-27.039 27.038,-27.039 12.105,-27.039 0,-14.933 0,0"
             style="fill:none;stroke:#000000;stroke-width:15;stroke-linecap:round;stroke-linejoin:round;stroke-miterlimit:10;stroke-dasharray:none;stroke-opacity:1"
             id="path2739" /></g><g
           id="g2741"
           transform="translate(418.0205,427.9946)"><path
             d="M 0,0 -22.981,-22.981"
             style="fill:none;stroke:#000000;stroke-width:15;stroke-linecap:round;stroke-linejoin:round;stroke-miterlimit:10;stroke-dasharray:none;stroke-opacity:1"
             id="path2743" /></g><g
           id="g2745"
           transform="translate(418.0205,405.0132)"><path
             d="M 0,0 -22.981,22.981"
             style="fill:none;stroke:#000000;stroke-width:15;stroke-linecap:round;stroke-linejoin:round;stroke-miterlimit:10;stroke-dasharray:none;stroke-opacity:1"
             id="path2747" /></g><g
           id="g2749"
           transform="translate(326.2324,410.5034)"><path
             d="m 0,0 c 0,-11.862 -9.615,-21.478 -21.478,-21.478 -11.861,0 -21.476,9.616 -21.476,21.478 0,11.861 9.615,21.477 21.476,21.477 C -9.615,21.477 0,11.861 0,0 Z"
             style="fill:none;stroke:#000000;stroke-width:15;stroke-linecap:round;stroke-linejoin:round;stroke-miterlimit:10;stroke-dasharray:none;stroke-opacity:1"
             id="path2751" /></g><g
           id="g2753"
           transform="translate(373.5049,479.3242)"><path
             d="m 0,0 c 0,-13.904 -11.271,-25.175 -25.176,-25.175 -13.903,0 -25.176,11.271 -25.176,25.175 0,13.904 11.273,25.176 25.176,25.176 C -11.271,25.176 0,13.904 0,0 Z"
             style="fill:none;stroke:#000000;stroke-width:15;stroke-linecap:round;stroke-linejoin:round;stroke-miterlimit:10;stroke-dasharray:none;stroke-opacity:1"
             id="path2755" /></g><g
           id="g2757"
           transform="translate(237.583,305.501)"><path
             d="m 0,0 c -28.975,-8.053 -50.253,-34.613 -50.253,-66.151 0,-9.69 2.01,-18.92 5.64,-27.28 l 63.03,-34.15 63.03,34.15 c 3.63,8.36 5.64,17.59 5.64,27.28 0,31.468 -21.184,57.979 -50.061,66.096"
             style="fill:none;stroke:#000000;stroke-width:15;stroke-linecap:round;stroke-linejoin:round;stroke-miterlimit:10;stroke-dasharray:none;stroke-opacity:1"
             id="path2759" /></g><g
           id="g2761"
           transform="translate(269.6484,218.9106)"><path
             d="M 0,0 C -3.641,3.107 -8.748,5.057 -14.422,5.074 -20.096,5.091 -25.215,3.172 -28.874,0.086"
             style="fill:none;stroke:#000000;stroke-width:15;stroke-linecap:round;stroke-linejoin:round;stroke-miterlimit:10;stroke-dasharray:none;stroke-opacity:1"
             id="path2763" /></g><g
           id="g2765"
           transform="translate(288.6279,246.1963)"><path
             d="M 0,0 H 0.071"
             style="fill:none;stroke:#000000;stroke-width:15;stroke-linecap:round;stroke-linejoin:round;stroke-miterlimit:10;stroke-dasharray:none;stroke-opacity:1"
             id="path2767" /></g><g
           id="g2769"
           transform="translate(223.3008,246.1963)"><path
             d="M 0,0 H 0.07"
             style="fill:none;stroke:#000000;stroke-width:15;stroke-linecap:round;stroke-linejoin:round;stroke-miterlimit:10;stroke-dasharray:none;stroke-opacity:1"
             id="path2771" /></g><g
           id="g2773"
           transform="translate(288.6201,246.1963)"><path
             d="M 0,0 H 0.07"
             style="fill:none;stroke:#000000;stroke-width:15;stroke-linecap:round;stroke-linejoin:round;stroke-miterlimit:10;stroke-dasharray:none;stroke-opacity:1"
             id="path2775" /></g></g></g></g></svg>
