<svg id="Capa_1" enable-background="new 0 0 512 512" height="512" viewBox="0 0 512 512" width="512" xmlns="http://www.w3.org/2000/svg"><g><path d="m317.35 0c-38.608 0-75.922 11.281-107.908 32.625-3.445 2.299-4.375 6.956-2.076 10.401 2.3 3.445 6.957 4.374 10.402 2.075 29.512-19.692 63.947-30.101 99.582-30.101 100.042 0 179.65 81.475 179.65 179.65 0 99.059-80.591 179.649-179.65 179.649s-179.65-80.59-179.65-179.649c0-49.812 20.953-97.822 57.487-131.722 3.036-2.817 3.214-7.563.396-10.6-2.817-3.035-7.562-3.212-10.6-.396-39.343 36.509-62.283 87.631-62.283 142.718 0 38.271 11.109 73.991 30.261 104.122-132.26 89.111-125.268 84.365-126.045 84.988-17.105 13.762-26.916 34.237-26.916 56.173 0 39.738 32.329 72.067 72.067 72.067 21.92 0 42.485-9.934 56.42-27.254.307-.379 24.683-36.582 24.956-36.987 2.314-3.436 1.406-8.097-2.029-10.411-3.435-2.313-8.096-1.406-10.411 2.028l-24.397 36.207c-11.068 13.615-27.284 21.417-44.539 21.417-31.467 0-57.067-25.601-57.067-57.067 0-17.37 7.771-33.585 21.314-44.481l125.168-84.333c11.186 14.933 24.465 28.211 39.397 39.397l-43.111 63.98c-2.314 3.436-1.406 8.097 2.029 10.411 3.44 2.317 8.099 1.402 10.411-2.028l43.018-63.842c30.13 19.153 65.852 30.263 104.124 30.263 107.331 0 194.65-87.32 194.65-194.65 0-106.513-86.4-194.65-194.65-194.65z"/><path d="m187.288 229.5c16.222 60.538 71.103 99.832 129.969 99.832 88.843 0 152.969-84.393 130.155-169.531-19.145-71.454-92.739-114.553-164.912-95.213-71.717 19.217-114.428 93.196-95.212 164.912zm99.094-150.424c63.691-17.068 129.421 20.713 146.542 84.607 20.349 75.945-37.18 150.587-115.183 150.578-52.865-.003-101.756-35.618-115.964-88.645-17.076-63.725 20.878-129.464 84.605-146.54z"/><path d="m270.852 175.565c12.13 0 22-9.869 22-21.999 0-10.093 8.441-18.059 18.61-17.421 8.587.533 15.733 7.678 16.266 16.267.478 7.694-4.008 14.712-11.162 17.461-17.167 6.598-28.259 22.651-28.259 40.899v14.299c0 12.131 9.869 22 22 22s21.999-9.869 21.999-22v-14.109c.013-.006.027-.013.044-.019 25.176-9.674 40.966-34.292 39.291-61.259-1.914-30.84-26.614-55.539-57.447-57.452-36.536-2.295-65.341 26.998-65.341 61.334 0 12.13 9.868 21.999 21.999 21.999zm42.406-68.362c23.302 1.446 41.964 20.108 43.412 43.411 1.267 20.396-10.669 39.015-29.701 46.327-5.87 2.256-9.663 7.685-9.663 13.831v14.299c0 3.859-3.14 7-7 7s-7-3.141-7-7v-14.299c0-11.988 7.316-22.546 18.64-26.897 13.298-5.111 21.637-18.129 20.751-32.393-.994-16.003-14.307-29.315-30.306-30.308-19.184-1.194-34.542 14.054-34.542 32.392 0 3.859-3.14 6.999-7 6.999s-6.999-3.14-6.999-6.999c.003-25.955 21.765-48.093 49.408-46.363z"/><path d="m310.312 253.108c-12.13 0-22 9.869-22 21.999 0 12.131 9.869 22 22 22s22-9.869 22-22c0-12.129-9.869-21.999-22-21.999zm0 28.999c-3.859 0-7-3.141-7-7s3.14-6.999 7-6.999 7 3.14 7 6.999-3.14 7-7 7z"/></g></svg>