<?xml version="1.0" encoding="utf-8"?>
<!-- Generator: Adobe Illustrator 27.7.0, SVG Export Plug-In . SVG Version: 6.00 Build 0)  -->
<svg version="1.1" id="Layer_1" xmlns:svgjs="http://svgjs.com/svgjs"
	 xmlns="http://www.w3.org/2000/svg" xmlns:xlink="http://www.w3.org/1999/xlink" x="0px" y="0px" viewBox="0 0 512 512"
	 style="enable-background:new 0 0 512 512;" xml:space="preserve">
<style type="text/css">
	.st0{clip-path:url(#SVGID_00000000213827652433340200000017949541466190511527_);}
	.st1{fill-rule:evenodd;clip-rule:evenodd;fill:#FFFFFF;}
	.st2{fill-rule:evenodd;clip-rule:evenodd;fill:#97EEBA;}
	.st3{fill-rule:evenodd;clip-rule:evenodd;fill:#6B809A;}
	.st4{fill-rule:evenodd;clip-rule:evenodd;fill:#00E0BB;}
	.st5{fill-rule:evenodd;clip-rule:evenodd;fill:#00C5A1;}
	.st6{fill:none;stroke:#000000;stroke-width:15;stroke-miterlimit:22.926;}
	.st7{fill:none;stroke:#000000;stroke-width:15;stroke-miterlimit:2.613;}
	.st8{font-family:'Chalkboard-Bold';}
	.st9{font-size:122.3093px;}
	.st10{letter-spacing:11.7;}
</style>
<g>
	<g>
		<defs>
			<rect id="SVGID_1_" y="0" width="512" height="512"/>
		</defs>
		<clipPath id="SVGID_00000130606047459382795960000008392237292450289321_">
			<use xlink:href="#SVGID_1_"  style="overflow:visible;"/>
		</clipPath>
		
			<g transform="matrix(1.33333 0 0 -1.33333 0 682.667)" style="clip-path:url(#SVGID_00000130606047459382795960000008392237292450289321_);">
			<path class="st1" d="M107.6,403.6h180v-90h-180V403.6z M57,506.4V291.1h219.4c6.2,0,11.3-5.1,11.3-11.3v-90
				c0-6.2-5.1-11.3-11.3-11.3H57v-45h281.3v294h-78.8v78.8H57z"/>
			<path class="st2" d="M276.4,291.1H45.8V178.6h230.6c6.2,0,11.3,5.1,11.3,11.3v90C287.6,286.1,282.6,291.1,276.4,291.1"/>
			<path class="st3" d="M259.5,427.6h78.8l-78.8,78.8V427.6z"/>
			<path class="st4" d="M62.6,291.1H45.8V178.6h16.9V291.1z"/>
			<path class="st5" d="M73.9,178.6H57v-45h16.9V178.6z M259.5,427.6h78.8l-78.8,78.8V427.6z M57,291.1h16.9v215.3H57V291.1z"/>
			<path class="st4" d="M107.6,381.1h180v22.5h-180V381.1z"/>
			<path class="st2" d="M107.6,381.1h180v-67.5h-180V381.1z"/>
			<path class="st6" d="M276.4,133.6H57v45 M298.9,133.6h-11.3 M57,291.1v215.3h202.5l78.8-78.8v-294h-28.1"/>
			<path class="st6" d="M338.3,427.6h-78.8v78.8"/>
			<path class="st6" d="M45.8,240.5v50.6h230.6c6.2,0,11.3-5.1,11.3-11.3v-90c0-6.2-5.1-11.3-11.3-11.3H45.8v50.6"/>
			<path class="st7" d="M180.8,483.9H192 M203.3,483.9h11.3"/>
			<path class="st6" d="M107.6,403.6h180v-90h-180V403.6z"/>
			<path class="st6" d="M107.6,381.1h180 M107.6,336.1h180 M107.6,358.6h180"/>
			<path class="st6" d="M135.8,403.6v-90"/>
			<path class="st6" d="M211.7,403.6v-90"/>
		</g>
	</g>
</g>
<text transform="matrix(1.1121 0 0 1 86.7031 407.7227)" class="st8 st9 st10">CSV</text>
</svg>
