<?xml version="1.0" encoding="utf-8"?>
<!-- Generator: Adobe Illustrator 27.7.0, SVG Export Plug-In . SVG Version: 6.00 Build 0)  -->
<svg version="1.1" id="Capa_1" xmlns="http://www.w3.org/2000/svg" xmlns:xlink="http://www.w3.org/1999/xlink" x="0px" y="0px"
	 viewBox="0 0 512 512" style="enable-background:new 0 0 512 512;" xml:space="preserve">
<g>
	<path d="M486.7,99.4L396.6,9.2c-6-6-13.9-9.2-22.3-9.2H135.8c-13,0-23.5,10.6-23.5,23.5V264c0,4.1,3.4,7.5,7.5,7.5s7.5-3.4,7.5-7.5
		V23.5c0-4.7,3.8-8.5,8.5-8.5h238.5c0.8,0,1.7,0.1,2.5,0.2v80.5c0,13,10.6,23.5,23.5,23.5h80.5c0.1,0.8,0.2,1.6,0.2,2.5v366.8
		c0,4.7-3.8,8.5-8.5,8.5H135.8c-4.7,0-8.5-3.8-8.5-8.5c0-4.1-3.4-7.5-7.5-7.5s-7.5,3.4-7.5,7.5c0,13,10.6,23.5,23.5,23.5h336.7
		c13,0,23.5-10.6,23.5-23.5V121.7C496,113.2,492.7,105.3,486.7,99.4L486.7,99.4z M391.8,95.7V25.6l78.6,78.6h-70.1
		C395.6,104.2,391.8,100.4,391.8,95.7L391.8,95.7z"/>
	<path d="M335.6,440.4V312.1c0-13-10.6-23.5-23.5-23.5H39.6c-13,0-23.5,10.6-23.5,23.5v128.3c0,13,10.6,23.5,23.5,23.5h272.5
		C325.1,463.9,335.6,453.3,335.6,440.4L335.6,440.4z M31,440.4V312.1c0-4.7,3.8-8.5,8.5-8.5H312c4.7,0,8.5,3.8,8.5,8.5v128.3
		c0,4.7-3.8,8.5-8.5,8.5H39.6C34.9,448.9,31,445.1,31,440.4L31,440.4z"/>
	<path d="M360.2,399.8h56.1c13,0,23.5-10.6,23.5-23.5V167.8c0-13-10.6-23.5-23.5-23.5H191.9c-13,0-23.5,10.6-23.5,23.5V264
		c0,4.1,3.4,7.5,7.5,7.5s7.5-3.4,7.5-7.5v-8.5h57.1v8.5c0,4.1,3.4,7.5,7.5,7.5s7.5-3.4,7.5-7.5v-8.5h97.2v136.8
		C352.7,396.4,356.1,399.8,360.2,399.8L360.2,399.8z M424.9,240.5h-57.1v-33.1h57.1V240.5z M424.9,336.7h-57.1v-33.1h57.1V336.7z
		 M416.3,384.8h-48.6v-33.1h57.1v24.6C424.9,380.9,421,384.8,416.3,384.8L416.3,384.8z M424.9,167.8v24.6h-57.1v-33.1h48.6
		C421,159.3,424.9,163.1,424.9,167.8L424.9,167.8z M352.7,192.4h-97.2v-33.1h97.2V192.4z M191.9,159.3h48.6v33.1h-57.1v-24.6
		C183.3,163.1,187.2,159.3,191.9,159.3L191.9,159.3z M183.3,240.5v-33.1h57.1v33.1H183.3z M255.5,240.5v-33.1h97.2v33.1H255.5z
		 M424.9,255.5v33.1h-57.1v-33.1H424.9z"/>
</g>
<g>
	<path d="M110.3,393.4c1.6-1.5,3.4-2.4,5.4-2.6s3.9,0,5.6,0.8c1.7,0.8,3,2,3.9,3.7c0.9,1.7,1.1,3.7,0.7,5.9
		c-0.6,2.3-1.8,4.4-3.5,6.3c-1.7,1.9-3.4,3.8-5,5.4c-3.8,3.9-8.2,6.8-12.9,8.6c-4.8,1.8-9.5,2.7-14.3,2.6c-4.8-0.1-9.5-1.2-14.2-3.3
		c-4.6-2.1-8.8-5.2-12.4-9.4c-2.1-2.5-4-5.1-5.5-7.8c-1.5-2.8-2.6-5.7-3.5-8.7c-1.2-4.5-1.8-9.1-1.7-14c0.1-4.9,0.9-9.6,2.4-14.1
		c1.5-4.6,3.7-8.9,6.4-12.9c2.7-4.1,6.1-7.5,10.1-10.3c2.9-2.1,5.8-3.9,8.7-5.4c2.9-1.5,6.1-3,9.3-4.3c1.9-0.8,3.8-1.5,5.8-2.2
		s4-1.3,6.1-1.7c2.1-0.4,4.2-0.6,6.2-0.4c2.1,0.1,4.1,0.6,6.1,1.3c1.4,0.6,2.8,1.4,4.2,2.3c1.4,1,2.7,2.2,3.8,3.4s2.2,2.6,3.2,4.1
		c0.9,1.4,1.5,2.8,2,4.2c0.3,1.2,0.4,2.5,0.2,3.8c-0.2,1.3-0.6,2.5-1.2,3.5c-0.7,1-1.5,1.9-2.6,2.6c-1.1,0.7-2.3,1.2-3.7,1.4
		c-2.2,0.3-4,0.1-5.3-0.7c-1.2-0.8-2.2-1.7-3-2.9c-0.7-1.1-1.5-2.2-2.1-3.4c-0.7-1.1-1.7-1.8-3-2.3c-0.8,0-1.4,0.1-1.8,0.2
		c-3.4,0.9-6.8,2-10.2,3.5c-3.5,1.4-6.6,3.3-9.5,5.4c-2.9,2.1-5.5,4.6-7.6,7.3c-2.1,2.8-3.7,5.8-4.8,9.3c-1.2,4.1-1.7,8.2-1.3,12.4
		c0.3,4.2,1.5,8.1,3.5,11.8c1.2,2.2,2.8,4.1,4.8,5.7c2,1.6,4.2,2.8,6.5,3.7c2.4,0.8,4.8,1.1,7.3,0.9c2.5-0.2,4.8-1,7.2-2.5
		c2-1.4,3.7-3,5.3-5C107.6,397.4,109.1,395.4,110.3,393.4z"/>
	<path d="M139,408.5c-0.7-1.8-0.9-3.6-0.7-5.4c0.3-1.8,0.9-3.4,2-4.6c1-1.3,2.4-2.2,4.1-2.7c1.7-0.6,3.5-0.3,5.7,0.5
		c1.9,0.8,3.5,1.9,4.8,3.4c1.3,1.4,3,2.6,4.8,3.5c2.6,1.2,5.2,2.2,7.9,2.7c1.9,0.5,3.7,0.8,5.7,1c1.9,0.2,3.8,0.2,5.8,0.2
		c1.5-0.4,2.8-0.8,3.8-1.1c1.1-0.4,2.2-1.2,3.5-2.4c1.5-1.2,2.4-2.7,2.9-4.4c0.5-1.7,0.5-3.4,0-5c-0.5-1.7-1.3-3.2-2.5-4.6
		c-1.2-1.4-2.8-2.3-4.6-2.8c-3.5-1.1-6.9-2-10.4-2.6c-3.5-0.6-6.8-1.4-10.2-2.2c-3.3-0.9-6.3-2.1-9.3-3.7c-2.9-1.6-5.6-3.8-8.1-6.8
		c-1.4-1.6-2.2-3-2.7-4.3c-0.4-1.2-0.8-2.8-1.3-4.7c-0.9-4.6-0.6-8.4,1.1-11.6c1.7-3.2,3.7-6,6.2-8.5c3.2-3.4,6.8-5.8,10.8-7.6
		s8.2-2.9,12.7-3.4c4.4-0.6,8.9-0.4,13.4,0.3c4.5,0.7,8.8,1.9,12.9,3.7c2.4,1,3.9,2.4,4.6,4.4s0.7,3.9,0.1,5.8
		c-0.6,1.9-1.8,3.4-3.5,4.7c-1.7,1.2-3.6,1.7-6,1.3c-2.4-0.5-4.6-1-6.7-1.5c-2.1-0.6-4.2-1-6.2-1.4c-1.6-0.3-3.3-0.3-5.1-0.2
		c-1.9,0.2-3.5,0.5-5.2,1c-1.7,0.4-3.2,0.9-4.6,1.4s-2.4,1-3.2,1.7c-0.8,0.6-1.6,1.5-2.3,2.6c-0.7,1-1.2,2.2-1.3,3.6
		c-0.2,1.6,0.5,3,2,4c1.5,1,3.1,1.8,4.8,2.3c3.3,0.6,6.6,1.3,10.2,1.9c3.5,0.6,6.9,1.4,10.3,2.6c3.4,1.1,6.5,2.5,9.4,4.2
		c2.9,1.7,5.4,4,7.6,6.9c2.2,2.5,3.9,5.3,4.9,8.4c1,3.1,1.4,6.3,1.1,9.4c-0.3,3.1-1,6.2-2.3,9c-1.3,2.9-3.1,5.4-5.3,7.6
		c-1.6,1.5-3.3,2.8-4.9,3.9c-1.8,1.1-3.6,2.2-5.6,3.2c-4,2-8.2,3-12.8,3s-9.1-0.6-13.7-1.9c-4.6-1.3-8.9-3.1-13-5.4
		c-4.1-2.3-7.6-4.9-10.4-7.6L139,408.5z"/>
	<path d="M282.2,333.5c1.2-1.9,2.7-3.2,4.6-3.8s3.7-0.8,5.6-0.4c1.9,0.4,3.5,1.3,4.8,2.7c1.3,1.4,2,3.3,1.9,5.6
		c-0.1,2.2-0.7,4.2-2,6.1c-1.2,1.8-2.3,3.7-3.5,5.5c-2.7,5-5.2,9.9-7.6,14.9c-2.4,5-4.8,10.1-7.1,15.3c-2.2,5-4.4,10.1-6.4,15
		c-2,5-4,10.1-6,15.2c-0.7,1.5-1.4,3.3-2.1,5.4c-0.7,2.1-1.6,3.8-2.7,5.4c-1.1,1.5-2.4,2.6-3.9,3.1c-1.6,0.6-3.1,0.7-4.6,0.4
		c-1.5-0.3-3-1-4.3-1.9s-2.3-2.3-2.9-3.9c-1.1-2.6-2.1-5.3-3.2-7.8c-1-2.6-2.1-5.1-3.2-7.7c-1.1-2.6-2.1-5.3-3.2-7.8
		c-1-2.6-2.1-5.1-3.2-7.7c-2.1-5.2-4.2-10.5-6.2-15.6c-2.1-5.2-4.1-10.4-6.1-15.6c-1.3-3.2-2.4-6.1-3.5-8.5c-1-2.5-2-5.4-2.8-8.5
		c-0.7-2.2-0.4-4.1,0.9-5.7c1.3-1.6,3-2.7,5-3.4c2.1-0.6,4.1-0.6,6.2,0c2.1,0.6,3.7,2,4.7,4.2c4.2,9.5,8,19.1,11.7,28.8
		c3.6,9.7,7.3,19.4,11.1,29.2c0.6-1.4,1-2.6,1.4-3.4c0.4-0.8,0.7-1.4,0.8-2s0.4-1,0.5-1.2c0.1-0.2,0.3-0.6,0.5-0.9
		c1-3.8,2.4-7.5,4.2-11c1.9-3.6,3.5-7.2,5.1-10.8c4.3-9.7,9-19.1,14.5-28.1L282.2,333.5z"/>
</g>
</svg>
