<?xml version="1.0" encoding="iso-8859-1"?>
<!-- Generator: Adobe Illustrator 19.0.0, SVG Export Plug-In . SVG Version: 6.00 Build 0)  -->
<svg version="1.1" id="Capa_1" xmlns="http://www.w3.org/2000/svg" xmlns:xlink="http://www.w3.org/1999/xlink" x="0px" y="0px"
	 viewBox="0 0 512 512" style="enable-background:new 0 0 512 512;" xml:space="preserve">
<g>
	<g>
		<path d="M455.069,356.93C453.21,355.069,450.63,354,448,354s-5.21,1.069-7.07,2.93c-1.86,1.861-2.93,4.429-2.93,7.07
			c0,2.63,1.069,5.21,2.93,7.069c1.86,1.86,4.44,2.931,7.07,2.931s5.21-1.07,7.069-2.931C456.93,369.21,458,366.63,458,364
			S456.93,358.79,455.069,356.93z"/>
	</g>
</g>
<g>
	<g>
		<path d="M502,492h-44v-93c0-5.522-4.478-10-10-10c-5.522,0-10,4.478-10,10v93H122v-94c0-5.522-4.478-10-10-10
			c-5.522,0-10,4.478-10,10v94H74V229.002L256,86.915l182,142.087V324c0,5.522,4.478,10,10,10c5.522,0,10-4.478,10-10v-79.384
			l1.748,1.365c1.817,1.419,3.988,2.118,6.15,2.118c2.572,0,5.134-0.989,7.074-2.929l36.069-36.07
			c2.025-2.026,3.085-4.824,2.91-7.684c-0.176-2.86-1.569-5.507-3.828-7.27L448,147.208V47c0-5.523-4.478-10-10-10h-57.958
			c-5.522,0-10,4.477-10,10v39.346L262.153,2.118c-3.615-2.823-8.691-2.823-12.307,0L3.876,194.146
			c-2.259,1.763-3.652,4.41-3.828,7.27c-0.175,2.86,0.885,5.657,2.91,7.684l36.069,36.07c3.57,3.569,9.244,3.919,13.225,0.811
			L54,244.616V492H10c-5.522,0-10,4.478-10,10c0,5.522,4.478,10,10,10h492c5.522,0,10-4.478,10-10C512,496.478,507.522,492,502,492z
			 M390.042,57H428v74.594l-37.958-29.634V57z M46.916,224.774l-21.82-21.821L256,22.686l230.904,180.267l-21.82,21.821
			L262.153,66.346c-1.808-1.412-3.98-2.118-6.153-2.118c-2.173,0-4.346,0.706-6.153,2.118L46.916,224.774z"/>
	</g>
</g>
<g>
	<g>
		<path d="M352,218H160c-5.522,0-10,4.477-10,10v192c0,5.522,4.478,10,10,10h192c5.522,0,10-4.478,10-10V228
			C362,222.477,357.522,218,352,218z M246,410h-76v-76h76V410z M246,314h-76v-76h76V314z M342,410h-76v-76h76V410z M342,314h-76v-76
			h76V314z"/>
	</g>
</g>
<g>
	<g>
		<path d="M112,348.506c-5.522,0-10,4.477-10,10v0.161c0,5.522,4.478,10,10,10c5.522,0,10-4.478,10-10v-0.161
			C122,352.984,117.522,348.506,112,348.506z"/>
	</g>
</g>
<g>
</g>
<g>
</g>
<g>
</g>
<g>
</g>
<g>
</g>
<g>
</g>
<g>
</g>
<g>
</g>
<g>
</g>
<g>
</g>
<g>
</g>
<g>
</g>
<g>
</g>
<g>
</g>
<g>
</g>
</svg>
