<?xml version="1.0" encoding="UTF-8" standalone="no"?>
<!-- Created with Inkscape (http://www.inkscape.org/) -->

<svg
   version="1.1"
   id="svg81"
   xml:space="preserve"
   width="682.66669"
   height="682.66669"
   viewBox="0 0 682.66669 682.66669"
   xmlns="http://www.w3.org/2000/svg"
   xmlns:svg="http://www.w3.org/2000/svg"><defs
     id="defs85"><clipPath
       clipPathUnits="userSpaceOnUse"
       id="clipPath95"><path
         d="M 0,512 H 512 V 0 H 0 Z"
         id="path93" /></clipPath></defs><g
     id="g87"
     transform="matrix(1.3333333,0,0,-1.3333333,0,682.66667)"><g
       id="g89"><g
         id="g91"
         clip-path="url(#clipPath95)"><g
           id="g97"
           transform="translate(217.7075,467.1055)"><path
             d="m 0,0 c -3.122,0 -5.59,-1.19 -7.576,-3.599 -2.383,-2.863 -3.122,-6.52 -3.122,-10.148 0,-3.657 0.682,-7.455 3.037,-10.403 1.958,-2.495 4.483,-3.629 7.661,-3.629 3.149,0 5.676,1.191 7.633,3.657 2.326,2.92 3.065,6.577 3.065,10.233 0,3.657 -0.71,7.369 -3.037,10.29 C 5.704,-1.133 3.177,0 0,0 m 141.932,-25.907 h 10.499 c 1.901,0 3.603,-0.681 5.022,-1.957 l 0.029,-0.028 0.028,-0.056 c 0.653,-0.624 1.136,-1.361 1.532,-2.155 0.397,-0.907 0.596,-1.871 0.596,-2.863 0,-1.927 -0.738,-3.628 -2.128,-5.017 -0.625,-0.624 -1.363,-1.134 -2.156,-1.502 -0.909,-0.426 -1.873,-0.596 -2.867,-0.596 h -18.189 c -2.127,0 -3.972,0.851 -5.446,2.382 -1.448,1.53 -2.243,3.372 -2.243,5.499 V 6.86 c 0,2.07 0.766,3.912 2.243,5.357 1.474,1.474 3.291,2.268 5.39,2.268 2.044,0 3.86,-0.794 5.335,-2.24 1.504,-1.445 2.355,-3.287 2.355,-5.385 z m -44.663,-0.057 h 10.784 c 1.957,0 3.66,-0.738 5.051,-2.069 l 0.028,-0.029 c 0.652,-0.652 1.163,-1.36 1.532,-2.183 0.397,-0.906 0.596,-1.87 0.596,-2.862 0,-1.928 -0.71,-3.601 -2.1,-4.961 -1.39,-1.36 -3.15,-2.013 -5.107,-2.013 H 89.722 c -2.099,0 -4.001,0.709 -5.505,2.184 -1.504,1.501 -2.27,3.372 -2.27,5.498 V 6.18 c 0,2.069 0.795,3.883 2.241,5.385 1.477,1.56 3.321,2.353 5.449,2.353 h 18.074 c 1.93,0 3.604,-0.709 4.967,-2.098 1.333,-1.36 2.013,-3.06 2.013,-4.96 0,-1.899 -0.708,-3.571 -1.929,-4.988 L 112.706,1.814 112.649,1.758 C 111.315,0.426 109.613,-0.34 107.711,-0.34 H 97.213 v -5.584 h 9.25 c 1.986,0 3.746,-0.709 5.164,-2.097 1.334,-1.361 2.1,-3.034 2.1,-4.961 0,-1.928 -0.709,-3.628 -2.072,-4.989 -1.418,-1.418 -3.206,-2.07 -5.192,-2.07 h -9.194 z m -53.43,25 h -5.505 c -1.844,0 -3.461,0.737 -4.795,2.013 -1.447,1.361 -2.128,3.118 -2.128,5.131 0,1.87 0.711,3.543 1.986,4.904 1.362,1.417 3.065,2.154 4.995,2.154 h 26.105 c 1.957,0 3.66,-0.737 5.022,-2.126 1.361,-1.417 2.071,-3.146 2.071,-5.073 0,-1.928 -0.738,-3.629 -2.1,-4.99 -1.362,-1.361 -3.064,-2.098 -4.993,-2.098 h -5.42 v -32.739 c 0,-2.069 -0.766,-3.883 -2.185,-5.358 -1.447,-1.474 -3.235,-2.267 -5.306,-2.267 -2.071,0 -3.888,0.823 -5.419,2.183 l -0.058,0.028 -0.028,0.056 c -1.476,1.447 -2.242,3.289 -2.242,5.358 z m -70.284,-12.698 c 0,7.54 2.184,14.399 7.433,19.927 5.137,5.414 11.634,7.88 19.069,7.88 7.433,0 13.876,-2.522 18.983,-7.965 5.192,-5.556 7.405,-12.415 7.405,-19.984 0,-7.54 -2.24,-14.371 -7.405,-19.927 -5.107,-5.471 -11.577,-8.022 -19.04,-8.022 -7.434,0 -13.875,2.523 -18.983,7.937 -5.278,5.584 -7.462,12.529 -7.462,20.154 m -41.343,-6.661 v -13.55 c 0,-2.041 -0.709,-3.883 -2.157,-5.386 -1.475,-1.474 -3.319,-2.21 -5.391,-2.21 -2.1,0 -3.944,0.736 -5.448,2.182 -1.504,1.474 -2.241,3.317 -2.241,5.414 V 6.039 c 0,2.068 0.823,3.883 2.241,5.357 1.476,1.531 3.32,2.381 5.448,2.381 2.1,0 3.916,-0.795 5.363,-2.297 1.448,-1.502 2.185,-3.373 2.185,-5.441 V -6.122 h 17.251 V 6.039 c 0,2.068 0.824,3.883 2.243,5.357 1.475,1.502 3.263,2.381 5.391,2.381 2.07,0 3.888,-0.765 5.363,-2.24 1.503,-1.502 2.241,-3.373 2.241,-5.498 v -39.912 c 0,-2.041 -0.766,-3.826 -2.184,-5.3 -1.447,-1.531 -3.32,-2.296 -5.42,-2.296 -2.1,0 -3.944,0.736 -5.42,2.21 -1.474,1.475 -2.214,3.317 -2.214,5.386 v 13.55 z"
             style="fill:#000000;fill-opacity:1;fill-rule:evenodd;stroke:none"
             id="path99" /></g><g
           id="g101"
           transform="translate(357.625,439.2134)"><path
             d="m 0,0 h 12.514 c 1.39,0 2.61,-0.481 3.66,-1.445 0.481,-0.482 0.851,-1.021 1.134,-1.616 0.256,-0.595 0.398,-1.275 0.398,-2.013 0,-1.388 -0.511,-2.579 -1.532,-3.6 -0.454,-0.453 -0.993,-0.821 -1.59,-1.105 -0.596,-0.284 -1.276,-0.425 -2.014,-0.425 H -5.619 c -1.532,0 -2.865,0.596 -4.001,1.786 -1.134,1.161 -1.702,2.55 -1.702,4.11 v 39.06 c 0,1.532 0.568,2.835 1.675,3.94 1.105,1.135 2.44,1.673 3.972,1.673 1.476,0 2.781,-0.538 3.944,-1.673 C -0.568,37.587 0,36.284 0,34.752 Z m -44.634,-0.085 h 12.769 c 1.39,0 2.61,-0.481 3.689,-1.502 0.453,-0.482 0.822,-0.993 1.106,-1.616 0.284,-0.595 0.398,-1.276 0.398,-2.012 0,-1.389 -0.483,-2.551 -1.476,-3.515 -0.993,-0.993 -2.242,-1.474 -3.717,-1.474 h -18.331 c -1.617,0 -2.978,0.538 -4.114,1.643 -1.107,1.078 -1.646,2.438 -1.646,4.054 v 38.579 c 0,1.503 0.539,2.863 1.646,3.997 1.136,1.162 2.468,1.758 4.03,1.758 h 18.074 c 1.39,0 2.554,-0.511 3.519,-1.503 0.993,-0.992 1.476,-2.183 1.476,-3.572 0,-1.332 -0.483,-2.58 -1.476,-3.685 -0.994,-1.021 -2.185,-1.53 -3.519,-1.53 h -12.513 v -9.552 h 11.265 c 1.475,0 2.724,-0.511 3.746,-1.532 1.021,-1.02 1.532,-2.21 1.532,-3.543 0,-1.389 -0.511,-2.579 -1.505,-3.572 -0.992,-0.991 -2.269,-1.502 -3.773,-1.502 h -11.18 z m -49.458,28.999 h -7.491 c -1.249,0 -2.383,0.51 -3.405,1.473 -1.021,0.964 -1.533,2.183 -1.533,3.685 0,1.332 0.483,2.494 1.477,3.515 0.964,1.02 2.128,1.531 3.518,1.531 h 26.105 c 1.391,0 2.582,-0.511 3.604,-1.531 0.993,-1.021 1.475,-2.239 1.475,-3.656 0,-1.389 -0.482,-2.58 -1.475,-3.573 -1.022,-0.991 -2.213,-1.502 -3.604,-1.502 h -7.406 V -5.896 c 0,-1.53 -0.568,-2.834 -1.646,-3.968 -1.078,-1.105 -2.383,-1.644 -3.859,-1.644 -1.476,0 -2.837,0.539 -4.086,1.644 -1.106,1.134 -1.674,2.438 -1.674,3.968 z m -45.825,0.991 c -3.717,0 -6.754,-1.445 -9.137,-4.336 -2.384,-2.892 -3.575,-6.691 -3.575,-11.424 0,-4.847 1.162,-8.73 3.461,-11.651 2.326,-2.919 5.419,-4.364 9.251,-4.364 3.802,0 6.867,1.473 9.193,4.393 2.355,2.948 3.518,6.775 3.518,11.48 0,4.762 -1.163,8.617 -3.489,11.537 -2.298,2.891 -5.391,4.365 -9.222,4.365 M -164.349,14.23 c 0,7.54 2.27,13.72 6.868,18.538 4.567,4.847 10.47,7.256 17.621,7.256 7.094,0 12.939,-2.437 17.506,-7.313 4.598,-4.875 6.868,-11.083 6.868,-18.623 0,-7.455 -2.27,-13.634 -6.868,-18.567 -4.567,-4.932 -10.441,-7.398 -17.563,-7.398 -7.094,0 -12.939,2.466 -17.537,7.342 -4.596,4.875 -6.895,11.111 -6.895,18.765 M -209.691,9.581 V -5.981 c 0,-1.559 -0.54,-2.892 -1.618,-3.969 -1.05,-1.105 -2.384,-1.643 -3.944,-1.643 -1.589,0 -2.923,0.538 -4.029,1.643 -1.107,1.077 -1.675,2.41 -1.675,3.969 v 39.912 c 0,1.473 0.568,2.806 1.703,3.968 1.135,1.19 2.468,1.785 4.001,1.785 1.532,0 2.837,-0.566 3.915,-1.701 1.078,-1.133 1.647,-2.494 1.647,-4.052 V 19.757 h 21.224 v 14.174 c 0,1.473 0.567,2.806 1.702,3.968 1.136,1.19 2.441,1.785 3.944,1.785 1.505,0 2.838,-0.566 3.945,-1.672 1.106,-1.106 1.673,-2.466 1.673,-4.081 V -5.981 c 0,-1.474 -0.539,-2.778 -1.645,-3.911 -1.078,-1.135 -2.412,-1.701 -3.973,-1.701 -1.588,0 -2.923,0.538 -4.001,1.643 -1.078,1.077 -1.645,2.41 -1.645,3.969 V 9.581 Z"
             style="fill:#000000;fill-opacity:1;fill-rule:nonzero;stroke:none"
             id="path103" /></g><g
           id="g105"
           transform="translate(449.4751,371.8638)"><path
             d="M 0,0 V -328.784 H -386.951 V 0"
             style="fill:none;stroke:#000000;stroke-width:20;stroke-linecap:round;stroke-linejoin:round;stroke-miterlimit:10;stroke-dasharray:none;stroke-opacity:1"
             id="path107" /></g><g
           id="g109"
           transform="translate(47.5425,43.0801)"><path
             d="m 0,0 h 416.915 c 9.107,0 16.543,-7.427 16.543,-16.525 0,-9.1 -7.436,-16.555 -16.543,-16.555 H 0 c -9.108,0 -16.542,7.455 -16.542,16.555 C -16.542,-7.427 -9.108,0 0,0 Z"
             style="fill:none;stroke:#000000;stroke-width:20;stroke-linecap:round;stroke-linejoin:round;stroke-miterlimit:10;stroke-dasharray:none;stroke-opacity:1"
             id="path111" /></g><path
           d="m 207.039,149.122 h 97.922 V 43.08 h -97.922 z"
           style="fill:none;stroke:#000000;stroke-width:20;stroke-linecap:round;stroke-linejoin:round;stroke-miterlimit:10;stroke-dasharray:none;stroke-opacity:1"
           id="path113" /><path
           d="m 104.491,333.597 h 48.663 v -48.641 h -48.663 z"
           style="fill:none;stroke:#000000;stroke-width:20;stroke-linecap:round;stroke-linejoin:round;stroke-miterlimit:10;stroke-dasharray:none;stroke-opacity:1"
           id="path115" /><path
           d="m 190.667,333.597 h 48.691 v -48.641 h -48.691 z"
           style="fill:none;stroke:#000000;stroke-width:20;stroke-linecap:round;stroke-linejoin:round;stroke-miterlimit:10;stroke-dasharray:none;stroke-opacity:1"
           id="path117" /><path
           d="m 104.491,250.572 h 48.663 V 201.93 h -48.663 z"
           style="fill:none;stroke:#000000;stroke-width:20;stroke-linecap:round;stroke-linejoin:round;stroke-miterlimit:10;stroke-dasharray:none;stroke-opacity:1"
           id="path119" /><path
           d="m 190.667,250.572 h 48.691 V 201.93 h -48.691 z"
           style="fill:none;stroke:#000000;stroke-width:20;stroke-linecap:round;stroke-linejoin:round;stroke-miterlimit:10;stroke-dasharray:none;stroke-opacity:1"
           id="path121" /><g
           id="g123"
           transform="translate(419.0845,404.9438)"><path
             d="M 0,0 V 97.056 H -326.142 V 0"
             style="fill:none;stroke:#000000;stroke-width:20;stroke-linecap:round;stroke-linejoin:round;stroke-miterlimit:10;stroke-dasharray:none;stroke-opacity:1"
             id="path125" /></g><g
           id="g127"
           transform="translate(216.0332,371.8638)"><path
             d="m 0,0 h -168.491 c -9.108,0 -16.542,7.426 -16.542,16.525 0,9.1 7.434,16.555 16.542,16.555 h 416.915 c 9.108,0 16.543,-7.455 16.543,-16.555 C 264.967,7.426 257.532,0 248.424,0 H 79.933"
             style="fill:none;stroke:#000000;stroke-width:20;stroke-linecap:round;stroke-linejoin:round;stroke-miterlimit:10;stroke-dasharray:none;stroke-opacity:1"
             id="path129" /></g><path
           d="m 276.869,333.597 h 48.692 v -48.641 h -48.692 z"
           style="fill:none;stroke:#000000;stroke-width:20;stroke-linecap:round;stroke-linejoin:round;stroke-miterlimit:10;stroke-dasharray:none;stroke-opacity:1"
           id="path131" /><path
           d="m 363.073,333.597 h 48.663 v -48.641 h -48.663 z"
           style="fill:none;stroke:#000000;stroke-width:20;stroke-linecap:round;stroke-linejoin:round;stroke-miterlimit:10;stroke-dasharray:none;stroke-opacity:1"
           id="path133" /><path
           d="m 276.869,250.572 h 48.692 V 201.93 h -48.692 z"
           style="fill:none;stroke:#000000;stroke-width:20;stroke-linecap:round;stroke-linejoin:round;stroke-miterlimit:10;stroke-dasharray:none;stroke-opacity:1"
           id="path135" /><path
           d="m 363.073,250.572 h 48.663 V 201.93 h -48.663 z"
           style="fill:none;stroke:#000000;stroke-width:20;stroke-linecap:round;stroke-linejoin:round;stroke-miterlimit:10;stroke-dasharray:none;stroke-opacity:1"
           id="path137" /><path
           d="m 96.603,149.122 h 75.081 V 100.48 H 96.603 Z"
           style="fill:none;stroke:#000000;stroke-width:20;stroke-linecap:round;stroke-linejoin:round;stroke-miterlimit:10;stroke-dasharray:none;stroke-opacity:1"
           id="path139" /><path
           d="m 340.316,149.122 h 75.08 V 100.48 h -75.08 z"
           style="fill:none;stroke:#000000;stroke-width:20;stroke-linecap:round;stroke-linejoin:round;stroke-miterlimit:10;stroke-dasharray:none;stroke-opacity:1"
           id="path141" /><g
           id="g143"
           transform="translate(256.0142,149.1221)"><path
             d="M 0,0 V -106.042"
             style="fill:none;stroke:#000000;stroke-width:20;stroke-linecap:round;stroke-linejoin:round;stroke-miterlimit:10;stroke-dasharray:none;stroke-opacity:1"
             id="path145" /></g><g
           id="g147"
           transform="translate(256.0142,371.8638)"><path
             d="M 0,0 H 0.169"
             style="fill:none;stroke:#000000;stroke-width:20;stroke-linecap:round;stroke-linejoin:round;stroke-miterlimit:10;stroke-dasharray:none;stroke-opacity:1"
             id="path149" /></g></g></g></g></svg>
