<svg id="Line_cutting_cutting_Ex" height="512" viewBox="0 0 512 512" width="512" xmlns="http://www.w3.org/2000/svg" data-name="Line cutting cutting Ex"><g><path d="m272 424h16v16h-16z"/><path d="m224 424h16v16h-16z"/><path d="m56 96h16v64h-16z"/><path d="m96 96h16v64h-16z"/><path d="m56 176h16v64h-16z"/><path d="m96 176h16v64h-16z"/><path d="m56 256h16v64h-16z"/><path d="m96 256h16v48h-16z"/><path d="m440 96h16v64h-16z"/><path d="m400 96h16v64h-16z"/><path d="m440 176h16v64h-16z"/><path d="m400 176h16v64h-16z"/><path d="m440 256h16v64h-16z"/><path d="m400 256h16v48h-16z"/><path d="m240 96h32v32h16v-80h-16v32h-32v-32h-16v80h16z"/><path d="m488 32h-168.111a18.025 18.025 0 0 0 -17.889-16h-92a18.025 18.025 0 0 0 -17.889 16h-168.111a8 8 0 0 0 -8 8v120h16v-80h104v240h-24a8 8 0 0 0 -8 8v8h-72v-160h-16v312a8 8 0 0 0 8 8h464a8 8 0 0 0 8-8v-64h-16v16h-88v-72h8a8 8 0 0 0 8-8v-8h72v54.522h16v-366.522a8 8 0 0 0 -8-8zm-168 32v-16h160v16zm-112-30a2 2 0 0 1 2-2h92a2 2 0 0 1 2 2v108a2 2 0 0 1 -2 2h-92a2 2 0 0 1 -2-2zm-176 14h160v16h-160zm120 32h40v62a18.021 18.021 0 0 0 18 18h92a18.021 18.021 0 0 0 18-18v-62h40v240h-208zm-16 384h48v16h-48zm48-16h-48v-80h48zm-80-96v8a8 8 0 0 0 8 8h8v72h-88v-88zm-72 104h88v24h-88zm168-88h48v112h-48zm64 112v-112h48v112zm112 0h-48v-16h48zm104-24v24h-88v-24zm-104-8h-48v-80h48zm16-96h-272v-16h272zm16-16v-8a8 8 0 0 0 -8-8h-24v-240h104v256z"/><path d="m220 176h-44a8 8 0 0 0 -8 8v20a28.032 28.032 0 0 0 28 28h44a8 8 0 0 0 8-8v-20a28.032 28.032 0 0 0 -28-28zm12 40h-36a12.013 12.013 0 0 1 -12-12v-12h36a12.013 12.013 0 0 1 12 12z"/><path d="m336 176h-44a28.032 28.032 0 0 0 -28 28v20a8 8 0 0 0 8 8h44a28.032 28.032 0 0 0 28-28v-20a8 8 0 0 0 -8-8zm-8 28a12.013 12.013 0 0 1 -12 12h-36v-12a12.013 12.013 0 0 1 12-12h36z"/><path d="m220 248h-44a8 8 0 0 0 -8 8v20a28.032 28.032 0 0 0 28 28h44a8 8 0 0 0 8-8v-20a28.032 28.032 0 0 0 -28-28zm12 40h-36a12.013 12.013 0 0 1 -12-12v-12h36a12.013 12.013 0 0 1 12 12z"/><path d="m336 248h-44a28.032 28.032 0 0 0 -28 28v20a8 8 0 0 0 8 8h44a28.032 28.032 0 0 0 28-28v-20a8 8 0 0 0 -8-8zm-8 28a12.013 12.013 0 0 1 -12 12h-36v-12a12.013 12.013 0 0 1 12-12h36z"/></g></svg>