<?xml version="1.0" encoding="UTF-8" standalone="no"?>
<!-- Created with Inkscape (http://www.inkscape.org/) -->

<svg
   version="1.1"
   id="svg2256"
   xml:space="preserve"
   width="682.66669"
   height="682.66669"
   viewBox="0 0 682.66669 682.66669"
   xmlns="http://www.w3.org/2000/svg"
   xmlns:svg="http://www.w3.org/2000/svg"><defs
     id="defs2260"><clipPath
       clipPathUnits="userSpaceOnUse"
       id="clipPath2270"><path
         d="M 0,512 H 512 V 0 H 0 Z"
         id="path2268" /></clipPath></defs><g
     id="g2262"
     transform="matrix(1.3333333,0,0,-1.3333333,0,682.66667)"><g
       id="g2264"><g
         id="g2266"
         clip-path="url(#clipPath2270)"><path
           d="M 386.763,62.04 H 342.534 V 504.5 h 44.229 z"
           style="fill:none;stroke:#000000;stroke-width:15;stroke-linecap:round;stroke-linejoin:round;stroke-miterlimit:10;stroke-dasharray:none;stroke-opacity:1"
           id="path2272" /><g
           id="g2274"
           transform="translate(118.5068,504.5)"><path
             d="M 0,0 H -22.057 C -32.275,0 -40.56,-8.284 -40.56,-18.502 v -405.456 c 0,-10.219 8.285,-18.502 18.503,-18.502 l 22.057,0 z"
             style="fill:none;stroke:#000000;stroke-width:15;stroke-linecap:round;stroke-linejoin:round;stroke-miterlimit:10;stroke-dasharray:124, 35, 480, 0;stroke-dashoffset:0;stroke-opacity:1"
             id="path2276" /></g><g
           id="g2278"
           transform="translate(118.5068,62.04)"><path
             d="m 0,0 v -51.65 c 0,-2.504 2.972,-3.819 4.825,-2.134 l 24.964,22.695 c 1.101,1 2.78,1 3.881,0 l 24.964,-22.695 c 1.853,-1.685 4.824,-0.37 4.824,2.134 l 0,51.65 z"
             style="fill:none;stroke:#000000;stroke-width:15;stroke-linecap:round;stroke-linejoin:round;stroke-miterlimit:10;stroke-dasharray:none;stroke-opacity:1"
             id="path2280" /></g><g
           id="g2282"
           transform="translate(342.5342,443.1069)"><path
             d="m 0,0 h -147.02 c -4.248,0 -7.692,-3.444 -7.692,-7.692 v -50.959 c 0,-4.248 3.444,-7.691 7.692,-7.691 H 0 Z"
             style="fill:none;stroke:#000000;stroke-width:15;stroke-linecap:round;stroke-linejoin:round;stroke-miterlimit:10;stroke-dasharray:none;stroke-opacity:1"
             id="path2284" /></g><g
           id="g2286"
           transform="translate(395.1006,504.5)"><path
             d="M 0,0 H -276.594 V -442.46 H 0 c 21.513,0 38.952,17.439 38.952,38.952 V -38.952 C 38.952,-17.439 21.513,0 0,0 Z"
             style="fill:none;stroke:#000000;stroke-width:15;stroke-linecap:round;stroke-linejoin:round;stroke-miterlimit:10;stroke-dasharray:871, 35, 768, 0;stroke-dashoffset:0;stroke-opacity:1"
             id="path2288" /></g></g></g></g></svg>
