<?xml version="1.0" encoding="iso-8859-1"?>
<!-- Generator: Adobe Illustrator 19.0.0, SVG Export Plug-In . SVG Version: 6.00 Build 0)  -->
<svg version="1.1" id="Capa_1" xmlns="http://www.w3.org/2000/svg" xmlns:xlink="http://www.w3.org/1999/xlink" x="0px" y="0px"
	 viewBox="0 0 512 512" style="enable-background:new 0 0 512 512;" xml:space="preserve">
<g>
	<g>
		<path d="M492.305,168.159c-1.823-3.718-6.314-5.256-10.037-3.43c-3.719,1.824-5.254,6.318-3.43,10.037
			C493.849,205.363,497,236.841,497,257.86c0,28.404-5.893,81.948-45.354,121.409c-12.603,12.603-29.359,19.544-47.183,19.544
			c-17.822,0-34.579-6.941-47.182-19.544c-12.604-12.603-19.544-29.359-19.544-47.183c0-11.363,2.832-22.286,8.143-31.982
			c0.156-0.238,0.293-0.487,0.42-0.741c2.952-5.229,6.618-10.097,10.98-14.459c2.609-2.609,4.777-5.456,6.505-8.489
			c0.027-0.048,0.056-0.093,0.082-0.142c0.427-0.756,0.831-1.522,1.202-2.301c7.775,4.727,12.43,11.955,14.72,16.429
			c1.328,2.593,3.956,4.083,6.682,4.083c1.15,0,2.318-0.266,3.412-0.826c3.688-1.888,5.145-6.407,3.258-10.094
			c-5.766-11.259-14.337-19.834-24.505-24.687c0.009-0.339,0.024-0.676,0.024-1.017c0-1.875-0.135-3.719-0.396-5.527
			c10.34-4.817,19.023-13.436,24.876-24.868c1.888-3.687,0.429-8.206-3.258-10.094c-3.689-1.889-8.206-0.43-10.094,3.258
			c-2.503,4.89-7.74,12.907-16.679,17.525c-0.341-0.552-0.698-1.097-1.07-1.635c-0.088-0.13-0.177-0.258-0.273-0.382
			c-1.317-1.861-2.807-3.642-4.486-5.32c-26.017-26.017-26.017-68.349,0-94.366c12.602-12.603,29.359-19.544,47.182-19.544
			s34.58,6.941,47.184,19.545c3.212,3.212,6.308,6.633,9.202,10.169c2.623,3.206,7.35,3.677,10.554,1.053
			c3.206-2.624,3.678-7.349,1.054-10.554c-3.208-3.92-6.641-7.713-10.203-11.275c-31.866-31.866-83.715-31.865-115.579,0
			c-26.887,26.887-31.087,68-12.602,99.332l-10.147-3.547c-10.773-3.766-19.819-11.298-25.472-21.211l-14.007-24.559
			c-3.979-6.976-6.081-14.907-6.081-22.938V66.745c0-12.207-9.358-22.21-21.306-22.772c-6.193-0.29-12.049,1.897-16.517,6.16
			c-4.405,4.203-6.932,10.104-6.932,16.192v86.598c0,8.03-2.103,15.962-6.081,22.938l-14.005,24.557
			c-5.654,9.913-14.701,17.446-25.473,21.211l-10.098,3.529c7.369-12.447,11.309-26.682,11.309-41.526
			c0-21.83-8.501-42.353-23.937-57.789c-15.436-15.436-35.959-23.938-57.789-23.938c-21.83,0-42.354,8.501-57.789,23.938
			C6.463,169.129,0,227.135,0,257.86c0,26.67,5.009,77.662,38.557,119.521c2.59,3.232,7.311,3.753,10.543,1.162
			c3.232-2.59,3.752-7.311,1.162-10.543C19.581,329.719,15,282.562,15,257.86c0-28.404,5.892-81.947,45.354-121.409
			c12.603-12.603,29.359-19.544,47.183-19.544c17.823,0,34.58,6.941,47.183,19.544c12.603,12.603,19.544,29.359,19.544,47.183
			c0,17.824-6.94,34.58-19.544,47.183c-1.676,1.676-3.163,3.453-4.479,5.31c-0.095,0.123-0.183,0.25-0.27,0.378
			c-0.375,0.543-0.736,1.092-1.08,1.649c-8.939-4.618-14.176-12.635-16.68-17.526c-1.888-3.687-6.408-5.144-10.094-3.257
			c-3.687,1.888-5.145,6.407-3.257,10.094c5.854,11.432,14.537,20.051,24.876,24.867c-0.261,1.809-0.395,3.653-0.395,5.527
			c0,0.341,0.016,0.678,0.024,1.018c-10.169,4.853-18.74,13.427-24.505,24.687c-1.888,3.687-0.429,8.206,3.257,10.094
			c1.095,0.56,2.262,0.826,3.412,0.826c2.726,0,5.354-1.491,6.682-4.083c2.291-4.474,6.945-11.702,14.721-16.429
			c0.39,0.819,0.817,1.624,1.269,2.418c0.056,0.101,0.113,0.202,0.173,0.3c1.702,2.93,3.816,5.684,6.345,8.213
			c4.36,4.36,8.024,9.225,10.975,14.451c0.13,0.259,0.27,0.513,0.429,0.756c5.308,9.694,8.139,20.616,8.139,31.976
			c0,17.823-6.94,34.58-19.544,47.183c-21.278,21.277-54.337,25.684-80.392,10.714c-3.592-2.063-8.176-0.825-10.24,2.767
			c-2.063,3.592-0.824,8.176,2.767,10.24c12.658,7.271,26.662,10.812,40.581,10.812c21.182,0,42.165-8.2,57.89-23.926
			c15.436-15.436,23.937-35.959,23.937-57.789c0-8.279-1.229-16.368-3.589-24.065l1.057,0.331
			c6.618,2.073,11.065,8.125,11.065,15.06v122.263c0,12.339,10.038,22.377,22.377,22.377c12.339,0,22.378-10.038,22.378-22.377
			V323.413c0-26.602-17.056-49.817-42.442-57.77l-1.235-0.387l3.946-1.379c20.968-7.33,38.576-21.993,49.58-41.287l3.588-6.291
			l3.587,6.289c11.005,19.296,28.613,33.959,49.582,41.289l3.957,1.383l-1.223,0.383c-25.386,7.952-42.441,31.168-42.441,57.77
			v122.263c0,12.339,10.038,22.377,22.377,22.377s22.377-10.038,22.377-22.377V323.413c0-6.935,4.446-12.988,11.065-15.06
			l1.057-0.331c-2.36,7.697-3.589,15.786-3.589,24.065c0,21.83,8.501,42.354,23.936,57.789
			c15.935,15.935,36.858,23.901,57.79,23.899c20.925-0.002,41.858-7.968,57.789-23.899C505.537,346.592,512,288.584,512,257.86
			C512,235.253,508.583,201.34,492.305,168.159z M227.551,323.413v122.263c0,4.068-3.31,7.377-7.378,7.377
			c-4.068,0-7.377-3.309-7.377-7.377V323.413c0-13.527-8.673-25.331-21.582-29.375l-13.761-4.31
			c-2.9-4.768-6.318-9.257-10.209-13.416l7.911-2.765l20.469,6.411C214.721,285.939,227.551,303.403,227.551,323.413z
			 M272.604,215.157l-8.803-15.436c-1.598-2.8-4.593-4.539-7.816-4.538c-3.223,0.001-6.217,1.74-7.812,4.539l-8.805,15.436
			c-9.21,16.15-23.949,28.423-41.5,34.558L159,263.302c-0.423-1.748-0.662-3.558-0.662-5.443c0-3.95,0.937-7.605,2.786-10.928
			L193,235.789c14.189-4.96,26.105-14.882,33.553-27.94l14.005-24.557c5.267-9.236,8.051-19.737,8.051-30.369V66.325
			c0-2.037,0.812-3.933,2.286-5.339c1.473-1.405,3.416-2.125,5.457-2.03c3.866,0.182,7.011,3.676,7.011,7.789v86.176
			c0,10.632,2.784,21.134,8.052,30.37l14.006,24.558c7.445,13.057,19.361,22.98,33.553,27.94l31.906,11.152
			c1.845,3.321,2.779,6.972,2.779,10.918c0,1.888-0.24,3.701-0.664,5.451l-38.89-13.593
			C296.555,243.582,281.816,231.309,272.604,215.157z M320.784,294.038c-12.908,4.044-21.581,15.848-21.581,29.375v122.263
			c0,4.068-3.31,7.377-7.377,7.377c-4.067,0-7.377-3.309-7.377-7.377V323.413c0-20.01,12.83-37.474,31.926-43.455l20.457-6.407
			l7.917,2.767c-3.888,4.157-7.304,8.644-10.203,13.409L320.784,294.038z"/>
	</g>
</g>
<g>
</g>
<g>
</g>
<g>
</g>
<g>
</g>
<g>
</g>
<g>
</g>
<g>
</g>
<g>
</g>
<g>
</g>
<g>
</g>
<g>
</g>
<g>
</g>
<g>
</g>
<g>
</g>
<g>
</g>
</svg>
