<?xml version="1.0" encoding="UTF-8"?>
<svg id="Capa_1" data-name="Capa 1" xmlns="http://www.w3.org/2000/svg" viewBox="0 0 472.3 574.97">
  <g>
    <g>
      <line x1="251.1" y1="207.2" x2="221.3" y2="282.2" style="fill: none; stroke: #000; stroke-linecap: round; stroke-linejoin: round; stroke-width: 15px;"/>
      <polyline points="301.2 210.8 321.2 244 301.2 278.6" style="fill: none; stroke: #000; stroke-linecap: round; stroke-linejoin: round; stroke-width: 15px;"/>
      <polyline points="171.2 210.8 151.2 244 171.2 278.6" style="fill: none; stroke: #000; stroke-linecap: round; stroke-linejoin: round; stroke-width: 15px;"/>
    </g>
    <g>
      <line x1="48.9" y1="117.7" x2="48.9" y2="330.9" style="fill: none; stroke: #000; stroke-linecap: round; stroke-linejoin: round; stroke-width: 15px;"/>
      <path d="m423.5,330.9v-172.4L276.2,7.5H74.9c-14.4,0-26,11.7-26,26v49.5" style="fill: none; stroke: #000; stroke-linecap: round; stroke-linejoin: round; stroke-width: 15px;"/>
      <path d="m423.5,158.5h-121.2c-14.4,0-26-11.7-26-26V7.5l147.2,151Z" style="fill: none; stroke: #000; stroke-linecap: round; stroke-linejoin: round; stroke-width: 15px;"/>
      <path d="m378.4,504.5h64.8c11.9,0,21.6-9.7,21.6-21.6v-130.4c0-11.9-9.7-21.6-21.6-21.6H29.1c-11.9,0-21.6,9.7-21.6,21.6v130.4c0,11.9,9.7,21.6,21.6,21.6h312.9" style="fill: none; stroke: #000; stroke-linecap: round; stroke-linejoin: round; stroke-width: 15px;"/>
    </g>
  </g>
  <text transform="translate(38.2 479.56) scale(1.14 1)" style="font-family: Chalkboard, Chalkboard; font-size: 180.64px; isolation: isolate;"><tspan x="0" y="0">KML</tspan></text>
</svg>