<svg enable-background="new 0 0 59.826 60.001" height="512" viewBox="0 0 59.826 60.001" width="512" xmlns="http://www.w3.org/2000/svg"><path d="m4.922 60.001c-.036 0-.072 0-.109-.001-1.502-.025-2.735-1.932-2.931-4.534-.113-1.486-.404-2.926-.712-4.452-.275-1.362-.559-2.771-.703-4.21-.631-6.318-.968-13.787 1.322-21.284.129-.423.267-.846.413-1.267.94-2.717 1.985-4.78 3.29-6.492 3.381-4.438 9.227-6.382 17.872-5.924 3.033.159 7.868.819 10.777 1.473 2.693.604 5.486.819 8.302.637 4.122-.267 8.831-1.45 11.451-2.877 1.533-.834 3.358-.607 4.648.582 1.261 1.162 1.631 2.92.941 4.479-.918 2.075-2.87 4.604-5.804 7.516-.817.812-1.885 1.89-2.897 3.021-2.7 3.02-12.498 13.377-25.22 19.853-2.559 1.302-5.135 2.199-7.658 2.664-2.6.479-6.127 1.953-8.172 6.247-.06.125-.106.31-.169.524-.354 1.213-1.181 4.045-4.641 4.045zm-1.22-33.897c-2.187 7.159-1.856 14.381-1.244 20.501.134 1.34.408 2.699.673 4.014.306 1.518.623 3.087.745 4.697.128 1.691.772 2.598 1.019 2.692 1.832-.004 2.312-1.118 2.749-2.614.092-.316.172-.589.283-.823 2.534-5.323 7.112-6.892 9.615-7.354 2.333-.431 4.727-1.265 7.114-2.479 12.413-6.318 21.995-16.449 24.637-19.403 1.047-1.17 2.142-2.275 2.979-3.106 2.756-2.736 4.567-5.06 5.384-6.906.41-.926.027-1.743-.467-2.199-.518-.477-1.403-.805-2.337-.296-3.342 1.819-8.575 2.876-12.279 3.116-3.007.192-5.991-.036-8.869-.682-2.819-.633-7.504-1.273-10.444-1.427-8.048-.425-13.186 1.212-16.176 5.139-1.172 1.538-2.122 3.424-2.99 5.934-.14.397-.27.796-.392 1.196z"/><path d="m6.83 50c-.085 0-.17-.011-.255-.033-.37-.098-.653-.398-.726-.774-.017-.087-.05-.232-.094-.426-.457-2.041-1.848-8.251-.906-12.962.108-.541.636-.893 1.177-.784.542.108.893.635.784 1.177-.519 2.593-.315 6.206.603 10.752 3.515-3.284 7.523-4.336 9.221-4.649 1.999-.369 4.119-1.365 5.743-2.19.492-.251 1.094-.055 1.345.438.25.492.054 1.094-.438 1.345-1.744.888-4.034 1.959-6.287 2.375-1.71.315-6.05 1.472-9.408 5.385-.193.222-.472.346-.759.346z"/><path d="m6.83 29c-.108 0-.219-.018-.327-.056-.522-.18-.799-.75-.618-1.272.743-2.147 2.592-5.579 3.584-6.882 1.996-2.621 5.5-3.79 11.361-3.79.552 0 1 .448 1 1s-.448 1-1 1c-5.175 0-8.188.926-9.77 3.002-.886 1.164-2.611 4.375-3.285 6.325-.143.414-.531.673-.945.673z"/><path d="m31.83 11c-.552 0-1-.448-1-1 0-2.757-2.243-5-5-5-.552 0-1-.448-1-1s.448-1 1-1c3.86 0 7 3.14 7 7 0 .552-.448 1-1 1z"/><path d="m35.83 11c-.552 0-1-.448-1-1s.448-1 1-1c2.757 0 5-2.243 5-5 0-.552.448-1 1-1s1 .448 1 1c0 3.86-3.141 7-7 7z"/><path d="m35.829 40c-.236 0-.474-.083-.664-.252-.413-.367-.45-.999-.083-1.412 7.335-8.252 2.169-15.436 1.946-15.738-.328-.443-.237-1.069.205-1.398.442-.33 1.066-.24 1.397.201.065.086 6.393 8.764-2.053 18.265-.198.221-.472.334-.748.334z"/><path d="m35.83 15.641c-.052 0-.103-.004-.155-.012-.66-.104-1.319-.221-1.973-.368-.605-.136-1.307-.271-2.047-.402-.477-.084-.825-.5-.825-.984v-10.875c0-1.654 1.346-3 3-3s3 1.346 3 3v11.641c0 .292-.128.57-.35.76-.183.156-.414.24-.65.24zm-1.689-2.331c.229.051.459.099.689.144v-10.454c0-.551-.448-1-1-1s-1 .449-1 1v10.041c.467.088.909.178 1.311.269z"/><path d="m28.83 60c-1.654 0-3-1.346-3-3v-12.291c0-.366.199-.702.52-.877 1.297-.709 2.624-1.494 3.944-2.331.308-.196.698-.208 1.018-.032s.518.512.518.876v14.655c0 1.654-1.346 3-3 3zm-1-14.701v11.701c0 .551.448 1 1 1s1-.449 1-1v-12.862c-.67.403-1.338.791-2 1.161z"/><path d="m13.755 14.607c-.323 0-.633-.157-.823-.432-.94-1.362-2.473-2.175-4.102-2.175h-1c-1.654 0-3-1.346-3-3s1.346-3 3-3h1c4.308 0 8.241 2.544 10.019 6.482.134.296.115.638-.049.917-.164.28-.454.463-.777.491-1.449.124-2.796.354-4.004.682-.088.024-.176.035-.264.035zm-5.925-6.607c-.552 0-1 .449-1 1s.448 1 1 1h1c2.051 0 3.991.915 5.317 2.476.699-.166 1.434-.303 2.198-.41-1.647-2.507-4.467-4.066-7.515-4.066z"/><path d="m46.83 47h-2c-4.693 0-8.872-2.986-10.397-7.431-.142-.414.002-.873.355-1.131 1.14-.835 2.298-1.727 3.442-2.652.286-.231.678-.287 1.017-.144.34.143.573.461.607.829.241 2.583 2.38 4.53 4.976 4.53h2c1.654 0 3 1.346 3 3s-1.346 2.999-3 2.999zm-10.244-7.405c1.42 3.26 4.647 5.405 8.244 5.405h2c.552 0 1-.449 1-1s-.448-1-1-1h-2c-3.044 0-5.64-1.913-6.601-4.659-.548.428-1.097.847-1.643 1.254z"/></svg>