<?xml version="1.0" encoding="UTF-8" standalone="no"?>
<!-- Created with Inkscape (http://www.inkscape.org/) -->

<svg
   version="1.1"
   id="svg399"
   xml:space="preserve"
   width="682.66669"
   height="682.66669"
   viewBox="0 0 682.66669 682.66669"
   xmlns="http://www.w3.org/2000/svg"
   xmlns:svg="http://www.w3.org/2000/svg"><defs
     id="defs403"><clipPath
       clipPathUnits="userSpaceOnUse"
       id="clipPath413"><path
         d="M 0,512 H 512 V 0 H 0 Z"
         id="path411" /></clipPath></defs><g
     id="g405"
     transform="matrix(1.3333333,0,0,-1.3333333,0,682.66667)"><g
       id="g407"><g
         id="g409"
         clip-path="url(#clipPath413)"><g
           id="g415"
           transform="translate(56.4111,131.6001)"><path
             d="M 0,0 C 0,0 -8.162,11.818 -9.582,26.652"
             style="fill:none;stroke:#000000;stroke-width:15;stroke-linecap:round;stroke-linejoin:round;stroke-miterlimit:10;stroke-dasharray:none;stroke-opacity:1"
             id="path417" /></g><g
           id="g419"
           transform="translate(141.8037,244.5854)"><path
             d="M 0,0 C -15.872,15.104 -41.763,44.146 -51.409,80.319"
             style="fill:none;stroke:#000000;stroke-width:15;stroke-linecap:round;stroke-linejoin:round;stroke-miterlimit:10;stroke-dasharray:none;stroke-opacity:1"
             id="path421" /></g><g
           id="g423"
           transform="translate(122.6133,320.6089)"><path
             d="m 0,0 c -6.443,-18.615 -6.11,-47.538 -6.11,-47.538 0,0 -25.899,8.308 -46.767,0"
             style="fill:none;stroke:#000000;stroke-width:15;stroke-linecap:round;stroke-linejoin:round;stroke-miterlimit:10;stroke-dasharray:none;stroke-opacity:1"
             id="path425" /></g><g
           id="g427"
           transform="translate(96.0234,189.3027)"><path
             d="M 0,0 C -12.555,9.35 -31.532,26.243 -38.325,46.931"
             style="fill:none;stroke:#000000;stroke-width:15;stroke-linecap:round;stroke-linejoin:round;stroke-miterlimit:10;stroke-dasharray:none;stroke-opacity:1"
             id="path429" /></g><g
           id="g431"
           transform="translate(74.4678,208.7876)"><path
             d="M 0,0 C 0,0 -17.247,1.193 -33.476,-6.443"
             style="fill:none;stroke:#000000;stroke-width:15;stroke-linecap:round;stroke-linejoin:round;stroke-miterlimit:10;stroke-dasharray:none;stroke-opacity:1"
             id="path433" /></g><g
           id="g435"
           transform="translate(144.7393,195.9292)"><path
             d="M 0,0 C 7.795,-13.997 21.632,-33.266 43.744,-46.916"
             style="fill:none;stroke:#000000;stroke-width:15;stroke-linecap:round;stroke-linejoin:round;stroke-miterlimit:10;stroke-dasharray:none;stroke-opacity:1"
             id="path437" /></g><g
           id="g439"
           transform="translate(159.7178,174.1299)"><path
             d="M 0,0 C 0,0 -4.646,-27.98 2.752,-48.504"
             style="fill:none;stroke:#000000;stroke-width:15;stroke-linecap:round;stroke-linejoin:round;stroke-miterlimit:10;stroke-dasharray:none;stroke-opacity:1"
             id="path441" /></g><g
           id="g443"
           transform="translate(99.9521,112.7876)"><path
             d="M 0,0 C 10.431,-7.768 26.198,-21.803 31.842,-38.991"
             style="fill:none;stroke:#000000;stroke-width:15;stroke-linecap:round;stroke-linejoin:round;stroke-miterlimit:10;stroke-dasharray:none;stroke-opacity:1"
             id="path445" /></g><g
           id="g447"
           transform="translate(117.8623,96.5986)"><path
             d="M 0,0 C 0,0 14.328,-0.992 27.812,5.354"
             style="fill:none;stroke:#000000;stroke-width:15;stroke-linecap:round;stroke-linejoin:round;stroke-miterlimit:10;stroke-dasharray:none;stroke-opacity:1"
             id="path449" /></g><g
           id="g451"
           transform="translate(74.4404,126.4375)"><path
             d="M 0,0 C -12.123,4.506 -29.366,8.923 -44.749,5.515"
             style="fill:none;stroke:#000000;stroke-width:15;stroke-linecap:round;stroke-linejoin:round;stroke-miterlimit:10;stroke-dasharray:none;stroke-opacity:1"
             id="path453" /></g><g
           id="g455"
           transform="translate(25.5391,48.1484)"><path
             d="m 0,0 c 16.204,-25.413 43.021,-35.408 79.24,-35.408 84.843,0 126.728,-4.098 126.728,124.579 0,67.868 -6.87,99.989 -11.474,119.925 -14.3,-10.789 -34.497,-23.534 -60.905,-46.895 C 89.7,123.376 73.67,65.979 68.817,43.181 67.523,37.101 61.921,32.864 55.619,33.366 c -6.984,0.556 -12.021,6.979 -11.364,13.955 2.849,30.225 14.899,102.231 65.707,143.877 35.978,29.49 59.504,55.733 73.412,73.408 -22.054,34.132 -22.723,71.487 -20.183,94.509 1.598,14.482 -4.38,28.758 -15.897,37.682 -15.287,11.848 -36.772,11.711 -51.763,-0.51 C 64.643,371.105 17.089,314.982 -4.89,198.927 -20.003,119.121 -21.812,63.981 -11.722,27.329"
             style="fill:none;stroke:#000000;stroke-width:15;stroke-linecap:round;stroke-linejoin:round;stroke-miterlimit:10;stroke-dasharray:none;stroke-opacity:1"
             id="path457" /></g><g
           id="g459"
           transform="translate(427.3516,405.8022)"><path
             d="m 0,0 c -12.974,17.414 -25.706,29.891 -36.43,38.633 -14.99,12.221 -36.475,12.358 -51.762,0.511 -11.517,-8.925 -17.496,-23.201 -15.898,-37.683 2.541,-23.022 1.871,-60.377 -20.182,-94.508 13.908,-17.676 37.434,-43.919 73.413,-73.409 50.806,-41.646 62.856,-113.651 65.706,-143.877 0.658,-6.976 -4.38,-13.399 -11.365,-13.955 -6.301,-0.502 -11.904,3.735 -13.198,9.815 -4.852,22.799 -20.883,80.196 -64.771,119.02 -26.408,23.361 -46.605,36.106 -60.906,46.895 -4.603,-19.936 -11.473,-52.057 -11.473,-119.924 0,-128.678 41.885,-124.58 126.727,-124.58 84.843,0 118.136,54.772 84.13,234.335 -11.229,59.3 -29.137,102.945 -48.088,134.818"
             style="fill:none;stroke:#000000;stroke-width:15;stroke-linecap:round;stroke-linejoin:round;stroke-miterlimit:10;stroke-dasharray:none;stroke-opacity:1"
             id="path461" /></g><g
           id="g463"
           transform="translate(442.1992,95.4692)"><path
             d="m 0,0 c -2.85,30.226 -14.899,102.231 -65.707,143.877 -44.813,36.731 -70.321,68.437 -81.968,84.807 -5.064,7.119 -7.801,15.627 -7.801,24.364 v 137.634 c 0,7.248 -5.876,13.123 -13.124,13.123 h -35.207 c -7.248,0 -13.123,-5.875 -13.123,-13.123 V 253.048 c 0,-8.737 -2.736,-17.245 -7.801,-24.364 -11.646,-16.37 -37.155,-48.076 -81.967,-84.807 C -357.506,102.231 -369.556,30.226 -372.405,0 c -0.657,-6.976 4.381,-13.399 11.365,-13.956 6.302,-0.501 11.903,3.736 13.197,9.815 4.853,22.8 20.883,80.196 64.772,119.021 43.757,38.708 70.49,48.279 81.535,68.08 3.009,5.396 8.628,8.812 14.807,8.812 h 1.053 c 6.179,0 11.797,-3.416 14.807,-8.812 11.045,-19.801 37.777,-29.372 81.535,-68.08 43.888,-38.825 59.918,-96.221 64.771,-119.021 1.293,-6.079 6.896,-10.316 13.198,-9.815 C -4.381,-13.399 0.657,-6.976 0,0 Z"
             style="fill:none;stroke:#000000;stroke-width:15;stroke-linecap:round;stroke-linejoin:round;stroke-miterlimit:10;stroke-dasharray:none;stroke-opacity:1"
             id="path465" /></g><g
           id="g467"
           transform="translate(370.1885,244.5854)"><path
             d="M 0,0 C 15.873,15.104 41.764,44.146 51.41,80.319"
             style="fill:none;stroke:#000000;stroke-width:15;stroke-linecap:round;stroke-linejoin:round;stroke-miterlimit:10;stroke-dasharray:none;stroke-opacity:1"
             id="path469" /></g><g
           id="g471"
           transform="translate(389.3799,320.6089)"><path
             d="m 0,0 c 6.443,-18.615 6.11,-47.538 6.11,-47.538 0,0 25.898,8.308 46.767,0"
             style="fill:none;stroke:#000000;stroke-width:15;stroke-linecap:round;stroke-linejoin:round;stroke-miterlimit:10;stroke-dasharray:none;stroke-opacity:1"
             id="path473" /></g><g
           id="g475"
           transform="translate(415.9687,189.3027)"><path
             d="M 0,0 C 12.556,9.35 31.533,26.243 38.326,46.931"
             style="fill:none;stroke:#000000;stroke-width:15;stroke-linecap:round;stroke-linejoin:round;stroke-miterlimit:10;stroke-dasharray:none;stroke-opacity:1"
             id="path477" /></g><g
           id="g479"
           transform="translate(437.5254,208.7876)"><path
             d="M 0,0 C 0,0 17.246,1.193 33.476,-6.443"
             style="fill:none;stroke:#000000;stroke-width:15;stroke-linecap:round;stroke-linejoin:round;stroke-miterlimit:10;stroke-dasharray:none;stroke-opacity:1"
             id="path481" /></g><g
           id="g483"
           transform="translate(367.2529,195.9292)"><path
             d="M 0,0 C -7.795,-13.997 -21.632,-33.266 -43.743,-46.916"
             style="fill:none;stroke:#000000;stroke-width:15;stroke-linecap:round;stroke-linejoin:round;stroke-miterlimit:10;stroke-dasharray:none;stroke-opacity:1"
             id="path485" /></g><g
           id="g487"
           transform="translate(352.2754,174.1299)"><path
             d="M 0,0 C 0,0 4.646,-27.98 -2.752,-48.504"
             style="fill:none;stroke:#000000;stroke-width:15;stroke-linecap:round;stroke-linejoin:round;stroke-miterlimit:10;stroke-dasharray:none;stroke-opacity:1"
             id="path489" /></g><g
           id="g491"
           transform="translate(412.041,112.7876)"><path
             d="M 0,0 C -10.431,-7.768 -26.198,-21.803 -31.843,-38.991"
             style="fill:none;stroke:#000000;stroke-width:15;stroke-linecap:round;stroke-linejoin:round;stroke-miterlimit:10;stroke-dasharray:none;stroke-opacity:1"
             id="path493" /></g><g
           id="g495"
           transform="translate(394.1309,96.5986)"><path
             d="M 0,0 C 0,0 -14.329,-0.992 -27.812,5.354"
             style="fill:none;stroke:#000000;stroke-width:15;stroke-linecap:round;stroke-linejoin:round;stroke-miterlimit:10;stroke-dasharray:none;stroke-opacity:1"
             id="path497" /></g><g
           id="g499"
           transform="translate(437.5518,126.4375)"><path
             d="M 0,0 C 12.124,4.506 29.366,8.923 44.749,5.515"
             style="fill:none;stroke:#000000;stroke-width:15;stroke-linecap:round;stroke-linejoin:round;stroke-miterlimit:10;stroke-dasharray:none;stroke-opacity:1"
             id="path501" /></g><g
           id="g503"
           transform="translate(455.582,131.6001)"><path
             d="M 0,0 C 0,0 8.162,11.818 9.582,26.652"
             style="fill:none;stroke:#000000;stroke-width:15;stroke-linecap:round;stroke-linejoin:round;stroke-miterlimit:10;stroke-dasharray:none;stroke-opacity:1"
             id="path505" /></g></g></g></g></svg>
