<?xml version="1.0" encoding="UTF-8"?>
<svg xmlns="http://www.w3.org/2000/svg" xmlns:xlink="http://www.w3.org/1999/xlink" version="1.1" id="Capa_1" x="0px" y="0px" viewBox="0 0 511 511" style="enable-background:new 0 0 511 511;" xml:space="preserve" width="512" height="512">
<g>
	<g>
		<path style="fill:none;stroke:#000000;stroke-width:15;stroke-miterlimit:10;" d="M436.08,85.52&#10;&#9;&#9;&#9;c41.8,44.39,67.42,104.19,67.42,169.98c0,136.97-111.03,248-248,248c-65.79,0-125.59-25.62-169.98-67.42"/>
		<path style="fill:none;stroke:#000000;stroke-width:15;stroke-miterlimit:10;" d="M74.92,425.48&#10;&#9;&#9;&#9;C33.12,381.09,7.5,321.29,7.5,255.5c0-136.97,111.03-248,248-248c65.79,0,125.59,25.62,169.98,67.42"/>
		<path style="fill:none;stroke:#000000;stroke-width:15;stroke-miterlimit:10;" d="M98.33,108.93&#10;&#9;&#9;&#9;C62.47,147.37,40.5,198.91,40.5,255.5c0,118.55,96.45,215,215,215c56.59,0,108.13-21.97,146.57-57.83"/>
		<path style="fill:none;stroke:#000000;stroke-width:15;stroke-miterlimit:10;" d="M108.93,98.33&#10;&#9;&#9;&#9;C147.37,62.47,198.91,40.5,255.5,40.5c118.55,0,215,96.45,215,215c0,56.59-21.97,108.13-57.83,146.57"/>
		<path style="fill:none;stroke:#000000;stroke-width:15;stroke-miterlimit:10;" d="M262.419,145.88c-14,18-10.915,41.752-1,54&#10;&#9;&#9;&#9;c17,21,45.345,19.404,57,31c12.033,11.972-0.401,34.453,21,53c15,13,44,11,58-4c23.179-24.834-3-83-23-106&#10;&#9;&#9;&#9;C340.999,135.447,283.731,118.479,262.419,145.88z"/>
		<line style="fill:none;stroke:#000000;stroke-width:15;stroke-miterlimit:10;" x1="272.5" y1="138.5" x2="255.5" y2="107.5"/>
		<line style="fill:none;stroke:#000000;stroke-width:15;stroke-miterlimit:10;" x1="301.5" y1="132.5" x2="301.5" y2="101.5"/>
		<line style="fill:none;stroke:#000000;stroke-width:15;stroke-miterlimit:10;" x1="332.5" y1="141.5" x2="346.5" y2="112.5"/>
		<line style="fill:none;stroke:#000000;stroke-width:15;stroke-miterlimit:10;" x1="363.5" y1="162.5" x2="386.5" y2="137.5"/>
		<line style="fill:none;stroke:#000000;stroke-width:15;stroke-miterlimit:10;" x1="387.5" y1="188.5" x2="414.5" y2="172.5"/>
		<line style="fill:none;stroke:#000000;stroke-width:15;stroke-miterlimit:10;" x1="402.5" y1="219.5" x2="429.5" y2="211.5"/>
		<line style="fill:none;stroke:#000000;stroke-width:15;stroke-miterlimit:10;" x1="408.5" y1="255.5" x2="436.5" y2="255.5"/>
		<line style="fill:none;stroke:#000000;stroke-width:15;stroke-miterlimit:10;" x1="394.5" y1="285.5" x2="413.5" y2="307.5"/>
		<line style="fill:none;stroke:#000000;stroke-width:15;stroke-miterlimit:10;" x1="363.5" y1="293.5" x2="361.5" y2="325.5"/>
		<line style="fill:none;stroke:#000000;stroke-width:15;stroke-miterlimit:10;" x1="337.5" y1="283.5" x2="313.5" y2="303.5"/>
		<line style="fill:none;stroke:#000000;stroke-width:15;stroke-miterlimit:10;" x1="324.5" y1="250.5" x2="291.5" y2="255.5"/>
		<line style="fill:none;stroke:#000000;stroke-width:15;stroke-miterlimit:10;" x1="273.5" y1="211.5" x2="261.5" y2="238.5"/>
		<line style="fill:none;stroke:#000000;stroke-width:15;stroke-miterlimit:10;" x1="254.5" y1="183.5" x2="219.5" y2="190.5"/>
		<line style="fill:none;stroke:#000000;stroke-width:15;stroke-miterlimit:10;" x1="253.5" y1="157.5" x2="222.5" y2="143.5"/>
		<circle style="fill:none;stroke:#000000;stroke-width:15;stroke-miterlimit:10;" cx="129.5" cy="259.5" r="35"/>
		<circle style="fill:none;stroke:#000000;stroke-width:15;stroke-miterlimit:10;" cx="162.5" cy="138.5" r="25"/>
		<circle style="fill:none;stroke:#000000;stroke-width:15;stroke-miterlimit:10;" cx="170.5" cy="373.5" r="25"/>
		<path style="fill:none;stroke:#000000;stroke-width:15;stroke-miterlimit:10;" d="M271.408,394.539L271.408,394.539&#10;&#9;&#9;&#9;c-1.662-10.92,5.843-21.12,16.763-22.781l59.317-9.027c10.92-1.662,21.12,5.843,22.781,16.763v0&#10;&#9;&#9;&#9;c1.662,10.92-5.843,21.12-16.763,22.781l-59.317,9.027C283.269,412.964,273.07,405.459,271.408,394.539z"/>
		<path style="fill:none;stroke:#000000;stroke-width:15;stroke-miterlimit:10;" d="M220.636,262.5c0,0-21.857,11.631-16.012,31.9&#10;&#9;&#9;&#9;c5.206,18.053,40.386,12.819,45.46,38.397c2.611,13.16-7.956,40.332-7.956,40.332"/>
	</g>
	<g>
		<line style="fill:none;stroke:#000000;stroke-width:15;stroke-miterlimit:10;" x1="283.5" y1="169.5" x2="298.5" y2="169.5"/>
		<line style="fill:none;stroke:#000000;stroke-width:15;stroke-miterlimit:10;" x1="316.5" y1="182.5" x2="331.5" y2="182.5"/>
	</g>
</g>















</svg>
