<?xml version="1.0"?>
<svg xmlns="http://www.w3.org/2000/svg" id="Layer_3" data-name="Layer 3" viewBox="0 0 64 64" width="512" height="512"><path d="M56.485,31l4.7,6.581,1.626-1.162-5-7A1,1,0,0,0,57,29H51.18q-.663-2.026-1.48-4H57a1,1,0,0,0,.813-.419l5-7-1.626-1.162L56.485,23h-7.66c-.657-1.43-1.368-2.838-2.144-4.212l-.225-.4,4.991-2.5A1,1,0,0,0,52,15V9.535l5.555-3.7-1.11-1.664-6,4A1,1,0,0,0,50,9v5.382l-4.53,2.265-.663-1.174a14.716,14.716,0,0,0-6.722-6.144l.77-.77A3.907,3.907,0,0,0,37.841,2.3l-2.394-1.2a1,1,0,0,0-1.4,1.211A5.044,5.044,0,0,1,33.3,6.931l-.815,1.085C32.325,8.011,32.164,8,32,8s-.325.011-.488.016L30.7,6.931a5.044,5.044,0,0,1-.749-4.615,1,1,0,0,0-1.395-1.211L26.158,2.3a3.907,3.907,0,0,0-1.013,6.257l.77.77a14.716,14.716,0,0,0-6.722,6.144l-.663,1.174L14,14.382V9a1,1,0,0,0-.445-.832l-6-4L6.445,5.832,12,9.535V15a1,1,0,0,0,.553.895l4.991,2.5-.225.4c-.776,1.374-1.487,2.782-2.144,4.212H7.515l-4.7-6.581L1.187,17.581l5,7A1,1,0,0,0,7,25h7.3q-.815,1.973-1.48,4H7a1,1,0,0,0-.813.419l-5,7,1.626,1.162L7.515,31h4.693a56.741,56.741,0,0,0-1.627,7.593l-5.245,4.66A1,1,0,0,0,5,44V54.5L1.4,57.2l1.2,1.6,4-3A1,1,0,0,0,7,55V44.449l3.231-2.871c-.15,1.671-.231,3.35-.231,5.032A16.4,16.4,0,0,0,26.385,63H37.636A16.364,16.364,0,0,0,54,46.61c0-1.505-.068-3.007-.188-4.5L57,44.5V55a1,1,0,0,0,.4.8l4,3,1.2-1.6L59,54.5V44a1,1,0,0,0-.4-.8l-5.066-3.8A56.629,56.629,0,0,0,51.792,31ZM34.9,8.13a7.046,7.046,0,0,0,1.407-4.359l.636.32a1.906,1.906,0,0,1,.5,3.054L36.02,8.566q-.6-.173-1.225-.293Zm-8.343-.985a1.907,1.907,0,0,1,.495-3.054l.637-.32A7.046,7.046,0,0,0,29.1,8.13l.107.143q-.621.12-1.225.293ZM32,10a12.735,12.735,0,0,1,11.066,6.457l1.874,3.315c.369.653.719,1.315,1.06,1.981V29a14,14,0,0,1-28,0V21.753c.341-.666.691-1.328,1.06-1.981l1.874-3.315A12.735,12.735,0,0,1,32,10ZM47.793,56.793A14.27,14.27,0,0,1,37.636,61H26.385A14.405,14.405,0,0,1,12,46.61a54.663,54.663,0,0,1,4-20.5V29a16,16,0,0,0,32,0V26.115a54.718,54.718,0,0,1,4,20.521A14.27,14.27,0,0,1,47.793,56.793Z"/></svg>
