<?xml version="1.0" encoding="iso-8859-1"?>
<!-- Generator: Adobe Illustrator 19.0.0, SVG Export Plug-In . SVG Version: 6.00 Build 0)  -->
<svg version="1.1" id="Capa_1" xmlns="http://www.w3.org/2000/svg" xmlns:xlink="http://www.w3.org/1999/xlink" x="0px" y="0px"
	 viewBox="0 0 511.999 511.999" style="enable-background:new 0 0 511.999 511.999;" xml:space="preserve">
<g>
	<g>
		<path d="M429.049,195.993c-5.521,0-10.001,4.48-10.001,10.001c0,5.521,4.481,10.001,10.001,10.001s10.001-4.48,10.001-10.001
			C439.051,200.473,434.57,195.993,429.049,195.993z"/>
	</g>
</g>
<g>
	<g>
		<path d="M299.034,276.002c-5.521,0-10.001,4.481-10.001,10.001s4.481,10.001,10.001,10.001s10.001-4.48,10.001-10.001
			S304.555,276.002,299.034,276.002z"/>
	</g>
</g>
<g>
	<g>
		<path d="M236.027,115.983c-5.521,0-10.001,4.48-10.001,10.001c0,5.521,4.481,10.001,10.001,10.001s10.001-4.48,10.001-10.001
			C246.028,120.464,241.548,115.983,236.027,115.983z"/>
	</g>
</g>
<g>
	<g>
		<path d="M487.93,178.115c-15.927-16.578-38.769-31.144-68.012-43.408c5.842-8.341,9.13-18.375,9.13-28.724
			c0-27.573-22.433-50.006-50.006-50.006c-15.814,0-30.626,7.532-40.009,20.005c-13.924-0.006-27.011,5.67-36.423,15.722
			C271.683,78.197,232,72.883,196.917,77.817c-43.719,6.159-83.891,28.916-113.117,64.08
			c-28.482,34.271-43.974,77.114-43.778,120.838C15.811,274.209,0,298.761,0,326.008c0,38.602,31.406,70.008,70.008,70.008h156.018
			c11.029,0,20.002,8.973,20.002,20.002s-8.973,20.002-20.002,20.002h-93.011c-5.523,0-10.001,4.477-10.001,10.001
			c0,5.524,4.479,10.001,10.001,10.001h93.011c22.059,0,40.005-17.946,40.005-40.005s-17.946-40.005-40.005-40.005H70.008
			c-27.573,0-50.006-22.433-50.006-50.006c0-17.341,8.961-33.155,23.144-42.194c9.987,31.343,42.16,52.195,69.537,52.195h113.299
			c0.011,0,0.022,0.001,0.033,0.001c0.011,0,0.023-0.001,0.035-0.001h192.998c5.523,0,10.001-4.477,10.001-10.001
			c0-22.119-14.435-40.93-34.379-47.505c4.59-4.679,11.01-7.521,17.907-7.521c1.814,0,3.614,0.19,5.355,0.566
			c31.539,6.793,52.487,3.719,64.505-0.054c17.455-5.475,29.052-21.453,29.544-40.706C512.296,218.507,508.379,199.4,487.93,178.115
			z M379.044,75.978c16.544,0.001,30.003,13.461,30.003,30.005c0,8.073-3.154,15.581-8.76,21.18
			c-3.691-1.298-7.464-2.57-11.313-3.802c-0.137-2.657-0.479-5.318-1.027-7.966c-3.049-14.721-12.953-27.234-26.091-33.977
			C366.824,77.946,372.801,75.978,379.044,75.978z M491.99,230.276c-0.274,10.731-6.228,19.212-15.539,22.133
			c-7.89,2.478-25.303,5.71-53.576-0.264l-40.238-15.481c-5.157-1.984-10.942,0.587-12.925,5.743
			c-1.983,5.156,0.588,10.942,5.743,12.925l10.817,4.162c-5.898,4.24-10.761,9.881-14.029,16.508h-33.204
			c-5.523,0-10.001,4.477-10.001,10.001c0,5.524,4.479,10.001,10.001,10.001h40.005c13.039,0,24.162,8.36,28.289,20.002H234.074
			c-4.372-15.823-13.953-30.187-27.53-41.034c-15.315-12.233-34.324-18.972-53.526-18.972h-22.503
			c-5.523,0-10.001,4.477-10.001,10.001c0,5.524,4.479,10.001,10.001,10.001h22.503c26.572,0,50.941,16.862,59.994,40.005H112.683
			c-22.156,0-48.82-19.722-52.266-46.367c0.033-0.9-0.051-1.819-0.275-2.737c-0.003-0.014-0.009-0.027-0.012-0.041
			c-0.048-0.72-0.084-1.442-0.093-2.168c-1.389-82.455,59.962-155.84,139.669-167.068c7.844-1.103,15.931-1.64,24.086-1.64
			c23.709,0,47.96,4.544,68.23,12.943c-1.97,5.429-2.987,11.188-2.987,17.057c0,27.573,22.433,50.006,50.006,50.006
			c5.523,0,10.001-4.478,10.001-10.001s-4.479-10.001-10.001-10.001c-16.544,0-30.003-13.46-30.003-30.003
			c0-5.809,1.657-11.432,4.8-16.28c0.045-0.067,0.09-0.136,0.134-0.205c6.343-9.638,17.437-14.724,28.938-13.283
			c0.854,0.111,1.629,0.237,2.369,0.383c11.267,2.232,20.76,11.629,23.084,22.85c0.698,3.374,0.859,6.763,0.479,10.071
			c-0.554,4.809,2.416,9.324,7.052,10.72c8.12,2.445,15.987,5.075,23.38,7.812C468.527,173.736,492.577,207.367,491.99,230.276z"/>
	</g>
</g>
<g>
	<g>
		<path d="M202.903,127.102c-1.249-5.38-6.626-8.729-12.004-7.479c-28.801,6.692-54.359,22.766-73.911,46.485
			c-3.513,4.262-2.906,10.566,1.356,14.08c1.862,1.536,4.115,2.284,6.355,2.284c2.884,0,5.746-1.241,7.724-3.64
			c16.733-20.299,38.519-34.037,63.002-39.725C200.805,137.857,204.154,132.482,202.903,127.102z"/>
	</g>
</g>
<g>
</g>
<g>
</g>
<g>
</g>
<g>
</g>
<g>
</g>
<g>
</g>
<g>
</g>
<g>
</g>
<g>
</g>
<g>
</g>
<g>
</g>
<g>
</g>
<g>
</g>
<g>
</g>
<g>
</g>
</svg>
