<svg id="Capa_1" enable-background="new 0 0 511.317 511.317" height="512" viewBox="0 0 511.317 511.317" width="512" xmlns="http://www.w3.org/2000/svg"><g><path d="m72.955 252.865-14.438-4.066c-11.188 39.724-16.938 84.461-17.091 132.969-.086 27.274-10.747 52.908-30.018 72.18l-11.408 11.407 10.605 10.606 11.409-11.408c22.092-22.092 34.313-51.477 34.411-82.74.15-47.147 5.71-90.532 16.53-128.948z"/><path d="m381.815 56.426c31.263-.099 60.647-12.32 82.74-34.412l11.407-11.408-10.607-10.606-11.406 11.408c-19.272 19.271-44.907 29.933-72.181 30.019-50.738.16-97.256 6.425-138.263 18.623l4.277 14.377c39.634-11.789 84.728-17.845 134.033-18.001z"/><path d="m136.962 136.962c25.001-25.001 57.584-44.534 96.845-58.057l-4.885-14.183c-41.433 14.271-75.941 35.007-102.567 61.633-27.742 27.742-49.067 64.005-63.384 107.783l14.258 4.662c13.576-41.515 33.674-75.779 59.733-101.838z"/><path d="m129.502 454.891c-31.263.099-60.647 12.32-82.74 34.412l-11.407 11.408 10.607 10.606 11.406-11.408c19.272-19.271 44.907-29.933 72.181-30.019 77.19-.243 183.869-14.885 253.729-83.263l-10.492-10.72c-66.262 64.858-168.872 78.75-243.284 78.984z"/><path d="m500.711 35.355-11.409 11.408c-22.092 22.092-34.313 51.477-34.411 82.74-.222 70.853-12.915 169.299-72.124 235.929l11.213 9.964c62.324-70.135 75.681-172.403 75.911-245.846.086-27.274 10.747-52.908 30.018-72.18l11.408-11.408z"/><path d="m99.4 236.867c-10.191 26.807-17.293 57.034-21.106 89.841-6.474 55.695-1.302 99.047-1.079 100.865l.715 5.815 5.815.714c1.124.138 18.116 2.167 44.092 2.167 16.04 0 35.51-.774 56.773-3.246 32.807-3.813 63.033-10.915 89.841-21.106 33.782-12.843 62.216-30.66 84.512-52.956 22.295-22.295 40.111-50.729 52.955-84.512 10.191-26.807 17.293-57.034 21.106-89.841 6.474-55.695 1.302-99.047 1.079-100.865l-.715-5.815-5.815-.714c-1.817-.224-45.166-5.395-100.865 1.079-32.807 3.813-63.033 10.915-89.841 21.106-33.782 12.843-62.216 30.66-84.512 52.956-22.295 22.296-40.111 50.729-52.955 84.512zm321.275-85.351c-.47 9.82-1.271 20.359-2.55 31.361-5.743 49.405-22.51 118.218-69.77 165.478-47.178 47.179-115.837 63.959-165.128 69.728-11.04 1.292-21.623 2.102-31.49 2.577 33.062-9.323 74.437-24.772 114.502-50.036l-8-12.688c-43.965 27.724-90.29 43.268-124.122 51.755 40.521-22.895 101.397-62.281 157.346-118.229 56.058-56.058 95.489-117.064 118.364-157.584-2.34 9.385-5.22 19.718-8.762 30.692-13.499 41.818-39.586 101.663-87.209 149.286-12.925 12.925-27.514 25.034-43.36 35.989l8.529 12.339c16.589-11.468 31.876-24.16 45.438-37.722 49.843-49.844 76.998-112.166 91.001-155.671 1.921-5.969 3.651-11.74 5.211-17.275zm-147.639 40.056c55.652-46.571 109.942-76.878 137.633-90.925-17.607 34.692-60.791 111.187-129.813 180.209-68.946 68.946-145.483 112.17-180.199 129.801 17.612-34.698 60.793-111.182 129.806-180.194 9.906-9.906 20.435-19.745 31.295-29.242l-9.875-11.291c-11.11 9.716-21.886 19.785-32.027 29.926-56.058 56.058-95.489 117.064-118.364 157.584 2.34-9.385 5.22-19.718 8.763-30.692 13.499-41.818 39.586-101.663 87.209-149.286 47.622-47.623 107.467-73.71 149.285-87.208 10.938-3.531 21.238-6.403 30.597-8.739-30.197 17.031-71.707 43.216-113.936 78.553zm55.054-98.338c11.116-1.301 21.77-2.113 31.695-2.587-5.53 1.559-11.296 3.288-17.26 5.207-43.505 14.003-105.827 41.158-155.671 91.001-49.843 49.844-76.998 112.166-91.001 155.671-1.921 5.969-3.651 11.74-5.211 17.274.47-9.82 1.271-20.359 2.55-31.361 5.743-49.405 22.51-118.218 69.77-165.478 47.178-47.178 115.837-63.958 165.128-69.727z"/><path d="m214.646 248.158h82.024v15h-82.024z" transform="matrix(.707 -.707 .707 .707 -105.897 255.659)"/><path d="m200.381 295.658h15.556v15h-15.556z" transform="matrix(.707 -.707 .707 .707 -153.4 236)"/><path d="m178.381 317.658h15.556v15h-15.556z" transform="matrix(.707 -.707 .707 .707 -175.402 226.888)"/><path d="m295.381 200.658h15.556v15h-15.556z" transform="matrix(.707 -.707 .707 .707 -58.394 275.351)"/><path d="m317.381 178.658h15.556v15h-15.556z" transform="matrix(.707 -.707 .707 .707 -36.393 284.463)"/></g></svg>