<?xml version="1.0" encoding="UTF-8" standalone="no"?>
<!-- Created with Inkscape (http://www.inkscape.org/) -->

<svg
   version="1.1"
   id="svg3777"
   xml:space="preserve"
   width="682.66669"
   height="682.66669"
   viewBox="0 0 682.66669 682.66669"
   xmlns="http://www.w3.org/2000/svg"
   xmlns:svg="http://www.w3.org/2000/svg"><defs
     id="defs3781"><clipPath
       clipPathUnits="userSpaceOnUse"
       id="clipPath3791"><path
         d="M 0,512 H 512 V 0 H 0 Z"
         id="path3789" /></clipPath></defs><g
     id="g3783"
     transform="matrix(1.3333333,0,0,-1.3333333,0,682.66667)"><g
       id="g3785"><g
         id="g3787"
         clip-path="url(#clipPath3791)"><g
           id="g3793"
           transform="translate(351.0439,347.748)"><path
             d="M 0,0 H 146.148"
             style="fill:none;stroke:#000000;stroke-width:15;stroke-linecap:round;stroke-linejoin:round;stroke-miterlimit:10;stroke-dasharray:none;stroke-opacity:1"
             id="path3795" /></g><g
           id="g3797"
           transform="translate(14.8076,347.748)"><path
             d="M 0,0 H 303.55"
             style="fill:none;stroke:#000000;stroke-width:15;stroke-linecap:round;stroke-linejoin:round;stroke-miterlimit:10;stroke-dasharray:none;stroke-opacity:1"
             id="path3799" /></g><g
           id="g3801"
           transform="translate(384.5439,7.5)"><path
             d="m 0,0 h -344.736 c -13.808,0 -25,11.193 -25,25 v 207.157"
             style="fill:none;stroke:#000000;stroke-width:15;stroke-linecap:round;stroke-linejoin:round;stroke-miterlimit:10;stroke-dasharray:none;stroke-opacity:1"
             id="path3803" /></g><g
           id="g3805"
           transform="translate(83.6602,455.5498)"><path
             d="m 0,0 h -43.853 c -13.807,0 -25,-11.193 -25,-25 v -158.206"
             style="fill:none;stroke:#000000;stroke-width:15;stroke-linecap:round;stroke-linejoin:round;stroke-miterlimit:10;stroke-dasharray:none;stroke-opacity:1"
             id="path3807" /></g><g
           id="g3809"
           transform="translate(232.2744,455.5498)"><path
             d="M 0,0 H -101.162"
             style="fill:none;stroke:#000000;stroke-width:15;stroke-linecap:round;stroke-linejoin:round;stroke-miterlimit:10;stroke-dasharray:none;stroke-opacity:1"
             id="path3811" /></g><g
           id="g3813"
           transform="translate(256,406.5996)"><path
             d="M 0,0 V 0 C -13.104,0 -23.726,10.622 -23.726,23.726 V 74.175 C -23.726,87.278 -13.104,97.9 0,97.9 13.104,97.9 23.726,87.278 23.726,74.175 V 23.726 C 23.726,10.622 13.104,0 0,0 Z"
             style="fill:none;stroke:#000000;stroke-width:15;stroke-linecap:round;stroke-linejoin:round;stroke-miterlimit:10;stroke-dasharray:none;stroke-opacity:1"
             id="path3815" /></g><g
           id="g3817"
           transform="translate(107.3867,406.5996)"><path
             d="M 0,0 V 0 C -13.104,0 -23.727,10.622 -23.727,23.726 V 74.175 C -23.727,87.278 -13.104,97.9 0,97.9 13.104,97.9 23.726,87.278 23.726,74.175 V 23.726 C 23.726,10.622 13.104,0 0,0 Z"
             style="fill:none;stroke:#000000;stroke-width:15;stroke-linecap:round;stroke-linejoin:round;stroke-miterlimit:10;stroke-dasharray:none;stroke-opacity:1"
             id="path3819" /></g><g
           id="g3821"
           transform="translate(404.6133,406.5996)"><path
             d="M 0,0 V 0 C -13.104,0 -23.726,10.622 -23.726,23.726 V 74.175 C -23.726,87.278 -13.104,97.9 0,97.9 13.104,97.9 23.727,87.278 23.727,74.175 V 23.726 C 23.727,10.622 13.104,0 0,0 Z"
             style="fill:none;stroke:#000000;stroke-width:15;stroke-linecap:round;stroke-linejoin:round;stroke-miterlimit:10;stroke-dasharray:none;stroke-opacity:1"
             id="path3823" /></g><g
           id="g3825"
           transform="translate(443.4805,199.876)"><path
             d="m 0,0 h -81.099 c -2.909,0 -5.268,2.359 -5.268,5.269 v 81.098 c 0,2.91 2.359,5.269 5.268,5.269 H 0 c 2.91,0 5.269,-2.359 5.269,-5.269 V 5.269 C 5.269,2.359 2.91,0 0,0 Z"
             style="fill:none;stroke:#000000;stroke-width:15;stroke-linecap:round;stroke-linejoin:round;stroke-miterlimit:10;stroke-dasharray:none;stroke-opacity:1"
             id="path3827" /></g><g
           id="g3829"
           transform="translate(296.5498,62.4287)"><path
             d="m 0,0 h -81.1 c -2.909,0 -5.267,2.358 -5.267,5.269 v 81.098 c 0,2.909 2.358,5.269 5.267,5.269 H 0 c 2.909,0 5.268,-2.36 5.268,-5.269 V 5.269 C 5.268,2.358 2.909,0 0,0 Z"
             style="fill:none;stroke:#000000;stroke-width:15;stroke-linecap:round;stroke-linejoin:round;stroke-miterlimit:10;stroke-dasharray:none;stroke-opacity:1"
             id="path3831" /></g><g
           id="g3833"
           transform="translate(149.6182,62.4287)"><path
             d="m 0,0 h -81.099 c -2.91,0 -5.268,2.358 -5.268,5.269 v 81.098 c 0,2.909 2.358,5.269 5.268,5.269 H 0 c 2.909,0 5.269,-2.36 5.269,-5.269 V 5.269 C 5.269,2.358 2.909,0 0,0 Z"
             style="fill:none;stroke:#000000;stroke-width:15;stroke-linecap:round;stroke-linejoin:round;stroke-miterlimit:10;stroke-dasharray:none;stroke-opacity:1"
             id="path3835" /></g><g
           id="g3837"
           transform="translate(443.4805,62.4287)"><path
             d="m 0,0 h -81.099 c -2.909,0 -5.268,2.358 -5.268,5.269 v 81.098 c 0,2.909 2.359,5.269 5.268,5.269 H 0 c 2.91,0 5.269,-2.36 5.269,-5.269 V 5.269 C 5.269,2.358 2.91,0 0,0 Z"
             style="fill:none;stroke:#000000;stroke-width:15;stroke-linecap:round;stroke-linejoin:round;stroke-miterlimit:10;stroke-dasharray:none;stroke-opacity:1"
             id="path3839" /></g><g
           id="g3841"
           transform="translate(296.5498,199.876)"><path
             d="m 0,0 h -81.1 c -2.909,0 -5.267,2.359 -5.267,5.269 v 81.098 c 0,2.91 2.358,5.269 5.267,5.269 H 0 c 2.909,0 5.268,-2.359 5.268,-5.269 V 5.269 C 5.268,2.359 2.909,0 0,0 Z"
             style="fill:none;stroke:#000000;stroke-width:15;stroke-linecap:round;stroke-linejoin:round;stroke-miterlimit:10;stroke-dasharray:none;stroke-opacity:1"
             id="path3843" /></g><g
           id="g3845"
           transform="translate(149.6182,199.876)"><path
             d="m 0,0 h -81.099 c -2.91,0 -5.268,2.359 -5.268,5.269 v 81.098 c 0,2.91 2.358,5.269 5.268,5.269 H 0 c 2.909,0 5.269,-2.359 5.269,-5.269 V 5.269 C 5.269,2.359 2.909,0 0,0 Z"
             style="fill:none;stroke:#000000;stroke-width:15;stroke-linecap:round;stroke-linejoin:round;stroke-miterlimit:10;stroke-dasharray:none;stroke-opacity:1"
             id="path3847" /></g><g
           id="g3849"
           transform="translate(97.3203,245.6943)"><path
             d="M 0,0 21.748,-21.366 72.396,29.627"
             style="fill:none;stroke:#000000;stroke-width:15;stroke-linecap:round;stroke-linejoin:round;stroke-miterlimit:10;stroke-dasharray:none;stroke-opacity:1"
             id="path3851" /></g><g
           id="g3853"
           transform="translate(251,245.6943)"><path
             d="M 0,0 21.749,-21.366 72.396,29.627"
             style="fill:none;stroke:#000000;stroke-width:15;stroke-linecap:round;stroke-linejoin:round;stroke-miterlimit:10;stroke-dasharray:none;stroke-opacity:1"
             id="path3855" /></g><g
           id="g3857"
           transform="translate(380.8877,455.5498)"><path
             d="M 0,0 H -101.162"
             style="fill:none;stroke:#000000;stroke-width:15;stroke-linecap:round;stroke-linejoin:round;stroke-miterlimit:10;stroke-dasharray:none;stroke-opacity:1"
             id="path3859" /></g><g
           id="g3861"
           transform="translate(417.2314,7.5)"><path
             d="m 0,0 h 54.961 c 13.808,0 25,11.193 25,25 v 398.05 c 0,13.806 -11.192,25 -25,25 H 11.108"
             style="fill:none;stroke:#000000;stroke-width:15;stroke-linecap:round;stroke-linejoin:round;stroke-miterlimit:10;stroke-dasharray:none;stroke-opacity:1"
             id="path3863" /></g></g></g></g></svg>
