<?xml version="1.0" encoding="iso-8859-1"?>
<!-- Generator: Adobe Illustrator 19.0.0, SVG Export Plug-In . SVG Version: 6.00 Build 0)  -->
<svg version="1.1" id="Layer_1" xmlns="http://www.w3.org/2000/svg" xmlns:xlink="http://www.w3.org/1999/xlink" x="0px" y="0px"
	 viewBox="0 0 512 512" style="enable-background:new 0 0 512 512;" xml:space="preserve">
<g>
	<g>
		<path d="M504.067,433.624h-58.904c15.273-12.663,25.018-31.77,25.018-53.113c0-38.036-30.944-68.979-68.979-68.979h-3.659
			c8.43-11.604,13.052-25.63,13.052-40.42c0-0.795-0.014-1.589-0.04-2.379c-0.149-4.379-3.862-7.813-8.197-7.659
			c-4.38,0.148-7.808,3.818-7.66,8.197c0.021,0.611,0.032,1.224,0.032,1.84c0,16.582-7.55,31.917-20.715,42.073
			c-2.688,2.073-3.759,5.628-2.663,8.841c1.095,3.213,4.114,5.373,7.509,5.373h22.341c29.287,0,53.113,23.827,53.113,53.113
			c0,29.288-23.825,53.113-53.113,53.113H110.799c-29.287,0-53.114-23.827-53.114-53.113c0-29.287,23.827-53.113,53.114-53.113
			h22.34h51.595c4.382,0,7.933-3.552,7.933-7.933c0-4.381-3.551-7.933-7.933-7.933h-48.77c-11.908-10.127-18.694-24.71-18.694-40.42
			c0-29.288,23.827-53.113,53.114-53.113h18.404c2.77,0,5.341-1.445,6.779-3.812c1.439-2.367,1.538-5.314,0.262-7.773
			c-6.505-12.542-9.804-26.111-9.804-40.333c0-42.971,31.568-79.23,72.72-86.423c-5.046,12.37-7.674,25.678-7.674,39.158
			c0,22.477,7.079,43.859,20.474,61.834c6.171,8.281,13.421,15.479,21.526,21.483h-22.264c-4.382,0-7.933,3.552-7.933,7.933
			s3.551,7.933,7.933,7.933h55.076h15.731c19.842,0,37.887,10.931,47.095,28.528c2.032,3.882,6.826,5.383,10.707,3.351
			c3.882-2.031,5.382-6.824,3.351-10.706c-11.955-22.846-35.387-37.039-61.153-37.039H327.13
			c-36.054-11.891-60.193-45.221-60.193-83.317c0-15.619,4.16-30.957,12.03-44.356c1.453-2.473,1.458-5.538,0.012-8.016
			c-1.445-2.477-4.068-3.976-6.984-3.934c-27.302,0.455-52.896,11.43-72.069,30.903c-19.196,19.497-29.768,45.304-29.768,72.667
			c0,12.306,2.215,24.567,6.464,36.052h-6.24c-38.036,0-68.98,30.944-68.98,68.979c0,14.79,4.622,28.816,13.052,40.42h-3.658
			c-38.036,0-68.98,30.944-68.98,68.979c0,21.343,9.746,40.451,25.018,53.113H7.933c-4.381,0-7.933,3.552-7.933,7.933
			c0,4.381,3.552,7.933,7.933,7.933h102.866h290.403h102.865c4.382,0,7.933-3.552,7.933-7.933
			C512,437.176,508.448,433.624,504.067,433.624z"/>
	</g>
</g>
<g>
	<g>
		<path d="M226.913,311.532h-16.197c-4.382,0-7.933,3.552-7.933,7.933c0,4.381,3.551,7.933,7.933,7.933h16.197
			c4.382,0,7.933-3.552,7.933-7.933C234.846,315.084,231.295,311.532,226.913,311.532z"/>
	</g>
</g>
<g>
</g>
<g>
</g>
<g>
</g>
<g>
</g>
<g>
</g>
<g>
</g>
<g>
</g>
<g>
</g>
<g>
</g>
<g>
</g>
<g>
</g>
<g>
</g>
<g>
</g>
<g>
</g>
<g>
</g>
</svg>
