<?xml version="1.0" encoding="UTF-8" standalone="no"?>
<!-- Created with Inkscape (http://www.inkscape.org/) -->

<svg
   version="1.1"
   id="svg3189"
   xml:space="preserve"
   width="682.66669"
   height="682.66669"
   viewBox="0 0 682.66669 682.66669"
   xmlns="http://www.w3.org/2000/svg"
   xmlns:svg="http://www.w3.org/2000/svg"><defs
     id="defs3193"><clipPath
       clipPathUnits="userSpaceOnUse"
       id="clipPath3203"><path
         d="M 0,512 H 512 V 0 H 0 Z"
         id="path3201" /></clipPath></defs><g
     id="g3195"
     transform="matrix(1.3333333,0,0,-1.3333333,0,682.66667)"><g
       id="g3197"><g
         id="g3199"
         clip-path="url(#clipPath3203)"><g
           id="g3205"
           transform="translate(435,206.5898)"><path
             d="m 0,0 v -169.09 c 0,-16.57 -13.43,-30 -30,-30 h -313 c -16.57,0 -30,13.43 -30,30 v 437 c 0,16.57 13.43,30 30,30 h 313 c 16.57,0 30,-13.43 30,-30 V 98.82"
             style="fill:none;stroke:#000000;stroke-width:15;stroke-linecap:round;stroke-linejoin:round;stroke-miterlimit:10;stroke-dasharray:none;stroke-opacity:1"
             id="path3207" /></g><g
           id="g3209"
           transform="translate(381.8853,206.5889)"><path
             d="m 0,0 h -27.125 c -27.289,0 -49.411,22.122 -49.411,49.411 0,27.289 22.122,49.411 49.411,49.411 h 89.92 c 2.938,0 5.32,-2.381 5.32,-5.319 V 5.319 C 68.115,2.381 65.733,0 62.795,0 H 35"
             style="fill:none;stroke:#000000;stroke-width:15;stroke-linecap:round;stroke-linejoin:round;stroke-miterlimit:10;stroke-dasharray:none;stroke-opacity:1"
             id="path3211" /></g><g
           id="g3213"
           transform="translate(365.3491,256)"><path
             d="m 0,0 c 0,-8.284 -6.716,-15 -15,-15 -8.284,0 -15,6.716 -15,15 0,8.284 6.716,15 15,15 C -6.716,15 0,8.284 0,0 Z"
             style="fill:none;stroke:#000000;stroke-width:15;stroke-linecap:round;stroke-linejoin:round;stroke-miterlimit:10;stroke-dasharray:none;stroke-opacity:1"
             id="path3215" /></g><g
           id="g3217"
           transform="translate(149.8169,362.9736)"><path
             d="M 0,0 V -355.474"
             style="fill:none;stroke:#000000;stroke-width:15;stroke-linecap:round;stroke-linejoin:round;stroke-miterlimit:10;stroke-dasharray:none;stroke-opacity:1"
             id="path3219" /></g><g
           id="g3221"
           transform="translate(149.8169,504.5)"><path
             d="M 0,0 V -106.526"
             style="fill:none;stroke:#000000;stroke-width:15;stroke-linecap:round;stroke-linejoin:round;stroke-miterlimit:10;stroke-dasharray:none;stroke-opacity:1"
             id="path3223" /></g><g
           id="g3225"
           transform="translate(218.3228,89.2549)"><path
             d="M 0,0 H 144.354"
             style="fill:none;stroke:#000000;stroke-width:15;stroke-linecap:round;stroke-linejoin:round;stroke-miterlimit:10;stroke-dasharray:none;stroke-opacity:1"
             id="path3227" /></g><g
           id="g3229"
           transform="translate(233.3228,59.2549)"><path
             d="M 0,0 H 114.354"
             style="fill:none;stroke:#000000;stroke-width:15;stroke-linecap:round;stroke-linejoin:round;stroke-miterlimit:10;stroke-dasharray:none;stroke-opacity:1"
             id="path3231" /></g></g></g></g></svg>
