<svg height="512pt" viewBox="0 0 512 512" width="512pt" xmlns="http://www.w3.org/2000/svg"><path d="m402 10h-252c-11.050781 0-20 8.949219-20 20v452c0 11.050781 8.949219 20 20 20h332c11.050781 0 20-8.949219 20-20v-372zm0 0" fill="#f2f2fc"/><path d="m502 110h-100v-100zm0 0" fill="#bfe7f2"/><path d="m439 276c11.050781 0 20 8.949219 20 20s-8.949219 20-20 20-20-8.949219-20-20 8.949219-20 20-20zm0 0" fill="#ff6961"/><path d="m336 396c11.050781 0 20 8.949219 20 20s-8.949219 20-20 20-20-8.949219-20-20c0-11.039062 8.960938-20 20-20zm0 0" fill="#ffd685"/><path d="m266 316c11.050781 0 20 8.949219 20 20 0 11.039062-8.960938 20-20 20s-20-8.960938-20-20c0-11.050781 8.949219-20 20-20zm0 0" fill="#65a8d1"/><path d="m210 170h-100v-100c6.851562 0 13.539062.691406 20 2 45.640625 9.261719 80 49.621094 80 98zm0 0" fill="#ffd685"/><path d="m110 170h100c0 55.074219-44.625 100-100 100-55.230469 0-100-44.769531-100-100s44.769531-100 100-100zm0 0" fill="#65a8d1"/><path d="m210 416c0 11.050781-8.949219 20-20 20s-20-8.949219-20-20 8.949219-20 20-20c11.039062 0 20 8.960938 20 20zm0 0" fill="#70ccc9"/><path d="m250 180c5.519531 0 10-4.480469 10-10s-4.480469-10-10-10-10 4.480469-10 10 4.480469 10 10 10zm0 0"/><path d="m250 220c5.519531 0 10-4.480469 10-10s-4.480469-10-10-10-10 4.480469-10 10 4.480469 10 10 10zm0 0"/><path d="m509.070312 102.929688-100-100c-1.769531-1.773438-4.339843-2.929688-7.070312-2.929688h-252c-16.542969 0-30 13.457031-30 30v30.460938c-3.320312-.300782-6.660156-.460938-10-.460938-60.652344 0-110 49.347656-110 110s49.347656 110 110 110c3.339844 0 6.679688-.160156 10-.460938v202.460938c0 16.542969 13.457031 30 30 30h332c16.542969 0 30-13.457031 30-30v-372c0-2.730469-1.136719-5.277344-2.929688-7.070312zm-97.070312-68.789063 65.859375 65.859375h-65.859375zm-292 46.417969c42.226562 4.660156 74.804688 38.328125 79.421875 79.441406h-79.421875zm-100 89.441406c0-46.246094 35.0625-84.449219 80-89.441406v89.441406c0 5.523438 4.476562 9.988281 10 9.988281h89.421875c-5.023437 44.734375-42.871094 80.011719-89.421875 80.011719-49.625 0-90-40.375-90-90zm462 322h-332c-5.515625 0-10-4.484375-10-10v-206.164062c46.8125-13.25 80-56.492188 80-105.835938s-33.1875-92.585938-80-105.835938v-34.164062c0-5.515625 4.484375-10 10-10h242v90c0 5.523438 4.476562 10 10 10h90v362c0 5.515625-4.484375 10-10 10zm0 0"/><path d="m256 80h106c5.523438 0 10-4.476562 10-10s-4.476562-10-10-10h-106c-5.523438 0-10 4.476562-10 10s4.476562 10 10 10zm0 0"/><path d="m256 120h106c5.523438 0 10-4.476562 10-10s-4.476562-10-10-10h-106c-5.523438 0-10 4.476562-10 10s4.476562 10 10 10zm0 0"/><path d="m110 220c-27.570312 0-50-22.429688-50-50 0-5.523438-4.476562-10-10-10s-10 4.476562-10 10c0 38.597656 31.402344 70 70 70 5.523438 0 10-4.476562 10-10s-4.476562-10-10-10zm0 0"/><path d="m439 266c-16.542969 0-30 13.457031-30 30 0 6.199219 1.890625 11.96875 5.125 16.753906l-69.441406 74.53125c-2.75-.832031-5.664063-1.285156-8.683594-1.285156-4.21875 0-8.300781.875-12.050781 2.519531l-31.277344-38.773437c2.171875-4.199219 3.328125-8.882813 3.328125-13.746094 0-16.542969-13.457031-30-30-30s-30 13.457031-30 30c0 4.671875 1.070312 9.175781 3.078125 13.246094l-36.464844 39.523437c-3.902343-1.8125-8.183593-2.769531-12.613281-2.769531-16.542969 0-30 13.457031-30 30s13.457031 30 30 30 30-13.457031 30-30c0-4.671875-1.066406-9.175781-3.078125-13.246094l36.464844-39.523437c3.902343 1.8125 8.183593 2.769531 12.613281 2.769531 4.21875 0 8.300781-.875 12.050781-2.519531l31.277344 38.773437c-2.171875 4.199219-3.328125 8.882813-3.328125 13.746094 0 16.542969 13.457031 30 30 30s30-13.457031 30-30c0-6.199219-1.890625-11.96875-5.125-16.753906l69.441406-74.53125c2.75.832031 5.664063 1.285156 8.683594 1.285156 16.542969 0 30-13.457031 30-30s-13.457031-30-30-30zm-249 160c-5.515625 0-10-4.484375-10-10s4.484375-10 10-10c5.519531 0 10 4.476562 10 10 0 5.515625-4.484375 10-10 10zm66-90c0-5.515625 4.484375-10 10-10s10 4.484375 10 10c0 5.519531-4.476562 10-10 10s-10-4.480469-10-10zm80 90c-5.515625 0-10-4.484375-10-10 0-5.519531 4.476562-10 10-10 5.515625 0 10 4.484375 10 10s-4.484375 10-10 10zm103-120c-5.515625 0-10-4.484375-10-10s4.484375-10 10-10 10 4.484375 10 10-4.484375 10-10 10zm0 0"/><path d="m280 170c0 5.523438 4.476562 10 10 10h152c5.523438 0 10-4.476562 10-10s-4.476562-10-10-10h-152c-5.523438 0-10 4.476562-10 10zm0 0"/><path d="m442 200h-152c-5.523438 0-10 4.476562-10 10s4.476562 10 10 10h152c5.523438 0 10-4.476562 10-10s-4.476562-10-10-10zm0 0"/></svg>