<?xml version="1.0" encoding="utf-8"?>
<!-- Generator: Adobe Illustrator 27.7.0, SVG Export Plug-In . SVG Version: 6.00 Build 0)  -->
<svg version="1.1" id="Image" xmlns="http://www.w3.org/2000/svg" xmlns:xlink="http://www.w3.org/1999/xlink" x="0px" y="0px"
	 viewBox="0 0 512 512" style="enable-background:new 0 0 512 512;" xml:space="preserve">
<g>
	<path d="M223.2,406.4c-10.2,1-20.7,1.6-31.2,1.6c-81.4,0-136-29-136-56v-47.5c24.7,23.6,75.6,39.5,136,39.5s111.3-15.9,136-39.5
		v40.2c0,10.6,16,10.6,16,0V112c0-40.4-66.8-72-152-72S40,71.6,40,112v240c0,40.4,66.8,72,152,72c11.1,0,22.1-0.5,32.8-1.6
		C235.3,421.3,233.8,405.4,223.2,406.4L223.2,406.4z M328,192c0,27-54.6,56-136,56S56,219,56,192v-47.5
		c24.7,23.6,75.6,39.5,136,39.5s111.3-15.9,136-39.5V192z M192,328c-81.4,0-136-29-136-56v-47.5c24.7,23.6,75.6,39.5,136,39.5
		s111.3-15.9,136-39.5V272C328,299,273.4,328,192,328z M192,56c81.4,0,136,29,136,56s-54.6,56-136,56S56,139,56,112S110.6,56,192,56
		z"/>
	<circle cx="92" cy="196" r="12"/>
	<circle cx="92" cy="276" r="12"/>
	<circle cx="92" cy="356" r="12"/>
</g>
<g>
	<path d="M251.6,430.9c-0.4-1.4-0.5-2.9-0.3-4.3c0.1-1.4,0.5-2.7,1-3.7c0.5-1,1.2-1.7,2.1-2.2c0.9-0.4,1.8-0.3,2.9,0.4
		c1,0.6,1.8,1.5,2.5,2.7c0.7,1.2,1.5,2.1,2.5,2.8c1.3,1,2.7,1.7,4,2.2c1,0.4,1.9,0.6,2.9,0.7c1,0.1,2,0.2,3,0.2
		c0.8-0.3,1.4-0.6,2-0.9c0.6-0.3,1.2-0.9,1.8-1.9c0.8-1,1.3-2.2,1.5-3.5c0.2-1.4,0.2-2.7,0-4c-0.2-1.3-0.7-2.5-1.3-3.6
		c-0.6-1.1-1.4-1.8-2.3-2.2c-1.8-0.9-3.6-1.6-5.3-2.1c-1.8-0.5-3.5-1.1-5.2-1.8c-1.7-0.7-3.3-1.6-4.8-2.9c-1.5-1.2-2.9-3-4.2-5.4
		c-0.7-1.3-1.2-2.4-1.4-3.4c-0.2-1-0.4-2.2-0.7-3.7c-0.5-3.6-0.3-6.7,0.6-9.2c0.8-2.5,1.9-4.8,3.2-6.8c1.6-2.6,3.5-4.7,5.5-6.1
		c2.1-1.4,4.2-2.3,6.5-2.7c2.3-0.4,4.6-0.3,6.9,0.2c2.3,0.6,4.5,1.5,6.6,2.9c1.2,0.8,2,1.9,2.3,3.5s0.3,3.1,0,4.6
		c-0.3,1.5-0.9,2.8-1.8,3.7c-0.9,1-1.9,1.3-3.1,1c-1.2-0.4-2.4-0.8-3.4-1.2c-1.1-0.4-2.1-0.8-3.2-1.1c-0.8-0.2-1.7-0.3-2.6-0.1
		c-0.9,0.2-1.8,0.4-2.7,0.7c-0.8,0.3-1.6,0.7-2.3,1.1c-0.7,0.4-1.2,0.9-1.6,1.3c-0.4,0.5-0.8,1.2-1.2,2c-0.4,0.8-0.6,1.8-0.6,2.8
		c-0.1,1.3,0.2,2.3,1,3.2c0.8,0.8,1.6,1.4,2.4,1.8c1.7,0.5,3.4,1,5.2,1.5c1.8,0.5,3.5,1.2,5.3,2c1.7,0.9,3.3,2,4.8,3.3
		c1.5,1.4,2.8,3.2,3.9,5.4c1.2,2,2,4.2,2.5,6.7c0.5,2.5,0.7,5,0.6,7.5c-0.1,2.5-0.5,4.9-1.2,7.2c-0.7,2.3-1.6,4.3-2.7,6.1
		c-0.8,1.2-1.7,2.2-2.6,3.1c-0.9,0.9-1.8,1.7-2.9,2.6c-2,1.6-4.2,2.4-6.6,2.4s-4.7-0.5-7-1.5c-2.3-1-4.6-2.5-6.6-4.3
		c-2.1-1.9-3.9-3.9-5.3-6.1L251.6,430.9z"/>
	<path d="M338.8,436.9c1,0.9,1.7,2.1,2.1,3.5c0.5,1.4,0.6,2.8,0.6,4.2c-0.1,1.4-0.4,2.6-1.1,3.7c-0.7,1.1-1.7,1.6-3,1.7
		c-1,0.1-2.1-0.2-3.4-0.9c-1.3-0.7-2.5-1.5-3.8-2.5c-1.3-1-2.5-2.1-3.6-3.2c-1.1-1.1-2-2.1-2.7-2.9c-1.3,1-2.6,1.9-4,2.7
		c-1.4,0.8-2.9,1.3-4.5,1.5c-1.1,0.4-2.1,0.4-3.2,0.2c-1.1-0.3-2-0.5-2.9-0.8c-2.8-0.8-5.4-2.3-7.7-4.4c-2.3-2.1-4.2-5-5.8-8.8
		c-1.7-4.1-2.8-8.7-3.4-13.7c-0.6-5.1-0.7-10.1-0.3-15.2c0.4-5.1,1.2-10,2.6-14.7c1.3-4.7,3.2-8.8,5.5-12.3c2.4-3.6,5.2-6.3,8.5-7.9
		c3.3-1.6,6.5-2.2,9.8-1.8c3.3,0.5,6.4,1.9,9.3,4.5c2.9,2.5,5.2,6.2,6.8,10.9c1.3,3.9,2.2,8,2.7,12.5c0.5,4.5,0.5,9,0.2,13.5
		c-0.4,4.5-1.1,8.9-2.2,13.2c-1.1,4.3-2.5,8.1-4.3,11.4c1.2,1.2,2.5,2.3,3.8,3.2C336.1,435.2,337.4,436.1,338.8,436.9z M317.9,411.7
		c1.1,0.8,2.1,2.3,3.2,4.3c1,2,2,3.9,2.9,5.7c1.2-2.6,2.1-5.3,2.7-8c0.6-2.8,1.2-5.8,1.6-9c0-1.5,0-3.1,0-4.6c0-1.6-0.1-3.2-0.2-4.8
		c-0.1-1.6-0.3-3.1-0.6-4.6c-0.3-1.5-0.7-2.9-1.3-4.2c-1-2.2-2.2-3.9-3.8-5.2c-1.6-1.3-3.2-2.1-4.9-2.5c-1.7-0.4-3.4-0.2-5.1,0.5
		c-1.7,0.7-3.2,1.9-4.5,3.7c-2.3,3.2-4,7-5.1,11.5c-1.1,4.5-1.7,9-1.6,13.5c0,2.6,0.2,5.3,0.6,7.9c0.4,2.6,1.1,5,2,7.1
		c0.9,2.1,2.1,3.9,3.5,5.3c1.4,1.4,3.1,2.3,5.1,2.5c1.3,0.2,2.6,0.1,4-0.3c-1-1.7-2-3.5-3.1-5.6c-1-2.1-1.6-4.1-1.8-6
		c-0.2-1.3-0.1-2.5,0.3-3.6c0.4-1.1,0.8-2,1.4-2.7c0.6-0.7,1.3-1.2,2.1-1.4C316.3,410.9,317.1,411,317.9,411.7z"/>
	<path d="M375.6,427.9c1.2,0.8,2.1,1.9,2.7,3.2c0.6,1.3,0.9,2.6,0.9,3.9c0,1.3-0.4,2.6-1,3.7c-0.6,1.2-1.6,2.1-2.9,2.7
		c-0.5,0.2-1.2,0.4-2.1,0.4c-0.9,0-2.2,0.1-3.8,0.1c-1.6,0-3.7,0-6.2,0c-2.5,0-5.6,0-9.2,0.1c-0.9,0.1-1.9,0.1-2.8,0.1
		c-1,0-1.8-0.5-2.5-1.5c-0.6-0.8-1.1-1.9-1.3-3.5c-0.3-1.5-0.5-3.2-0.5-4.9s-0.1-3.4-0.1-5.1c0-1.7,0-3.1,0-4.3c0-2.3,0-4.9,0-7.8
		c0-2.9,0-6,0.1-9c0-3.1,0-6.1,0-9s0-5.6,0-7.8c0-4,0-7.2,0.1-9.7c0-2.5,0.2-4.4,0.3-5.8c0.2-1.4,0.5-2.4,0.9-3.1
		c0.4-0.6,1-1.2,1.7-1.6c0.6-0.4,1.3-0.5,2-0.4c0.7,0.1,1.4,0.4,2.1,0.9c0.6,0.5,1.2,1.2,1.6,2c0.4,0.9,0.6,1.8,0.6,2.9
		c0.1,9.1,0.1,18.1,0,27c-0.1,8.9-0.2,17.8-0.2,26.8c3.2,0,6.4-0.1,9.6-0.2c3.2-0.1,6.4-0.2,9.6-0.4L375.6,427.9z"/>
	<path d="M384.2,371.2c0.2-2.8,0.9-4.9,1.9-6.2c1.1-1.3,2.3-2,3.5-1.9c1.2,0,2.4,0.7,3.4,2.1c1,1.4,1.6,3.3,1.6,5.8
		c0.1,2.6-0.3,4.6-1.3,6c-1,1.4-2.1,2.2-3.4,2.4c-1.3,0.2-2.5-0.3-3.6-1.5c-1.1-1.2-1.8-3.1-2.1-5.8L384.2,371.2z M394.3,435.7
		c-0.1,1.5-0.5,2.9-1.1,4s-1.3,2-2.1,2.5c-0.8,0.5-1.6,0.6-2.6,0.3c-0.9-0.3-1.7-1.1-2.4-2.5c-0.4-0.8-0.7-1.6-0.9-2.6
		c-0.2-0.9-0.3-1.9-0.3-2.9c-0.1-1-0.1-2,0-3.1c0-1,0-1.9,0-2.8c-0.1-4.5-0.1-8.9,0-13.3c0-4.4,0-8.8,0-13.3c0-1.8-0.1-3.6-0.2-5.5
		c-0.2-1.9-0.1-3.7,0.2-5.5c0.3-1.4,0.7-2.5,1.3-3.5c0.6-1,1.3-1.7,2.1-2c0.8-0.4,1.6-0.4,2.4-0.1c0.8,0.3,1.6,1.1,2.2,2.4
		c0.8,1.5,1.2,3,1.2,4.5s0,3.3,0,5.4c0,2.6,0,5.1,0,7.7c0,2.6,0,5.1,0.1,7.6c0,3.6,0.1,7.3,0.1,10.9s0,7.3,0,10.9V435.7z"/>
	<path d="M403.4,401.1c-1-0.4-1.9-1-2.6-1.9c-0.7-0.9-1.2-2-1.5-3.2c-0.3-1.2-0.3-2.5,0-3.7c0.3-1.3,0.9-2.5,1.9-3.5
		c0.8-0.9,1.7-1.4,2.7-1.4s2,0,3,0c0-0.5,0-1.7-0.1-3.5c-0.1-1.8-0.1-3.7,0-5.8c0-2.1,0.1-4.1,0.3-6.1s0.4-3.3,0.8-4
		c1-2.1,2.3-3.1,3.8-3c1.5,0.1,2.7,1.2,3.7,3.2c0.2,0.4,0.4,0.8,0.6,1.4c0.2,0.5,0.3,1,0.3,1.5c0,2.7,0.1,5.4,0,8.2
		c0,2.7,0,5.4,0,8.2h6c0.9,0,1.7,0.5,2.4,1.4c0.7,0.9,1.1,2,1.4,3.2c0.3,1.2,0.4,2.5,0.2,3.7c-0.1,1.3-0.5,2.3-1.2,3.2
		c-1.2,1.4-2.5,2.2-4.1,2.3c-1.6,0.1-3.1,0.1-4.8,0.1c0,4.2,0,8.3,0,12.5c0,4.2,0,8.3,0,12.5c0,1.8,0.1,3.7,0.2,5.6
		c0.1,1.9,0,3.7-0.3,5.4c-0.3,1.4-0.7,2.4-1.3,3.2c-0.6,0.8-1.3,1.3-2.1,1.5c-0.8,0.2-1.6,0.1-2.4-0.2s-1.6-1-2.3-1.9
		c-0.4-0.5-0.6-1.4-0.8-2.7c-0.2-1.3-0.3-2.6-0.3-4.1c-0.1-1.7-0.1-3.4,0-5.3c0-1.5,0-3.5,0-5.9c0-2.4,0-4.9,0-7.5
		c0-2.6,0-5.1,0-7.4c0-2.3,0-4.2,0-5.6L403.4,401.1z"/>
	<path d="M454.9,423.7c1.2-0.5,2.3-0.5,3.2-0.1c0.9,0.4,1.7,1.1,2.2,2.1c0.5,1,0.7,2.2,0.7,3.6c-0.1,1.4-0.5,2.9-1.3,4.5
		c-0.7,1.3-1.6,2.4-2.7,3.3c-1.2,0.9-2.3,1.6-3.3,2.2c-2.5,1.4-4.9,2.3-7.1,2.8c-2.2,0.5-4.3,0.5-6.3,0c-2-0.5-3.8-1.6-5.5-3.3
		s-3.3-4-4.8-7c-1-2-1.8-4.4-2.2-7c-0.5-2.6-0.8-5.3-0.8-8c-0.1-2.7,0.1-5.4,0.5-8c0.4-2.6,0.9-5,1.5-7.1c0.9-2.6,2.2-5.1,4.1-7.3
		c1.9-2.2,4-3.9,6.3-5.2c2.3-1.3,4.6-2,7-2.2c2.4-0.2,4.5,0.4,6.3,1.6c1.5,1.1,2.8,2.6,3.9,4.6c1.1,2,1.8,4.2,2.3,6.5
		c0.4,2.3,0.4,4.7,0.1,7.1c-0.3,2.4-1.2,4.6-2.5,6.5c-1.3,1.9-2.7,3.4-4.2,4.6c-1.5,1.2-3.1,2.2-4.7,3.1c-1.6,0.9-3.3,1.6-5,2.2
		c-1.7,0.6-3.3,1.3-4.9,2c1.1,1.8,2.3,3,3.7,3.5c1.4,0.5,2.8,0.6,4.3,0.3c1.5-0.3,3-0.9,4.5-1.9c1.5-0.9,2.9-2,4.3-3.1L454.9,423.7z
		 M439.5,404.2c-1.2,1-2,2.2-2.6,3.7c-0.6,1.5-1,3.5-1.2,6.2c1.3-0.6,2.8-1.2,4.5-1.9c1.7-0.7,3.2-1.4,4.7-2.2
		c1.5-0.8,2.7-1.6,3.7-2.5c1-0.9,1.5-1.9,1.5-2.9c0-0.6-0.1-1.2-0.2-1.8c-0.1-0.6-0.4-1-0.8-1.2c-1.4-0.8-2.9-0.9-4.4-0.5
		c-1.5,0.5-2.8,1.1-3.8,1.9L439.5,404.2z"/>
	<path d="M468.8,433.3c-0.6-1.3-0.9-2.6-1-4c-0.1-1.4,0-2.7,0.4-3.9c0.4-1.2,0.9-2.1,1.7-2.8c0.8-0.7,1.7-0.9,2.9-0.8
		c1.2,0.2,2.3,0.8,3.1,1.9c0.9,1.1,1.7,2.1,2.6,3.1c0.9,0.9,1.8,1.6,2.9,1.9c1,0.3,2.3-0.2,3.7-1.5c0.4-0.4,0.7-0.8,0.9-1.2
		c0.3-0.4,0.5-0.9,0.8-1.3c0.3-0.6,0.5-1.1,0.7-1.5c0.2-0.4,0.3-1,0.5-1.6c0.3-1.3,0.5-2.5,0.6-3.6c0.1-1.1,0.1-2.3,0-3.6
		c-0.8-2.1-1.7-3.5-2.9-4.2c-1.1-0.7-2.3-1.1-3.6-1.3c-1.2-0.2-2.5-0.4-3.7-0.6c-1.2-0.2-2.3-0.9-3.1-2c-0.8-1-1.2-2.1-1.4-3.4
		c-0.2-1.3-0.1-2.5,0.2-3.7c0.3-1.2,0.8-2.2,1.5-3.1c0.7-0.9,1.5-1.5,2.5-1.7c0.8-0.2,1.6-0.4,2.5-0.6c0.9-0.2,1.7-0.5,2.6-0.9
		c0.8-0.4,1.6-1,2.3-1.6c0.7-0.7,1.3-1.6,1.8-2.7c0-0.8,0.1-1.6,0-2.4c0-0.8-0.2-1.6-0.4-2.3c-0.5-0.7-1.2-1.2-2.2-1.4
		c-0.9-0.3-1.9-0.4-3-0.3c-1,0-2,0.2-2.9,0.5c-0.9,0.3-1.7,0.6-2.2,1c-1.2,1.8-2.5,2.7-3.7,2.6c-1.3-0.1-2.3-0.8-3.2-2
		c-0.9-1.2-1.4-2.7-1.6-4.5c-0.2-1.8,0.2-3.4,1.1-4.9c0.7-1.2,1.5-2.2,2.4-2.9c0.9-0.7,1.9-1.3,2.9-1.8c2.6-1.1,5.3-1.6,8.1-1.6
		c2.8,0,5.5,0.9,7.9,2.8c2,1.5,3.5,3.5,4.5,6c1,2.5,1.5,5.1,1.7,7.9c0.1,2.8-0.2,5.6-0.9,8.3c-0.7,2.8-1.8,5.2-3.3,7.3
		c1.8,1.9,3.2,4.1,4.2,6.5c0.9,2.5,1.5,5,1.8,7.6c0.2,2.6,0.1,5.3-0.3,7.9c-0.4,2.7-1.2,5.2-2.2,7.5c-1,2.3-2.3,4.5-3.8,6.4
		c-1.5,1.9-3.2,3.5-5.1,4.6c-1.6,1-3.2,1.4-4.8,1.4c-1.6-0.1-3.1-0.5-4.6-1.2c-1.5-0.8-2.9-1.8-4.3-3.1c-1.4-1.3-2.7-2.8-3.9-4.4
		L468.8,433.3z"/>
</g>
</svg>
