<svg id="Layer_1" enable-background="new 0 0 48 48" height="512" viewBox="0 0 48 48" width="512" xmlns="http://www.w3.org/2000/svg"><g><path d="m37.58883.76135c-1.01561-1.01514-2.66758-1.01514-3.68224 0l-5.92463 5.9251c-.49194.49147-.76277 1.14582-.76277 1.84088 0 .54249.16903 1.05633.47449 1.49051l-25.56551 25.56592c-2.83519 2.83519-2.83519 7.44875 0 10.28394 2.84178 2.84277 7.4425 2.84337 10.28489 0l25.56674-25.56591c1.05207.73628 2.45008.59355 3.33056-.28693l5.92416-5.9251c1.01757-1.01757 1.01897-2.66374 0-3.68271zm-7.61921 14.02537c-.12026-.12026-.12026-.31628 0-.43655l.99691-.99691 3.67632 3.67632-.99667.99667c-.12027.12026-.31628.11837-.43607 0-.13634-.13629-3.44612-3.44511-3.24049-3.23953zm9.58982-9.99796-7.55008 7.55008c-.09905-.09902-1.69289-1.69245-1.59106-1.59065l7.55026-7.55032zm2.61975 2.61975-7.55037 7.54949-1.591-1.59077 7.55002-7.55008zm-6.52192 8.57776 7.55032-7.54937 1.59089 1.59089-7.55014 7.55008c-.097-.09703-1.68832-1.68889-1.59107-1.5916zm-6.64692-8.27142 5.92463-5.9251c.44796-.44699 1.17209-.45237 1.62545 0l.37973.37973-7.55031 7.55032c-.09706-.09706-.47711-.47711-.37997-.37997-.21685-.21685-.33617-.50567-.33617-.81249s.11979-.59564.33664-.81249zm-17.62569 37.12446c-2.27287 2.27385-5.95399 2.27509-8.2281 0-2.26796-2.26796-2.26796-5.95919 0-8.22715l25.53419-25.53466 1.24738 1.24738-.99691.99691c-.68749.68749-.68749 1.80585 0 2.49333l1.10575 1.10533-14.43024 14.4303c-1.21719.39642-5.50874 1.84443-6.53885 2.87318-1.29449 1.29449-1.29401 3.40052 0 4.69406 1.29593 1.29691 3.40038 1.29466 4.69406 0 1.03005-1.03005 2.47836-5.32485 2.87407-6.53968l14.42948-14.42948 1.10622 1.10581c.68629.68629 1.80536.68751 2.49286 0l.99667-.99667 1.24762 1.24761zm3.46539-11.69302c-.70217 1.99524-1.61409 4.25089-2.1065 4.7433-.72062.72062-1.90202.73426-2.63727 0-.72726-.72726-.72679-1.91001 0-2.63727.49288-.49241 2.74806-1.40339 4.74377-2.10603zm31.35607-20.08493-5.92416 5.9251c-.44886.44696-1.17707.44696-1.62592 0-.09689-.09714-.47615-.47734-.37926-.3802l7.55008-7.55008.37926.37926c.44701.44701.45237 1.17355 0 1.62592z"/></g></svg>