<svg id="Layer_1" enable-background="new 0 0 128 128" height="512" viewBox="0 0 128 128" width="512" xmlns="http://www.w3.org/2000/svg"><path d="m121.5 96.4c-.9-.2-1.9.4-2.1 1.4l-.4 2.2c-5.8-6.3-22.4-25.4-31.6-47.7-.3-.6-.8-1-1.6-1.1h-32.8c-.3-.4-.6-.8-.9-1.2v-4.8c1.6 1.6 3.5 3 5.5 4 .9.4 1.9.1 2.4-.8.4-.9.1-2-.8-2.4-2.9-1.5-5.3-3.7-7.1-6.3v-4c1.2 1.1 2.5 2 3.9 2.7.9.4 1.9 0 2.3-.8.4-.9.1-1.9-.8-2.3-2.2-1.1-4.1-2.8-5.4-4.9v-4.3c.7.6 1.5 1 2.3 1.4.9.4 1.9.1 2.4-.8.4-.9.1-1.9-.8-2.4-2.6-1.4-3.6-3.2-4.1-3.8-.7-1-2.2-1-2.9 0-.3.3-1.4 2.4-4.1 3.8-.9.4-1.2 1.5-.8 2.4.4.8 1.4 1.2 2.3.8.8-.4 1.6-.9 2.3-1.4v4.3c-1.4 2.1-3.2 3.7-5.4 4.9-.9.4-1.3 1.5-.8 2.3s1.5 1.3 2.3.8c1.4-.7 2.7-1.6 3.9-2.7v4c-1.8 2.7-4.2 4.9-7.1 6.3-.9.4-1.2 1.5-.8 2.3s1.5 1.2 2.3.8c2-1 3.9-2.4 5.5-4v4.8c-.3.4-.6.8-.9 1.2h-5.5c-.8 0-1.4.5-1.6 1.1-1.8 4.2-3.7 8.3-5.9 12.3-2-1.6-3.7-3.5-5.1-5.6v-4.8c1.6 1.6 3.5 3 5.5 4 .9.4 1.9.1 2.4-.8.4-.9.1-2-.8-2.4-2.9-1.5-5.3-3.7-7.1-6.3v-4c1.2 1.1 2.5 2 3.9 2.7.9.4 1.9.1 2.4-.8.4-.9.1-2-.8-2.4-2.2-1.1-4.1-2.8-5.4-4.8v-4.3c.7.6 1.5 1 2.3 1.4.9.4 1.9 0 2.3-.8.4-.9.1-1.9-.8-2.3-2.6-1.4-3.6-3.2-4.1-3.8-.7-1-2.2-1-2.9 0-.3.3-1.4 2.4-4.1 3.8-.9.5-1.2 1.5-.7 2.4.4.8 1.4 1.1 2.3.8.8-.4 1.6-.9 2.3-1.4v4.3c-1.4 2.1-3.2 3.7-5.4 4.8-.9.4-1.2 1.5-.8 2.3s1.5 1.2 2.3.8c1.4-.7 2.7-1.6 3.9-2.7v4c-1.8 2.7-4.2 4.9-7.1 6.3-.9.4-1.2 1.5-.8 2.3s1.5 1.2 2.3.8c2-1 3.9-2.4 5.5-4v5c-2.2 3.3-5.2 6-8.7 7.8-.9.4-1.3 1.4-.8 2.3.4.9 1.4 1.3 2.3.8h.1c2.7-1.3 5.1-3.2 7.2-5.4v13.9c-5.4 7.7-11.1 14.9-17.3 21.6l-.5-2.3c-.2-.9-1.1-1.6-2.1-1.4s-1.6 1.1-1.4 2.1l2.2 10.5c.2.9 1.1 1.6 2.1 1.4.9-.2 1.6-1.1 1.4-2.1l-.8-4c5.8-6.2 11.2-12.7 16.1-19.5v2.9l-8.4 20.3c-.5 1.2.4 2.4 1.6 2.4h89.5c1.2 0 2.1-1.3 1.6-2.4l-11.3-27.4c5.7 8.4 12.1 16.3 19 23.6l-.8 4c-.2.9.4 1.9 1.4 2.1.9.2 1.9-.4 2.1-1.4l2.2-10.5c.2-.8-.4-1.7-1.4-1.9zm-67.5 10.4-.6-2.7c6.9-7.4 13.3-15.3 19-23.6l-10.9 26.3zm33.5-18.8 6.8 18.9h-6.8zm2.8-2.5 11.8 12.6-4.8 6.7zm-2.8-8.2v-15.5l11.5 27.9zm-57.9-12.6c1 1.1 2.2 2.1 3.4 3-1.1 1.9-2.2 3.8-3.4 5.6zm13.8-9.9h39.7c-9.3 21.1-24.9 39.1-30.5 45.2l-.5-2.3c-.2-.9-1.1-1.6-2.1-1.4-.9.2-1.6 1.1-1.4 2.1l1.8 8.4h-28.5zm40.6 7v16.2 28.8h-18.6zm16.2 45 3.7-5.2 2.2 5.2z"/><path d="m89.6 20.9c.8-.6.9-1.7.4-2.4-.3-.4-.8-.7-1.3-.7-7.2-.5-13.4 5-13.9 12.2s5 13.4 12.2 13.9c4.7.3 9.3-2 11.8-6 .5-.8.3-1.9-.5-2.4-.4-.3-1-.3-1.4-.2-4.3 1.3-8.9-1-10.2-5.3-1.1-3.5.1-7.1 2.9-9.1zm3.2 18.1c-4.5 2.7-10.4 1.3-13.1-3.2-3-5-.9-11.6 4.5-13.8-3 5.7-.9 12.7 4.8 15.8 1.1.5 2.4 1 3.8 1.2z"/></svg>