<?xml version="1.0" encoding="iso-8859-1"?>
<!-- Generator: Adobe Illustrator 19.0.0, SVG Export Plug-In . SVG Version: 6.00 Build 0)  -->
<svg version="1.1" id="Capa_1" xmlns="http://www.w3.org/2000/svg" xmlns:xlink="http://www.w3.org/1999/xlink" x="0px" y="0px"
	 viewBox="0 0 512 512" style="enable-background:new 0 0 512 512;" xml:space="preserve">
<g transform="translate(-1)">
	<g>
		<g>
			<path d="M354.864,69.861C351.301,25.983,313.768,0,252.816,0c-81.067,0-107.125,97.058-115.5,184.246
				c-4.878-21.465-12.646-42.169-23.091-61.546c-8.384-16.888-15.009-30.229-15.009-45.9c-0.019-13.584,2.865-27.016,8.458-39.396
				c3.729-8.229,3.016-17.79-1.892-25.375C100.504,3.912,91.212-0.671,81.558,0.08c-9.653,0.751-18.125,6.718-22.084,15.554
				c-8.6,22.19-12.502,45.924-11.458,69.7c0,27.45,11.233,52.162,22.1,76.063c10.575,23.271,20.567,45.254,20.567,69.004
				c0,37.883-11.017,65.383-21.667,91.979c-10.325,25.783-21,52.446-21,87.221c0,62.983,36.775,85.333,68.267,85.333
				c33.915-1.134,65.354-18.041,85-45.71c16.629,44.323,46.61,62.777,94.2,62.777c70.867,0,170.667-66.187,170.667-213.333
				C466.15,171.158,422.091,82.422,354.864,69.861z M138.475,360.163c1.825,13.569,2.962,27.221,3.408,40.904
				c0.873,7.021-1.543,14.052-6.545,19.055c-5.003,5.003-12.034,7.418-19.055,6.545c-9.063-0.823-16.244-8.004-17.067-17.067
				c0.861-17.659,5.829-34.873,14.508-50.275c8.463-17.186,15.15-35.19,19.958-53.733
				C134.483,324.738,136.583,343.338,138.475,360.163z M199.54,209.96c-0.48,1.591-0.988,3.149-1.449,4.762
				c-0.633,2.222-1.207,4.506-1.8,6.769c-0.412,1.569-0.854,3.106-1.246,4.694c-0.573,2.322-1.081,4.704-1.61,7.067
				c-0.356,1.59-0.746,3.149-1.082,4.757c-0.503,2.405-0.94,4.868-1.397,7.314c-0.303,1.618-0.64,3.207-0.923,4.843
				c-0.439,2.543-0.807,5.144-1.196,7.729c-0.24,1.592-0.517,3.154-0.736,4.762c-0.344,2.507-0.616,5.071-0.91,7.615
				c-0.202,1.739-0.441,3.448-0.62,5.204c-0.232,2.272-0.394,4.597-0.585,6.899c-0.175,2.078-0.385,4.13-0.527,6.231
				c-0.163,2.405-0.25,4.862-0.37,7.297c-0.1,2.042-0.24,4.057-0.309,6.119c-0.152,4.523-0.228,9.094-0.229,13.714
				c0,5.378,0.057,10.586,0.144,15.712c0.018,1.059,0.044,2.095,0.067,3.143c0.094,4.563,0.223,9.025,0.388,13.388l0.042,1.105
				c0.611,26.067,3.718,52.015,9.279,77.489c-18.273,41.984-62.399,51.297-78.185,51.297c-12.008,0-51.2-4.921-51.2-68.267
				c0-31.483,9.609-55.475,19.783-80.875c11.25-28.096,22.883-57.15,22.883-98.325c0-27.45-11.233-52.162-22.1-76.063
				c-10.575-23.271-20.567-45.254-20.567-69.004c-1.026-21.375,2.37-42.731,9.975-62.733c1.518-3.373,4.876-5.54,8.575-5.533
				c3.162-0.035,6.118,1.566,7.817,4.233c1.782,2.716,2.031,6.16,0.659,9.104c-6.584,14.58-9.979,30.398-9.958,46.396
				c0,19.675,7.783,35.346,16.783,53.488c17.197,30.548,26.119,65.057,25.883,100.112c1.386,42.168-7.75,84.017-26.583,121.771
				C88.437,369.786,82.927,389.46,82.15,409.6c0.813,18.504,15.629,33.32,34.133,34.133c31.458,0,42.667-22.042,42.667-42.667
				c-0.433-14.322-1.604-28.611-3.508-42.813c-2.946-22.595-4.623-45.338-5.025-68.121c0-74.684,0-273.067,102.4-273.067
				c50.025,0,80.375,18.529,84.775,51.2c-1.168,0.008-2.34,0.112-3.51,0.169c-1.05,0.051-2.1,0.061-3.152,0.152
				c-1.267,0.108-2.535,0.306-3.804,0.471c-1.056,0.138-2.11,0.234-3.167,0.411c-1.283,0.215-2.567,0.516-3.85,0.788
				c-1.039,0.22-2.079,0.399-3.119,0.656c-1.279,0.316-2.554,0.718-3.831,1.09c-1.045,0.304-2.09,0.568-3.132,0.909
				c-1.26,0.413-2.516,0.909-3.772,1.375c-1.051,0.39-2.104,0.739-3.152,1.166c-1.271,0.517-2.531,1.118-3.798,1.689
				c-1.025,0.463-2.054,0.886-3.075,1.384c-1.265,0.617-2.517,1.316-3.775,1.986c-1.015,0.541-2.034,1.041-3.044,1.616
				c-1.235,0.704-2.458,1.489-3.686,2.244c-1.018,0.626-2.042,1.214-3.053,1.874c-1.202,0.785-2.388,1.649-3.581,2.483
				c-1.022,0.715-2.052,1.393-3.067,2.143c-1.173,0.867-2.327,1.813-3.49,2.727c-1.015,0.799-2.039,1.561-3.046,2.395
				c-1.167,0.967-2.311,2.01-3.466,3.025c-0.98,0.861-1.97,1.685-2.94,2.58c-1.149,1.06-2.274,2.196-3.409,3.302
				c-0.954,0.93-1.921,1.825-2.865,2.788c-1.115,1.139-2.204,2.351-3.303,3.535c-0.936,1.009-1.886,1.982-2.812,3.023
				c-1.119,1.258-2.207,2.592-3.308,3.897c-0.875,1.04-1.765,2.042-2.629,3.111c-1.117,1.382-2.2,2.838-3.296,4.268
				c-0.82,1.07-1.655,2.103-2.462,3.201c-1.065,1.447-2.096,2.967-3.139,4.46c-0.806,1.155-1.63,2.273-2.422,3.456
				c-1,1.491-1.964,3.053-2.942,4.586c-0.8,1.256-1.618,2.477-2.402,3.761c-0.964,1.578-1.888,3.224-2.827,4.845
				c-0.758,1.307-1.535,2.581-2.277,3.917c-0.946,1.701-1.848,3.471-2.767,5.217c-0.696,1.323-1.412,2.611-2.092,3.959
				c-0.896,1.778-1.746,3.622-2.612,5.443c-0.66,1.385-1.343,2.737-1.985,4.147c-0.823,1.805-1.598,3.675-2.392,5.521
				c-0.642,1.49-1.306,2.948-1.927,4.464c-0.771,1.878-1.491,3.821-2.23,5.738c-0.596,1.544-1.218,3.056-1.793,4.626
				c-0.73,1.994-1.408,4.051-2.105,6.084c-0.533,1.555-1.092,3.078-1.607,4.656C200.802,205.692,200.181,207.837,199.54,209.96z
				 M295.483,494.934c-40.471,0-69.325-13.634-83.633-69.596c-0.029-0.146-0.004-0.296-0.042-0.442
				c-4.737-19.951-7.661-40.289-8.735-60.766c-0.042-0.623-0.075-1.273-0.114-1.902c-0.239-3.797-0.441-7.702-0.616-11.693
				c-0.057-1.33-0.112-2.671-0.163-4.023c-0.133-3.558-0.237-7.209-0.322-10.919c-0.032-1.424-0.073-2.817-0.099-4.265
				c-0.088-5.069-0.144-10.242-0.144-15.594c0-137.821,70.6-230.4,136.533-230.4c2.523,0.017,5.043,0.168,7.55,0.454l0.034-0.004
				c61.23,6.541,103.349,92.203,103.349,212.883C449.083,434.042,359.266,494.934,295.483,494.934z"/>
			<path d="M374.292,405.838L374.292,405.838c-3.265-1.606-5.908-4.245-7.517-7.508c-6.727-11.819-19.654-18.714-33.217-17.717
				c-7.366,0.735-14.45-3.043-17.942-9.571c-6.738-11.823-19.67-18.722-33.242-17.733c-7.388,0.734-14.491-3.053-18-9.596
				c-3.2-5.875-8.104-10.643-14.067-13.675c-4.158-2.218-9.328-0.646-11.546,3.513s-0.646,9.328,3.513,11.546
				c3.273,1.615,5.926,4.26,7.55,7.529c6.741,11.824,19.675,18.724,33.25,17.738c7.378-0.738,14.474,3.043,17.975,9.579
				c6.732,11.82,19.659,18.716,33.225,17.725c7.363-0.741,14.446,3.035,17.933,9.563c3.193,5.872,8.092,10.637,14.05,13.667
				c4.158,2.218,9.328,0.646,11.546-3.513S378.45,408.056,374.292,405.838z"/>
			<path d="M416.174,345.78c-4.772-1.281-9.113-3.821-12.567-7.354c-11.017-10.407-26.307-14.993-41.233-12.367
				c-9.81,1.829-19.9-1.198-27.083-8.125c-10.995-10.405-26.269-14.986-41.175-12.35c-9.796,1.831-19.872-1.192-27.042-8.113
				c-5.331-5.25-11.91-9.058-19.117-11.067c-2.923-0.884-6.096-0.139-8.32,1.954s-3.16,5.216-2.454,8.187
				c0.706,2.971,2.946,5.339,5.874,6.208c4.765,1.266,9.097,3.802,12.533,7.338c10.993,10.408,26.268,14.989,41.175,12.35
				c9.796-1.829,19.872,1.195,27.042,8.117c11.005,10.406,26.284,14.991,41.2,12.362c9.823-1.83,19.924,1.202,27.117,8.138
				c5.344,5.251,11.933,9.06,19.15,11.071c4.51,1.339,9.253-1.225,10.604-5.731C423.229,351.891,420.678,347.142,416.174,345.78z"/>
			<path d="M423.908,268.821c-4.664-0.318-9.145-1.94-12.933-4.679c-12.362-8.154-27.942-9.713-41.675-4.171
				c-8.729,3.646-18.708,2.648-26.542-2.654c-12.372-8.153-27.957-9.714-41.7-4.175c-8.754,3.648-18.756,2.649-26.617-2.658
				c-6.034-4.147-13.052-6.637-20.35-7.221c-4.69-0.469-8.872,2.952-9.342,7.642c-0.469,4.69,2.952,8.872,7.642,9.342
				c4.676,0.319,9.168,1.943,12.967,4.688c12.385,8.151,27.979,9.711,41.733,4.175c8.743-3.649,18.735-2.651,26.583,2.654
				c12.362,8.154,27.943,9.712,41.675,4.167c8.73-3.642,18.706-2.644,26.542,2.654c6.021,4.149,13.028,6.64,20.317,7.221
				c4.69,0.469,8.872-2.952,9.342-7.642C432.019,273.473,428.598,269.29,423.908,268.821z"/>
			<path d="M253.7,226.042c4.335-1.046,8.879-0.824,13.092,0.637c3.874,1.207,7.901,1.847,11.958,1.9
				c3.083-0.02,6.155-0.362,9.167-1.021c7.052-1.339,13.611-4.56,18.983-9.321c6.78-5.954,16.178-7.934,24.783-5.221
				c13.919,4.174,29.005,0.996,40.058-8.438c6.772-5.945,16.157-7.92,24.75-5.208c6.822,2.191,14.11,2.498,21.092,0.887
				c3.006-0.605,5.457-2.777,6.419-5.689c0.962-2.912,0.287-6.116-1.767-8.393c-2.055-2.277-5.173-3.276-8.168-2.618
				c-4.321,1.046-8.852,0.823-13.05-0.642c-13.916-4.177-29-1.001-40.05,8.433c-3.252,3.036-7.312,5.067-11.692,5.85
				c-4.327,1.042-8.862,0.819-13.067-0.642c-13.925-4.172-29.015-0.995-40.075,8.438c-6.799,5.956-16.211,7.936-24.833,5.225
				c-6.83-2.198-14.128-2.501-21.117-0.879c-4.574,1.006-7.483,5.51-6.518,10.093C244.63,224.017,249.108,226.966,253.7,226.042z"/>
			<path d="M263.399,182.946c1.796-0.995,3.935-1.166,5.867-0.467c11.921,2.804,24.043-3.806,28.142-15.346
				c1.117-2.662,1.5-3.558,3.567-4.692c1.797-0.993,3.937-1.16,5.867-0.458c11.911,2.813,24.028-3.799,28.109-15.337
				c1.117-2.65,1.492-3.546,3.55-4.671c1.792-0.994,3.927-1.159,5.85-0.454c5.753,1.396,11.82,0.581,17-2.283
				c4.138-2.26,5.66-7.446,3.4-11.583c-2.26-4.138-7.446-5.66-11.583-3.4c-1.793,0.988-3.925,1.155-5.85,0.458
				c-5.75-1.391-11.812-0.578-16.992,2.279c-5.205,2.805-9.169,7.46-11.108,13.046c-1.117,2.658-1.492,3.55-3.567,4.679
				c-1.793,0.987-3.925,1.154-5.85,0.458c-11.914-2.812-24.034,3.796-28.125,15.333c-1.117,2.662-1.5,3.563-3.583,4.696
				c-1.798,0.991-3.935,1.161-5.867,0.467c-5.757-1.381-11.822-0.564-17.008,2.292c-4.138,2.26-5.66,7.446-3.4,11.583
				S259.262,185.206,263.399,182.946z"/>
			<path d="M331.908,457.201L331.908,457.201c-2.242-1.426-2.625-2.475-3.65-5.284c-3.598-11.83-15.284-19.269-27.525-17.521
				c-2.172,0.513-4.459,0.127-6.342-1.071c-1.883-1.198-3.202-3.106-3.658-5.291c-3.61-11.825-15.292-19.262-27.533-17.529
				c-2.18,0.537-4.485,0.146-6.367-1.079c-1.911-1.177-3.241-3.101-3.667-5.304c-1.715-5.745-5.462-10.669-10.542-13.854
				c-3.976-2.52-9.241-1.345-11.769,2.626c-2.528,3.971-1.364,9.238,2.602,11.774c1.913,1.179,3.245,3.103,3.675,5.308
				c3.615,11.829,15.303,19.267,27.55,17.533c2.175-0.512,4.465-0.125,6.351,1.075s3.207,3.109,3.666,5.296
				c3.606,11.827,15.292,19.262,27.533,17.517c2.171-0.514,4.456-0.128,6.338,1.07c1.882,1.197,3.199,3.105,3.653,5.289
				c1.703,5.742,5.442,10.665,10.517,13.846c2.572,1.645,5.828,1.79,8.537,0.381c2.709-1.409,4.459-4.158,4.589-7.208
				S334.487,458.835,331.908,457.201z"/>
		</g>
	</g>
</g>
<g>
</g>
<g>
</g>
<g>
</g>
<g>
</g>
<g>
</g>
<g>
</g>
<g>
</g>
<g>
</g>
<g>
</g>
<g>
</g>
<g>
</g>
<g>
</g>
<g>
</g>
<g>
</g>
<g>
</g>
</svg>
