<?xml version="1.0" encoding="utf-8"?>
<!-- Generator: Adobe Illustrator 27.7.0, SVG Export Plug-In . SVG Version: 6.00 Build 0)  -->
<svg version="1.1" id="Capa_1" xmlns="http://www.w3.org/2000/svg" xmlns:xlink="http://www.w3.org/1999/xlink" x="0px" y="0px"
	 viewBox="0 0 512 512" style="enable-background:new 0 0 512 512;" xml:space="preserve">
<g>
	<path d="M486.7,99.4L396.6,9.2c-6-6-13.9-9.2-22.3-9.2H135.8c-13,0-23.5,10.6-23.5,23.5V264c0,4.1,3.4,7.5,7.5,7.5s7.5-3.4,7.5-7.5
		V23.5c0-4.7,3.8-8.5,8.5-8.5h238.5c0.8,0,1.7,0.1,2.5,0.2v80.5c0,13,10.6,23.5,23.5,23.5h80.5c0.1,0.8,0.2,1.6,0.2,2.5v366.8
		c0,4.7-3.8,8.5-8.5,8.5H135.8c-4.7,0-8.5-3.8-8.5-8.5c0-4.1-3.4-7.5-7.5-7.5s-7.5,3.4-7.5,7.5c0,13,10.6,23.5,23.5,23.5h336.7
		c13,0,23.5-10.6,23.5-23.5V121.7C496,113.2,492.7,105.3,486.7,99.4L486.7,99.4z M391.8,95.7V25.6l78.6,78.6h-70.1
		C395.6,104.2,391.8,100.4,391.8,95.7L391.8,95.7z"/>
	<path d="M335.6,440.4V312.1c0-13-10.6-23.5-23.5-23.5H39.6c-13,0-23.5,10.6-23.5,23.5v128.3c0,13,10.6,23.5,23.5,23.5h272.5
		C325.1,463.9,335.6,453.3,335.6,440.4L335.6,440.4z M31,440.4V312.1c0-4.7,3.8-8.5,8.5-8.5H312c4.7,0,8.5,3.8,8.5,8.5v128.3
		c0,4.7-3.8,8.5-8.5,8.5H39.6C34.9,448.9,31,445.1,31,440.4L31,440.4z"/>
	<path d="M360.2,399.8h56.1c13,0,23.5-10.6,23.5-23.5V167.8c0-13-10.6-23.5-23.5-23.5H191.9c-13,0-23.5,10.6-23.5,23.5V264
		c0,4.1,3.4,7.5,7.5,7.5s7.5-3.4,7.5-7.5v-8.5h57.1v8.5c0,4.1,3.4,7.5,7.5,7.5s7.5-3.4,7.5-7.5v-8.5h97.2v136.8
		C352.7,396.4,356.1,399.8,360.2,399.8L360.2,399.8z M424.9,240.5h-57.1v-33.1h57.1V240.5z M424.9,336.7h-57.1v-33.1h57.1V336.7z
		 M416.3,384.8h-48.6v-33.1h57.1v24.6C424.9,380.9,421,384.8,416.3,384.8L416.3,384.8z M424.9,167.8v24.6h-57.1v-33.1h48.6
		C421,159.3,424.9,163.1,424.9,167.8L424.9,167.8z M352.7,192.4h-97.2v-33.1h97.2V192.4z M191.9,159.3h48.6v33.1h-57.1v-24.6
		C183.3,163.1,187.2,159.3,191.9,159.3L191.9,159.3z M183.3,240.5v-33.1h57.1v33.1H183.3z M255.5,240.5v-33.1h97.2v33.1H255.5z
		 M424.9,255.5v33.1h-57.1v-33.1H424.9z"/>
</g>
<g>
	<path d="M125.1,332.1c1.8,0.8,3.3,2,4.5,3.8c1.2,1.7,1.9,3.4,2.2,5.2s-0.1,3.4-1,4.9c-0.9,1.5-2.5,2.4-4.8,2.9
		c-4.4,0.8-8.6,1.1-12.4,1c-3.9-0.1-7.3-0.2-10.2-0.2c0,11.7,0.1,23.1,0.2,34.3s0.1,23.2-0.2,35.6c0,2.7-0.9,4.6-2.7,5.9
		c-1.8,1.2-3.8,1.7-5.9,1.5c-2.2-0.2-4.1-1.1-5.9-2.6c-1.8-1.5-2.7-3.7-2.7-6.4c-0.1-11.4-0.2-22.8-0.2-34.2s0-22.8,0-34.2
		c-0.9,0-2.3,0.1-4.4,0.2c-2.1,0.1-4.3,0.2-6.8,0.1c-2.4-0.1-5-0.2-7.6-0.6c-2.6-0.3-4.9-1-6.8-2c-1.5-0.8-2.5-1.9-3.1-3.4
		c-0.5-1.5-0.5-3-0.1-4.6c0.5-1.5,1.3-3,2.3-4.4c1.2-1.4,2.6-2.3,4.3-2.8c8-0.5,15.9-0.7,23.3-0.5c7.6,0.2,15.1,0.2,23,0.2
		c2.3,0,4.6,0,6.9-0.1c2.3-0.1,4.7-0.1,7-0.1L125.1,332.1z"/>
	<path d="M141.4,411.4c-0.6-1.9-0.9-3.7-0.6-5.5c0.3-1.9,0.9-3.4,1.9-4.7s2.3-2.2,4-2.8c1.6-0.6,3.4-0.3,5.5,0.5
		c1.8,0.8,3.4,2,4.7,3.4c1.3,1.5,2.9,2.7,4.7,3.6c2.5,1.2,5,2.2,7.7,2.8c1.8,0.5,3.6,0.8,5.5,1c1.8,0.2,3.7,0.2,5.6,0.2
		c1.4-0.4,2.7-0.8,3.7-1.1c1.1-0.4,2.2-1.2,3.4-2.4c1.4-1.2,2.3-2.8,2.8-4.5c0.5-1.7,0.5-3.5,0-5.1c-0.5-1.7-1.3-3.3-2.4-4.6
		s-2.7-2.4-4.4-2.9c-3.3-1.1-6.7-2-10.1-2.7c-3.3-0.7-6.6-1.4-9.8-2.3c-3.2-0.9-6.1-2.1-9-3.8c-2.8-1.6-5.4-3.9-7.8-6.9
		c-1.4-1.6-2.2-3.1-2.6-4.4c-0.4-1.2-0.8-2.9-1.3-4.8c-0.9-4.6-0.5-8.6,1.1-11.8c1.6-3.3,3.6-6.1,5.9-8.7c3.1-3.4,6.6-6,10.4-7.7
		c3.9-1.8,7.9-2.9,12.3-3.5c4.2-0.6,8.6-0.4,13,0.3c4.3,0.7,8.5,2,12.4,3.8c2.3,1,3.8,2.4,4.4,4.5c0.6,2,0.6,4,0.1,6
		c-0.5,2-1.7,3.5-3.3,4.8c-1.6,1.2-3.5,1.7-5.8,1.3c-2.3-0.5-4.4-1-6.5-1.5c-2-0.6-4.1-1-6-1.4c-1.5-0.3-3.2-0.3-5-0.2
		c-1.8,0.2-3.4,0.5-5,1c-1.6,0.4-3.1,0.9-4.4,1.5c-1.4,0.6-2.3,1.1-3.1,1.7c-0.8,0.7-1.5,1.5-2.3,2.6s-1.2,2.3-1.3,3.7
		c-0.2,1.6,0.5,3,1.9,4.1c1.4,1.1,3,1.9,4.6,2.4c3.2,0.7,6.4,1.3,9.8,2c3.3,0.7,6.7,1.5,9.9,2.6c3.2,1.1,6.3,2.5,9.1,4.3
		c2.8,1.7,5.2,4.1,7.3,7c2.2,2.5,3.8,5.4,4.8,8.6s1.4,6.4,1.1,9.6c-0.3,3.2-1,6.3-2.3,9.2s-3,5.5-5.1,7.7c-1.5,1.5-3.2,2.9-4.8,4
		c-1.7,1.1-3.5,2.2-5.4,3.3c-3.9,2-7.9,3-12.3,3c-4.4,0-8.8-0.7-13.2-2c-4.4-1.3-8.6-3.2-12.5-5.5s-7.3-5-10.1-7.7L141.4,411.4z"/>
	<path d="M279.8,334.8c1.2-2,2.6-3.3,4.4-3.9c1.8-0.7,3.6-0.8,5.4-0.4c1.8,0.4,3.3,1.3,4.6,2.8c1.3,1.5,1.9,3.3,1.8,5.7
		c-0.1,2.2-0.7,4.3-1.9,6.2c-1.2,1.9-2.3,3.8-3.3,5.6c-2.6,5.1-5,10.1-7.4,15.2c-2.3,5.1-4.6,10.4-6.8,15.6
		c-2.2,5.1-4.2,10.3-6.2,15.3c-1.9,5.1-3.9,10.3-5.8,15.5c-0.6,1.5-1.4,3.3-2,5.5c-0.6,2.1-1.5,3.9-2.6,5.5
		c-1.1,1.5-2.3,2.6-3.8,3.2c-1.5,0.6-3,0.7-4.4,0.4c-1.5-0.3-2.9-1-4.1-2c-1.3-1-2.3-2.4-2.8-4c-1.1-2.7-2.1-5.4-3.1-8
		s-2-5.2-3.1-7.8c-1.1-2.7-2.1-5.4-3.1-8c-1-2.6-2-5.2-3.1-7.8c-2-5.3-4.1-10.7-6-15.9c-2-5.3-4-10.6-5.9-15.9
		c-1.3-3.3-2.3-6.2-3.4-8.7c-1-2.5-1.9-5.5-2.7-8.7c-0.6-2.2-0.4-4.2,0.9-5.8c1.3-1.6,2.9-2.8,4.9-3.4c2-0.7,4-0.7,6,0
		c2.1,0.7,3.6,2,4.5,4.3c4.1,9.7,7.7,19.5,11.3,29.4c3.5,9.9,7,19.8,10.7,29.8c0.5-1.5,1-2.6,1.4-3.4s0.6-1.5,0.8-2
		c0.2-0.6,0.4-1,0.5-1.2c0.1-0.3,0.3-0.6,0.5-0.9c1-3.9,2.3-7.7,4.1-11.3c1.8-3.7,3.4-7.3,5-11c4.1-9.9,8.7-19.5,14-28.7
		L279.8,334.8z"/>
</g>
</svg>
