<svg id="Layer_1" viewBox="0 0 64 64" xmlns="http://www.w3.org/2000/svg" data-name="Layer 1"><path d="m9.896 49.64c.014.273.364 6.737 1.549 11.617.084.35.352.625.698.724.09.026.183.039.274.039.259 0 .513-.101.703-.286.146-.143 3.635-3.47 9.806-2.174 9.517 2 17.095 1.12 22.52-2.617 6.047-4.166 7.086-10.329 7.128-10.589.051-.324-.06-.653-.297-.88-.237-.226-.571-.322-.893-.256-1.621.334-3.218.558-4.628.708 10.917-7.544 6.436-24.424 6.383-24.614-.106-.386-.432-.671-.829-.725-.394-.056-.787.132-.993.476-.851 1.418-1.93 2.822-3.038 4.104.221-1.043.293-2.119.215-3.226-.718-10.237-14.062-19.384-14.63-19.769-.373-.253-.87-.224-1.212.069-.342.294-.445.781-.252 1.188.05.104 4.919 10.521 1.668 18.151-1.381 3.241-4.076 5.549-8.011 6.86-15.576 5.192-16.313 17.386-16.169 21l.007.2zm16.795-19.302c4.501-1.5 7.603-4.184 9.218-7.974 2.417-5.672.921-12.439-.39-16.416 3.884 3.193 10.52 9.564 10.98 16.131.226 3.222-1.112 6.172-3.976 8.767-.283.227-5.824 4.616-13.6 6.803-.532.15-.842.702-.692 1.233.125.441.525.73.962.73.089 0 .181-.012.271-.038 8.363-2.352 14.11-7.004 14.351-7.201 0 0 0-.001.001-.002h.002c.214-.177 4.652-3.86 7.875-8.273.906 5.27 1.787 18.13-10.065 22.148-.676.071-4.368.449-8.364.675-.551.031-.973.503-.942 1.055.03.532.471.943.998.943.019 0 .038 0 .058-.001 4.182-.237 8.045-.639 8.533-.691.477-.002 4.089-.043 8.297-.757-.646 1.906-2.25 5.325-5.929 7.846-4.955 3.395-12 4.164-20.941 2.285-4.964-1.044-8.486.52-10.278 1.673-.879-4.463-1.162-9.676-1.164-9.688l-.007-.228c-.167-4.18.939-14.401 14.803-19.022z"/><path d="m27.903 49.097c.427 0 .864-.004 1.308-.012.552-.01.992-.466.982-1.018s-.471-.98-1.018-.982c-.432.008-.857.012-1.272.012-.552 0-1 .448-1 1s.448 1 1 1z"/></svg>