<?xml version="1.0" encoding="UTF-8" standalone="no"?>
<!-- Created with Inkscape (http://www.inkscape.org/) -->

<svg
   version="1.1"
   id="svg381"
   xml:space="preserve"
   width="682.66669"
   height="682.66669"
   viewBox="0 0 682.66669 682.66669"
   xmlns="http://www.w3.org/2000/svg"
   xmlns:svg="http://www.w3.org/2000/svg"><defs
     id="defs385"><clipPath
       clipPathUnits="userSpaceOnUse"
       id="clipPath395"><path
         d="M 0,512 H 512 V 0 H 0 Z"
         id="path393" /></clipPath></defs><g
     id="g387"
     transform="matrix(1.3333333,0,0,-1.3333333,0,682.66667)"><g
       id="g389"><g
         id="g391"
         clip-path="url(#clipPath395)"><g
           id="g397"
           transform="translate(406.8066,401)"><path
             d="M 0,0 H 78.5 L -25,103.5 V 25 C -25,11.193 -13.808,0 0,0 Z"
             style="fill:none;stroke:#000000;stroke-width:15;stroke-linecap:round;stroke-linejoin:round;stroke-miterlimit:10;stroke-dasharray:none;stroke-opacity:1"
             id="path399" /></g><g
           id="g401"
           transform="translate(315.96,245.9512)"><path
             d="m 0,0 h -274.267 c -8.284,0 -15,6.716 -15,15 v 119.894 c 0,8.284 6.716,15 15,15 H 0 c 8.284,0 15,-6.716 15,-15 V 15 C 15,6.716 8.284,0 0,0 Z"
             style="fill:none;stroke:#000000;stroke-width:15;stroke-linecap:round;stroke-linejoin:round;stroke-miterlimit:10;stroke-dasharray:none;stroke-opacity:1"
             id="path403" /></g><g
           id="g405"
           transform="translate(405,289.022)"><path
             d="M 0,0 V -215.522"
             style="fill:none;stroke:#000000;stroke-width:15;stroke-linecap:round;stroke-linejoin:round;stroke-miterlimit:10;stroke-dasharray:none;stroke-opacity:1"
             id="path407" /></g><g
           id="g409"
           transform="translate(415.5059,73.5)"><path
             d="m 0,0 h -21.455 c -2.646,0 -4.836,-2.056 -5.003,-4.696 L -30,-60.671 c -0.184,-2.887 2.109,-5.329 5.002,-5.329 h 28.54 c 2.894,0 5.186,2.442 5.003,5.329 L 5.002,-4.696 C 4.835,-2.056 2.646,0 0,0 Z"
             style="fill:none;stroke:#000000;stroke-width:15;stroke-linecap:round;stroke-linejoin:round;stroke-miterlimit:10;stroke-dasharray:none;stroke-opacity:1"
             id="path411" /></g><g
           id="g413"
           transform="translate(383.7783,245.9512)"><path
             d="M 0,0 H 21.222"
             style="fill:none;stroke:#000000;stroke-width:15;stroke-linecap:round;stroke-linejoin:round;stroke-miterlimit:10;stroke-dasharray:none;stroke-opacity:1"
             id="path415" /></g><g
           id="g417"
           transform="translate(383.7783,210.9082)"><path
             d="M 0,0 H 21.222"
             style="fill:none;stroke:#000000;stroke-width:15;stroke-linecap:round;stroke-linejoin:round;stroke-miterlimit:10;stroke-dasharray:none;stroke-opacity:1"
             id="path419" /></g><g
           id="g421"
           transform="translate(383.7783,175.8652)"><path
             d="M 0,0 H 21.222"
             style="fill:none;stroke:#000000;stroke-width:15;stroke-linecap:round;stroke-linejoin:round;stroke-miterlimit:10;stroke-dasharray:none;stroke-opacity:1"
             id="path423" /></g><g
           id="g425"
           transform="translate(383.7783,140.8223)"><path
             d="M 0,0 H 21.222"
             style="fill:none;stroke:#000000;stroke-width:15;stroke-linecap:round;stroke-linejoin:round;stroke-miterlimit:10;stroke-dasharray:none;stroke-opacity:1"
             id="path427" /></g><g
           id="g429"
           transform="translate(383.7783,105.7793)"><path
             d="M 0,0 H 21.222"
             style="fill:none;stroke:#000000;stroke-width:15;stroke-linecap:round;stroke-linejoin:round;stroke-miterlimit:10;stroke-dasharray:none;stroke-opacity:1"
             id="path431" /></g><g
           id="g433"
           transform="translate(170.7617,191.8462)"><path
             d="M 0,0 H 115"
             style="fill:none;stroke:#000000;stroke-width:15;stroke-linecap:round;stroke-linejoin:round;stroke-miterlimit:10;stroke-dasharray:none;stroke-opacity:1"
             id="path435" /></g><g
           id="g437"
           transform="translate(170.7617,140.8223)"><path
             d="M 0,0 H 115"
             style="fill:none;stroke:#000000;stroke-width:15;stroke-linecap:round;stroke-linejoin:round;stroke-miterlimit:10;stroke-dasharray:none;stroke-opacity:1"
             id="path439" /></g><g
           id="g441"
           transform="translate(170.7617,89.7988)"><path
             d="M 0,0 H 115"
             style="fill:none;stroke:#000000;stroke-width:15;stroke-linecap:round;stroke-linejoin:round;stroke-miterlimit:10;stroke-dasharray:none;stroke-opacity:1"
             id="path443" /></g><g
           id="g445"
           transform="translate(405,264)"><path
             d="M 0,0 H 21.222"
             style="fill:none;stroke:#000000;stroke-width:15;stroke-linecap:round;stroke-linejoin:round;stroke-miterlimit:10;stroke-dasharray:none;stroke-opacity:1"
             id="path447" /></g><g
           id="g449"
           transform="translate(405,228.957)"><path
             d="M 0,0 H 21.222"
             style="fill:none;stroke:#000000;stroke-width:15;stroke-linecap:round;stroke-linejoin:round;stroke-miterlimit:10;stroke-dasharray:none;stroke-opacity:1"
             id="path451" /></g><g
           id="g453"
           transform="translate(405,193.9141)"><path
             d="M 0,0 H 21.222"
             style="fill:none;stroke:#000000;stroke-width:15;stroke-linecap:round;stroke-linejoin:round;stroke-miterlimit:10;stroke-dasharray:none;stroke-opacity:1"
             id="path455" /></g><g
           id="g457"
           transform="translate(405,158.8711)"><path
             d="M 0,0 H 21.222"
             style="fill:none;stroke:#000000;stroke-width:15;stroke-linecap:round;stroke-linejoin:round;stroke-miterlimit:10;stroke-dasharray:none;stroke-opacity:1"
             id="path459" /></g><g
           id="g461"
           transform="translate(405,123.8281)"><path
             d="M 0,0 H 21.222"
             style="fill:none;stroke:#000000;stroke-width:15;stroke-linecap:round;stroke-linejoin:round;stroke-miterlimit:10;stroke-dasharray:none;stroke-opacity:1"
             id="path463" /></g><g
           id="g465"
           transform="translate(183.6162,355.5044)"><path
             d="M 0,0 V -65.982"
             style="fill:none;stroke:#000000;stroke-width:15;stroke-linecap:round;stroke-linejoin:round;stroke-miterlimit:10;stroke-dasharray:none;stroke-opacity:1"
             id="path467" /></g><g
           id="g469"
           transform="translate(89.9287,355.0044)"><path
             d="M 0,0 H 41.639 L -1.354,-65.982 h 44.018"
             style="fill:none;stroke:#000000;stroke-width:15;stroke-linecap:round;stroke-linejoin:round;stroke-miterlimit:10;stroke-dasharray:none;stroke-opacity:1"
             id="path471" /></g><g
           id="g473"
           transform="translate(234.6396,355.0044)"><path
             d="M 0,0 V -65.982"
             style="fill:none;stroke:#000000;stroke-width:15;stroke-linecap:round;stroke-linejoin:round;stroke-miterlimit:10;stroke-dasharray:none;stroke-opacity:1"
             id="path475" /></g><g
           id="g477"
           transform="translate(271.9971,336.3838)"><path
             d="m 0,0 c 0,-10.284 -8.701,-18.62 -18.984,-18.62 -5.101,0 -18.245,-0.082 -18.245,-0.082 0,0 -0.083,13.518 -0.083,18.702 0,4.257 -0.045,18.621 -0.045,18.621 h 18.373 C -8.701,18.621 0,10.284 0,0 Z"
             style="fill:none;stroke:#000000;stroke-width:15;stroke-linecap:round;stroke-linejoin:round;stroke-miterlimit:10;stroke-dasharray:none;stroke-opacity:1"
             id="path479" /></g><g
           id="g481"
           transform="translate(381.8066,504.5)"><path
             d="m 0,0 h -251.5 c -13.808,0 -25,-11.193 -25,-25 v -83.655 h 210.653 c 8.284,0 15,-6.716 15,-15 v -119.894 c 0,-8.284 -6.716,-15 -15,-15 H -276.5 V -472 c 0,-13.807 11.192,-25 25,-25 h 330 c 13.807,0 25,11.193 25,25 v 368.5 z"
             style="fill:none;stroke:#000000;stroke-width:15;stroke-linecap:round;stroke-linejoin:round;stroke-miterlimit:10;stroke-dasharray:195, 35, 965, 0;stroke-dashoffset:0;stroke-opacity:1"
             id="path483" /></g></g></g></g></svg>
